<?xml version="1.0" encoding="UTF-8"?>
<svg width="24px" height="24px" viewBox="0 0 24 24" version="1.1" xmlns="http://www.w3.org/2000/svg" xmlns:xlink="http://www.w3.org/1999/xlink">
    <!-- Generator: Sketch 48.2 (47327) - http://www.bohemiancoding.com/sketch -->
    <title>Combined Shape</title>
    <desc>Created with Sketch.</desc>
    <defs></defs>
    <g id="Home" stroke="none" stroke-width="1" fill="none" fill-rule="evenodd" transform="translate(-1535.000000, -235.000000)">
        <path d="M1547,259 C1540.37258,259 1535,253.627417 1535,247 C1535,240.372583 1540.37258,235 1547,235 C1553.62742,235 1559,240.372583 1559,247 C1559,253.627417 1553.62742,259 1547,259 Z M1545.19826,251.402467 C1544.86822,251.845291 1544.95965,252.47182 1545.40248,252.801858 C1545.8453,253.131895 1546.47183,253.040463 1546.80187,252.597639 L1550.57161,247.539616 C1550.83834,247.181734 1550.8356,246.690419 1550.5649,246.335536 L1546.79515,241.393558 C1546.46019,240.954444 1545.83268,240.870007 1545.39357,241.204965 C1544.95445,241.539922 1544.87002,242.167432 1545.20497,242.606547 L1548.51742,246.949017 L1545.19826,251.402467 Z" id="Combined-Shape" fill="#C3C3C3"></path>
    </g>
</svg>