<?xml version="1.0" encoding="UTF-8"?>
<svg width="29px" height="29px" viewBox="0 0 29 29" version="1.1" xmlns="http://www.w3.org/2000/svg" xmlns:xlink="http://www.w3.org/1999/xlink">
    <!-- Generator: Sketch 46.2 (44496) - http://www.bohemiancoding.com/sketch -->
    <title>Combined Shape</title>
    <desc>Created with Sketch.</desc>
    <defs></defs>
    <g id="Symbols" stroke="none" stroke-width="1" fill="none" fill-rule="evenodd">
        <g id="Menu-–-Adicionar-BT-WhatsApp" transform="translate(-731.000000, -66.000000)" fill-rule="nonzero" fill="#823486">
            <path d="M746.825237,84.9330713 C747.117332,84.7724192 747.484356,84.8789745 747.645008,85.1710691 C747.80566,85.4631638 747.699104,85.8301875 747.40701,85.9908396 C746.09794,86.710828 744.607665,87.0916761 743.072002,87.0916761 C738.09092,87.0916761 734.017998,83.0187534 734.017998,78.0376722 C734.017998,73.056591 738.09092,68.9836683 743.072002,68.9836683 C748.053083,68.9836683 752.126006,73.056591 752.126006,78.0376722 C752.126006,78.8273853 752.01307,79.6502015 751.806184,80.4777478 C751.725332,80.8011537 751.397617,80.997783 751.074211,80.9169315 C750.750805,80.83608 750.554176,80.5083646 750.635027,80.1849586 C750.819168,79.4483929 750.918805,78.7224684 750.918805,78.0376722 C750.918805,73.7233094 747.386365,70.1908688 743.072002,70.1908688 C738.757639,70.1908688 735.225198,73.7233094 735.225198,78.0376722 C735.225198,82.352035 738.757639,85.8844756 743.072002,85.8844756 C744.404752,85.8844756 745.694851,85.5547838 746.825237,84.9330713 Z M747.068661,88.1627365 C747.3772,88.0365157 747.729643,88.1843143 747.855864,88.492854 C747.982085,88.8013936 747.834286,89.1538365 747.525746,89.2800572 C747.327959,89.3609705 747.128463,89.4357433 746.927079,89.5044691 C746.611586,89.6121371 746.268546,89.4436615 746.160878,89.1281682 C746.05321,88.812675 746.221686,88.4696351 746.537179,88.3619671 C746.71592,88.3009682 746.893011,88.234593 747.068661,88.1627365 Z M744.87738,88.7687972 C745.206767,88.7174853 745.515384,88.9429093 745.566696,89.2722958 C745.618008,89.6016822 745.392584,89.9102993 745.063197,89.9616112 C744.855586,89.9939529 744.645528,90.0209192 744.432803,90.0425854 C744.101159,90.0763633 743.804927,89.8348956 743.771149,89.5032521 C743.737371,89.1716086 743.978839,88.8753759 744.310482,88.841598 C744.502109,88.8220808 744.690996,88.7978322 744.87738,88.7687972 Z M742.567997,88.8910293 C742.901012,88.9061904 743.158683,89.1884422 743.143522,89.5214565 C743.128361,89.8544708 742.846109,90.1121417 742.513094,90.0969807 C742.301155,90.0873318 742.090017,90.0721955 741.879828,90.0516133 C741.548055,90.0191255 741.305437,89.7238342 741.337925,89.3920619 C741.370413,89.0602895 741.665704,88.8176714 741.997477,88.8501593 C742.186799,88.8686981 742.377014,88.8823344 742.567997,88.8910293 Z M740.303503,88.5473483 C740.625955,88.6319254 740.81879,88.9618874 740.734213,89.2843391 C740.649636,89.6067908 740.319674,89.7996262 739.997222,89.7150492 C739.791967,89.661212 739.588377,89.6019893 739.386624,89.5374585 C739.069111,89.4359016 738.894044,89.0961783 738.995601,88.7786652 C739.097158,88.4611521 739.436881,88.2860849 739.754394,88.3876418 C739.935826,88.4456732 740.118914,88.4989317 740.303503,88.5473483 Z M738.165971,87.7361126 C738.463362,87.8867346 738.582341,88.2499209 738.431719,88.5473118 C738.281097,88.8447028 737.917911,88.9636826 737.62052,88.8130606 C737.43141,88.7172807 737.244897,88.6165336 737.061165,88.5109375 C736.772139,88.3448269 736.672497,87.9758663 736.838608,87.686841 C737.004719,87.3978157 737.373679,87.2981736 737.662705,87.4642843 C737.828023,87.5592972 737.995833,87.6499419 738.165971,87.7361126 Z M736.23014,86.4807273 C736.489032,86.6907352 736.52866,87.0708537 736.318652,87.3297456 C736.108644,87.5886376 735.728526,87.628266 735.469634,87.4182581 C735.305168,87.2848472 735.144221,87.1471414 734.986967,87.0052958 C734.739431,86.7820151 734.719768,86.4003427 734.943049,86.1528066 C735.166329,85.9052706 735.548002,85.8856077 735.795538,86.1088884 C735.937136,86.2366117 736.082056,86.3606049 736.23014,86.4807273 Z M734.609076,84.8549654 C734.818333,85.1144646 734.777604,85.4944667 734.518104,85.7037238 C734.258605,85.9129809 733.878603,85.8722516 733.669346,85.6127524 C733.536427,85.4479195 733.407848,85.2796261 733.283756,85.1080509 C733.088395,84.8379352 733.148996,84.4605918 733.419112,84.2652309 C733.689227,84.06987 734.066571,84.1304708 734.261932,84.4005864 C734.373646,84.555048 734.489405,84.7065617 734.609076,84.8549654 Z M733.374955,82.9464546 C733.525662,83.2438026 733.406786,83.6070228 733.109438,83.7577295 C732.81209,83.9084363 732.44887,83.78956 732.298163,83.492212 C732.202392,83.3032538 732.111606,83.1117509 732.025914,82.9178862 C731.891141,82.6129851 732.029058,82.256559 732.333959,82.1217863 C732.63886,81.9870136 732.995286,82.1249299 733.130059,82.429831 C733.207138,82.6042097 733.288802,82.7764721 733.374955,82.9464546 Z M732.557284,80.7868786 C732.641265,81.1094861 732.44782,81.4390911 732.125213,81.5230719 C731.802605,81.6070527 731.473,81.4136076 731.389019,81.0910001 C731.335709,80.8862116 731.28777,80.6798256 731.245269,80.4720096 C731.178476,80.1454103 731.389091,79.8265029 731.71569,79.75971 C732.04229,79.692917 732.361197,79.9035316 732.42799,80.2301309 C732.466219,80.417062 732.509338,80.6026933 732.557284,80.7868786 Z M732.216524,78.4926896 C732.230204,78.8257679 731.971282,79.1068719 731.638203,79.1205529 C731.305125,79.1342338 731.024021,78.875311 731.01034,78.5422327 C731.003581,78.3776747 731.000129,78.2126682 731,78.0468496 C730.999996,77.9924218 731.000246,77.945794 731.000786,77.8981454 C731.004557,77.5648076 731.277839,77.2976414 731.611176,77.3014131 C731.944514,77.3051848 732.21168,77.5784661 732.207909,77.911804 C732.207423,77.9547624 732.207197,77.9968203 732.2072,78.0463397 C732.207316,78.1955213 732.210429,78.3443233 732.216524,78.4926896 Z M732.361226,76.2020675 C732.305421,76.5307227 731.993755,76.751912 731.6651,76.6961076 C731.336445,76.6403032 731.115255,76.3286372 731.17106,75.999982 C731.206559,75.7909098 731.24752,75.5831272 731.293879,75.3767974 C731.366958,75.0515469 731.689867,74.8471215 732.015118,74.9202003 C732.340368,74.9932792 732.544794,75.3161889 732.471715,75.6414393 C732.430013,75.8270412 732.393165,76.0139646 732.361226,76.2020675 Z M732.98753,73.9833666 C732.863193,74.2926701 732.511658,74.4426151 732.202354,74.3182781 C731.893051,74.1939411 731.743106,73.842406 731.867443,73.5331024 C731.946531,73.3363602 732.03079,73.1418307 732.120119,72.9496956 C732.260659,72.6474096 732.61964,72.5162886 732.921926,72.6568288 C733.224212,72.7973689 733.355333,73.1563505 733.214793,73.4586365 C733.134446,73.6314549 733.058661,73.806419 732.98753,73.9833666 Z M734.056523,71.9688514 C733.870169,72.2452582 733.495028,72.3182607 733.218621,72.1319072 C732.942214,71.9455536 732.869212,71.5704122 733.055565,71.2940054 C733.173943,71.1184237 733.296916,70.9459816 733.424345,70.7768595 C733.624951,70.5106165 734.003408,70.4574077 734.269651,70.6580143 C734.535894,70.8586209 734.589103,71.2370774 734.388496,71.5033204 C734.27378,71.6555701 734.16308,71.8108016 734.056523,71.9688514 Z M735.550532,70.194357 C735.309952,70.4251156 734.927857,70.4171536 734.697098,70.1765734 C734.466339,69.9359931 734.474301,69.5538975 734.714882,69.3231389 C734.867677,69.1765817 735.024287,69.0340452 735.184542,68.8956891 C735.436871,68.6778401 735.818026,68.705792 736.035875,68.9581215 C736.253724,69.210451 736.225772,69.591606 735.973443,69.809455 C735.829142,69.9340372 735.68812,70.0623861 735.550532,70.194357 Z M737.329141,68.8108027 C737.046251,68.9871592 736.673958,68.9007968 736.497602,68.6179068 C736.321245,68.3350169 736.407607,67.962724 736.690497,67.7863675 C736.870193,67.6743432 737.052824,67.5670568 737.238206,67.4646331 C737.529992,67.3034213 737.89722,67.4092727 738.058432,67.7010588 C738.219643,67.9928449 738.113792,68.3600723 737.822006,68.521284 C737.655196,68.6134464 737.490853,68.7099899 737.329141,68.8108027 Z M739.404392,67.8063028 C739.090547,67.918685 738.745022,67.7553672 738.63264,67.4415223 C738.520258,67.1276774 738.683575,66.7821521 738.99742,66.6697699 C739.196763,66.5983888 739.398093,66.5322554 739.601233,66.4714536 C739.920594,66.3758659 740.256976,66.5572699 740.352564,66.8766308 C740.448152,67.1959916 740.266748,67.5323739 739.947387,67.6279616 C739.764708,67.6826392 739.583658,67.7421111 739.404392,67.8063028 Z M741.654187,67.2642962 C741.32361,67.3072772 741.020781,67.0741347 740.9778,66.743558 C740.934819,66.4129812 741.167962,66.1101528 741.498539,66.0671718 C741.708121,66.0399223 741.918777,66.018121 742.130358,66.0018142 C742.462731,65.9761976 742.75294,66.2248733 742.778556,66.5572468 C742.804173,66.8896204 742.555497,67.1798286 742.223123,67.2054452 C742.032565,67.2201318 741.842876,67.2397631 741.654187,67.2642962 Z M743.963597,67.2088214 C743.631326,67.1819058 743.383787,66.8907277 743.410702,66.5584568 C743.437618,66.226186 743.728796,65.9786466 744.061067,66.0055622 C744.27277,66.0227112 744.483532,66.0453645 744.693201,66.073475 C745.023604,66.1177724 745.255538,66.421527 745.211241,66.75193 C745.166943,67.0823329 744.863189,67.3142673 744.532786,67.2699699 C744.344028,67.244663 744.154255,67.2242657 743.963597,67.2088214 Z M746.218349,67.6344911 C745.89919,67.5382313 745.718494,67.2014679 745.814754,66.882309 C745.911014,66.5631501 746.247777,66.3824546 746.566936,66.4787144 C746.770053,66.5399755 746.971349,66.6065707 747.170646,66.6784155 C747.484251,66.7914669 747.646831,67.1373398 747.53378,67.4509442 C747.420728,67.7645487 747.074855,67.927129 746.761251,67.8140776 C746.582026,67.7494689 746.401007,67.6895818 746.218349,67.6344911 Z M748.323812,68.5222867 C748.032057,68.3610191 747.926276,67.9937715 748.087543,67.7020163 C748.248811,67.410261 748.616058,67.3044799 748.907814,67.4657474 C749.093189,67.5682136 749.275811,67.6755425 749.455498,67.7876094 C749.738353,67.9640209 749.824643,68.3363306 749.648232,68.6191862 C749.47182,68.9020419 749.099511,68.9883319 748.816655,68.8119203 C748.654952,68.7110692 748.490616,68.6144873 748.323812,68.5222867 Z M750.215566,69.8485254 C749.964429,69.6293022 749.938559,69.2480002 750.157782,68.9968638 C750.377005,68.7457273 750.758307,68.7198565 751.009444,68.9390798 C751.168929,69.0782989 751.324749,69.2216775 751.476732,69.3690552 C751.71605,69.6011221 751.721929,69.9832555 751.489862,70.2225739 C751.257795,70.4618923 750.875662,70.4677708 750.636343,70.2357039 C750.499486,70.1029936 750.359175,69.9738857 750.215566,69.8485254 Z M751.758056,71.5067037 C751.557552,71.2403827 751.610908,70.861947 751.877229,70.6614438 C752.14355,70.4609407 752.521986,70.5142966 752.722489,70.7806176 C752.849852,70.9497888 752.972758,71.1222784 753.091067,71.2979059 C753.277313,71.5743852 753.204164,71.9494981 752.927685,72.1357441 C752.651205,72.3219901 752.276092,72.2488415 752.089847,71.9723622 C751.983351,71.8142714 751.872712,71.6589974 751.758056,71.5067037 Z M752.939965,73.4818415 C752.800141,73.1792237 752.932112,72.8205536 753.234729,72.6807293 C753.537347,72.5409051 753.896017,72.6728755 754.035842,72.9754933 C754.124693,73.1677912 754.208472,73.3624719 754.287078,73.5593537 C754.410685,73.8689496 754.259912,74.2201302 753.950316,74.3437376 C753.64072,74.467345 753.289539,74.3165716 753.165932,74.0069757 C753.095235,73.8299038 753.019883,73.654805 752.939965,73.4818415 Z M753.678894,75.6710304 C753.606728,75.3455761 753.812059,75.0232415 754.137513,74.9510759 C754.462968,74.8789103 754.785302,75.0842413 754.857468,75.4096956 C754.903273,75.6162687 754.943671,75.8242845 754.9786,76.0335795 C755.033474,76.3623912 754.811405,76.6734306 754.482593,76.7283054 C754.153781,76.7831802 753.842742,76.5611105 753.787867,76.2322988 C753.756441,76.0439912 753.720098,75.8568544 753.678894,75.6710304 Z M753.936651,77.978816 C753.934889,77.6454615 754.203697,77.3737955 754.537052,77.3720331 C754.870406,77.3702707 755.142072,77.6390793 755.143835,77.9724339 C755.143975,78.0042787 755.143975,78.0042787 755.144007,78.0362225 C755.144007,78.2275737 755.139469,78.4181439 755.130402,78.6090736 C755.114587,78.9420575 754.831831,79.1991744 754.498847,79.1833603 C754.165863,79.1675461 753.908746,78.8847894 753.92456,78.5518055 C753.932723,78.3799203 753.936806,78.2084448 753.936806,78.0362973 C753.936778,78.0075443 753.936778,78.0075443 753.936651,77.978816 Z M753.710101,80.2580956 C753.777041,79.9315264 754.096043,79.7210553 754.422612,79.7879952 C754.749181,79.8549351 754.959652,80.1739372 754.892712,80.5005064 C754.850106,80.7083629 754.802235,80.9146467 754.749217,81.1188863 C754.665459,81.4415516 754.335987,81.6352238 754.013322,81.5514652 C753.690657,81.4677067 753.496985,81.1382351 753.580743,80.8155698 C753.628518,80.6315258 753.671676,80.4455508 753.710101,80.2580956 Z M749.206412,94.8470873 C748.817847,95.191245 748.204876,94.9169341 748.20261,94.3978751 L748.14225,80.5754291 C748.139916,80.0409117 748.782227,79.7673593 749.165997,80.1394284 L759.065041,89.7366726 C759.436601,90.0969049 759.212233,90.727063 758.69662,90.7714168 L753.282113,91.2371808 L749.206412,94.8470873 Z M752.631198,90.2010697 C752.728277,90.115085 752.850468,90.0626528 752.979674,90.0515383 L757.274456,89.6820947 L749.355703,82.0047671 L749.403977,93.0594651 L752.631198,90.2010697 Z M745.756137,74.9857184 L744.992205,76.0938907 C744.308439,75.7543656 743.718986,75.6694843 743.134248,75.6694843 C742.445766,75.6694843 742.101526,75.9146969 742.101526,76.3249565 C742.101526,76.7823723 742.540079,76.9945755 743.360598,77.1643381 C745.072371,77.5227257 746.029643,78.1121791 746.029643,79.3806828 C746.029643,80.5878833 745.194977,81.2386398 743.860455,81.4036868 L743.860455,82.4835654 L742.610813,82.4835654 L742.610813,81.4272649 C741.648825,81.3612461 740.908472,81.1113179 740.295441,80.6350396 L741.059372,79.5268672 C741.762001,79.9654205 742.544795,80.0833112 743.134248,80.0833112 C744.082089,80.0833112 744.440477,79.8239517 744.440477,79.3806828 C744.440477,78.9279826 743.983061,78.7487888 743.063514,78.5601637 C741.271575,78.1876291 740.512359,77.4142663 740.512359,76.3249565 C740.512359,75.3865467 741.068803,74.4952932 742.610813,74.3349619 L742.610813,73.2692301 L743.860455,73.2692301 L743.860455,74.3491087 C744.619671,74.43399 745.260996,74.6556245 745.756137,74.9857184 Z" id="Combined-Shape"></path>
        </g>
    </g>
</svg>