<?xml version="1.0" encoding="UTF-8"?>
<svg width="18px" height="20px" viewBox="0 0 18 20" version="1.1" xmlns="http://www.w3.org/2000/svg" xmlns:xlink="http://www.w3.org/1999/xlink">
    <!-- Generator: Sketch 46.2 (44496) - http://www.bohemiancoding.com/sketch -->
    <title>Group 12</title>
    <desc>Created with Sketch.</desc>
    <defs></defs>
    <g id="Symbols" stroke="none" stroke-width="1" fill="none" fill-rule="evenodd">
        <g id="Menu-–-Adicionar-BT-WhatsApp" transform="translate(-977.000000, -16.000000)" fill="#FFFFFF">
            <g id="Group-4" transform="translate(970.000000, 11.000000)">
                <g id="Group-12" transform="translate(7.000000, 5.000000)">
                    <path d="M6.00496358,5.11920657 L5.41471675,5.70930606 C4.928975,6.19492656 4.8594674,7.04246845 5.26167931,7.60013229 C5.26167931,7.60013229 5.70106247,8.34514437 7.16495795,9.80867442 C8.62885343,11.2722045 9.40137468,11.7353559 9.40137468,11.7353559 C9.95128612,12.1431517 10.8033614,12.0698269 11.2900936,11.5832162 L11.8803404,10.9931168 C12.0389177,10.8345791 12.0409534,10.5717156 11.8800393,10.4108416 L10.7029809,9.23407702 C10.5405021,9.07163883 10.2783934,9.07031777 10.1150182,9.23365217 C9.95277417,9.39585572 9.64737384,9.46125211 9.43847484,9.37008949 C9.43847484,9.37008949 8.93870567,9.23241529 8.35158038,8.64543657 C7.76445509,8.05845784 7.62776304,7.5598297 7.62776304,7.5598297 C7.54123969,7.34883147 7.6014923,7.0474225 7.76486749,6.8840881 C7.92711154,6.72188454 7.92807251,6.45986136 7.76444253,6.29627223 L6.58738413,5.11950765 C6.42977787,4.96194073 6.16571141,4.95849886 6.00496358,5.11920657 Z" id="Combined-Shape"></path>
                    <path d="M0,8.95597497 C0,4.00972657 4.02943725,0 9,0 C13.9705627,0 18,4.00972657 18,8.95597497 C18,13.9022234 13.9705627,17.9119499 9,17.9119499 C8.24456881,17.9119499 7.50106044,17.8191762 6.78195083,17.637757 C6.53769547,17.8210475 6.11490132,18.1374921 5.42515368,18.6535816 C5.06966839,18.919566 4.81673343,19.1087764 4.31087853,19.4871432 C3.90619419,19.7898113 3.90619419,19.7898113 3.80501074,19.8654768 C3.3511339,20.2048885 2.70585395,19.8604397 2.73897423,19.2964293 C2.74636458,19.1705779 2.74636458,19.1705779 2.77596276,18.6672456 C2.80372414,18.1953673 2.83152671,17.7234874 2.85753393,17.2830556 C2.89181169,16.7025978 2.91960971,16.233611 2.94011257,15.8902493 C2.9500091,15.7248345 2.95373159,15.6626152 2.95788698,15.5937841 C1.09115725,13.9109634 0,11.5213067 0,8.95597497 Z M4.62247785,17.5941336 C5.38446107,17.0239953 6.21528534,16.4016574 6.21266913,16.4038448 C6.38376665,16.2607884 6.61551281,16.2125556 6.82988332,16.2753852 C7.52820491,16.4800557 8.25667989,16.5851388 9,16.5851388 C13.2341831,16.5851388 16.6666667,13.1694458 16.6666667,8.95597497 C16.6666667,4.74250411 13.2341831,1.32681111 9,1.32681111 C4.76581692,1.32681111 1.33333333,4.74250411 1.33333333,8.95597497 C1.33333333,11.2406624 2.34770063,13.3593654 4.07234592,14.8008253 L4.30017614,15.0174464 L4.15414045,17.9445245 C4.15414045,17.9445245 4.45628329,17.7184852 4.62247785,17.5941336 Z" id="Oval-Copy-3" fill-rule="nonzero"></path>
                </g>
            </g>
        </g>
    </g>
</svg>