<?xml version="1.0" encoding="UTF-8"?>
<svg width="42px" height="43px" viewBox="0 0 42 43" version="1.1" xmlns="http://www.w3.org/2000/svg" xmlns:xlink="http://www.w3.org/1999/xlink">
    <g id="Page-1" stroke="none" stroke-width="1" fill="none" fill-rule="evenodd">
        <path d="M17.4928932,11.8928932 C17.9023689,11.4834175 17.9023689,10.9165825 17.4928932,10.5071068 L10.5928932,3.60710678 C10.1834175,3.19763107 9.61658249,3.19763107 9.20710678,3.60710678 L5.71421356,7.1 L14,15.3857864 L17.4928932,11.8928932 Z M15.1446336,27.8553664 C15.126963,27.8400034 15.1097033,27.8239169 15.0928932,27.8071068 C10.7651866,23.4794002 10.2829854,19.8013233 12.2914476,17.1116283 C12.3813931,16.991175 12.4716896,16.8791342 12.5611643,16.7753779 L4.32692254,8.5411361 C4.09972339,8.82651953 3.87413859,9.1509079 3.65891285,9.51384335 C2.45546446,11.54322 1.94715491,14.0692941 2.54272211,17.1262044 C3.35959502,21.3190262 6.19215254,26.077939 11.5071068,31.3928932 C11.5239169,31.4097033 11.5400034,31.426963 11.5553664,31.4446336 C11.573037,31.4599966 11.5902967,31.4760831 11.6071068,31.4928932 C16.922061,36.8078475 21.6809738,39.640405 25.8737956,40.4572779 C28.9307059,41.0528451 31.45678,40.5445355 33.4861567,39.3410871 C33.8490921,39.1258614 34.1734805,38.9002766 34.4588639,38.6730775 L26.2246221,30.4388357 C26.1208658,30.5283104 26.008825,30.6186069 25.8883717,30.7085524 C23.1986767,32.7170146 19.5205998,32.2348134 15.1928932,27.9071068 C15.1760831,27.8902967 15.1599966,27.873037 15.1446336,27.8553664 Z M16.5553664,26.4446336 C16.573037,26.4599966 16.5902967,26.4760831 16.6071068,26.4928932 C20.2646264,30.1504128 22.8408248,30.4881562 24.6917334,29.1060367 C25.0366182,28.8485026 25.2628709,28.5980622 25.3600738,28.4569185 C25.38784,28.4140686 25.4192185,28.3728778 25.4542093,28.3337779 C25.4713146,28.3144348 25.489115,28.2959613 25.5074942,28.2782922 L29.6928932,24.0928932 C30.8834175,22.9023689 32.7165825,22.9023689 33.9071068,24.0928932 L40.8071068,30.9928932 C41.9976311,32.1834175 41.9976311,34.0165825 40.8071068,35.2071068 L36.6336895,39.3805241 C36.2412478,39.8323933 35.5335246,40.4521926 34.5062977,41.0613523 C28.5109399,44.6166823 20.3034276,43.0176412 10.1928932,32.9071068 C10.1760831,32.8902967 10.1599966,32.873037 10.1446336,32.8553664 C10.126963,32.8400034 10.1097033,32.8239169 10.0928932,32.8071068 C-0.0176411524,22.6965724 -1.61668226,14.4890601 1.93864767,8.49370234 C2.54780741,7.46647543 3.16760672,6.75875216 3.61947592,6.36631052 L7.79289322,2.19289322 C8.98341751,1.00236893 10.8165825,1.00236893 12.0071068,2.19289322 L18.9071068,9.09289322 C20.0976311,10.2834175 20.0976311,12.1165825 18.9071068,13.3071068 L14.7217078,17.4925058 C14.7040387,17.510885 14.6855652,17.5286854 14.6662979,17.5458541 C14.6271222,17.5807815 14.5859314,17.61216 14.5430815,17.6399262 C14.4019378,17.7371291 14.1514974,17.9633818 13.8939633,18.3082666 C12.5118438,20.1591752 12.8495872,22.7353736 16.5071068,26.3928932 C16.5239169,26.4097033 16.5400034,26.426963 16.5553664,26.4446336 Z M35.9,37.2857864 L39.3928932,33.7928932 C39.8023689,33.3834175 39.8023689,32.8165825 39.3928932,32.4071068 L32.4928932,25.5071068 C32.0834175,25.0976311 31.5165825,25.0976311 31.1071068,25.5071068 L27.6142136,29 L35.9,37.2857864 Z M24.171313,2.6937821 C23.6251385,2.77570827 23.1159624,2.39936066 23.0340362,1.8531862 C22.95211,1.30701173 23.3284576,0.797835562 23.8746321,0.715909392 C27.9247667,0.1083892 32.9470741,2.26914938 36.5954527,5.91752792 C40.3495511,9.67162632 42.5068745,14.9023967 41.6922491,18.9755236 C41.5839371,19.5170833 41.057112,19.8683001 40.5155523,19.7599881 C39.9739925,19.6516762 39.6227758,19.124851 39.7310877,18.5832913 C40.3979877,15.2487915 38.5025838,10.6530862 35.1812391,7.33174148 C31.945063,4.09556541 27.5195172,2.19155147 24.171313,2.6937821 Z M24.8015171,8.6368288 C24.2567468,8.72762386 23.7415193,8.35960419 23.6507242,7.81483387 C23.5599292,7.27006354 23.9279488,6.75483601 24.4727191,6.66404095 C27.0248179,6.23869117 30.3095705,7.66414985 32.5792087,9.93378805 C34.970883,12.3254624 36.372762,15.6168304 35.8431425,18.2649276 C35.7348306,18.8064874 35.2080055,19.1577041 34.6664457,19.0493922 C34.124886,18.9410802 33.7736692,18.4142551 33.8819812,17.8726954 C34.2616579,15.9743117 33.1267583,13.3097648 31.1649951,11.3480016 C29.3123003,9.49530685 26.6313185,8.3318619 24.8015171,8.6368288 Z" id="Combined-Shape" fill="#551844" fill-rule="nonzero"></path>
    </g>
</svg>