<?xml version="1.0" encoding="UTF-8"?>
<svg width="44px" height="34px" viewBox="0 0 44 34" version="1.1" xmlns="http://www.w3.org/2000/svg" xmlns:xlink="http://www.w3.org/1999/xlink">
    <g id="Page-1" stroke="none" stroke-width="1" fill="none" fill-rule="evenodd">
        <path d="M17.6585886,30 C16.8349158,32.3303847 14.6124377,34 12,34 C8.6862915,34 6,31.3137085 6,28 C6,24.6862915 8.6862915,22 12,22 C14.6124377,22 16.8349158,23.6696153 17.6585886,26 L21,26 L21,4.00488281 L2,4 C0.8954305,4 0,3.1045695 0,2 C0,0.8954305 0.8954305,0 2,0 L21.9975383,0 C23.6311916,0 25,1.27184886 25,2.94433594 L25,6 L35.0059397,6 C36.1072288,6 37.2441966,6.85468808 37.5477958,7.91728541 L39.8571429,16 L41.9991358,16 C43.1041826,16 44,16.8970601 44,18.0058587 L44,27.9941413 C44,29.1019465 43.0983727,30 41.9991358,30 L39.6585886,30 C38.8349158,32.3303847 36.6124377,34 34,34 C31.3875623,34 29.1650842,32.3303847 28.3414114,30 L21,30 L17.6585886,30 Z M28.3414114,26 C29.1650842,23.6696153 31.3875623,22 34,22 C36.6124377,22 38.8349158,23.6696153 39.6585886,26 L40,26 L40,19.9866943 L39.2332276,19.9874681 C39.1608519,19.9957462 39.0861177,20 39.0092049,20 L26.8145161,20 L25,20.0018311 L25.0100098,26 L28.3414114,26 Z M25,16 L35.7130369,16 L34.0107422,10 L25,10 L25,16 Z M6,18 C6,16.8954305 6.89354265,16 8.00276013,16 L16.9972399,16 C18.1033337,16 19,16.8877296 19,18 C19,19.1045695 18.1064574,20 16.9972399,20 L8.00276013,20 C6.89666625,20 6,19.1122704 6,18 Z M3,10 C3,8.8954305 3.89451376,8 4.99406028,8 L17.0059397,8 C18.1072288,8 19,8.88772964 19,10 C19,11.1045695 18.1054862,12 17.0059397,12 L4.99406028,12 C3.8927712,12 3,11.1122704 3,10 Z M34,30 C35.1045695,30 36,29.1045695 36,28 C36,26.8954305 35.1045695,26 34,26 C32.8954305,26 32,26.8954305 32,28 C32,29.1045695 32.8954305,30 34,30 Z M12,30 C13.1045695,30 14,29.1045695 14,28 C14,26.8954305 13.1045695,26 12,26 C10.8954305,26 10,26.8954305 10,28 C10,29.1045695 10.8954305,30 12,30 Z" id="Combined-Shape" fill="#9b5289"></path>
    </g>
</svg>