<?xml version="1.0" encoding="UTF-8"?>
<svg width="46px" height="44px" viewBox="0 0 46 44" version="1.1" xmlns="http://www.w3.org/2000/svg" xmlns:xlink="http://www.w3.org/1999/xlink">
    <g id="Page-1" stroke="none" stroke-width="1" fill="none" fill-rule="evenodd">
        <path d="M23.8945921,41.9621974 C23.4005225,41.7188339 22.6012617,41.7179551 22.1054079,41.9621974 L19.1723118,43.4069505 C17.1903167,44.3832204 14.7535797,43.5983079 13.7170561,41.629772 L12.1812231,38.7129622 C11.9234718,38.2234482 11.2773688,37.749349 10.7337427,37.6532596 L7.52996727,37.0869721 C5.35044447,36.7017277 3.83160941,34.6225411 4.1396421,32.4281049 L4.60025923,29.1466514 C4.67727831,28.5979646 4.43112263,27.8317348 4.04737092,27.4320166 L1.76898236,25.0588329 C0.23971563,23.4659391 0.245432587,20.8773933 1.76898236,19.2904543 L4.04737092,16.9172706 C4.42974179,16.5189907 4.67755645,15.753304 4.60025923,15.2026358 L4.1396421,11.9211824 C3.83254419,9.73340547 5.34788303,7.64801231 7.52996727,7.26231515 L10.7337427,6.6960276 C11.2754127,6.60028401 11.9225409,6.12760677 12.1812231,5.63632501 L13.7170561,2.71951521 C14.7479155,0.761736683 17.1928422,-0.0326892301 19.1723118,0.942336715 L22.1054079,2.38708981 C22.5994775,2.6304533 23.3987383,2.63133215 23.8945921,2.38708981 L26.8276882,0.942336715 C28.8096833,-0.0339332299 31.2464203,0.750979301 32.2829439,2.71951521 L33.8187769,5.63632501 C34.0765282,6.12583901 34.7226312,6.59993826 35.2662573,6.6960276 L38.4700327,7.26231515 C40.6495555,7.64755956 42.1683906,9.72674611 41.8603579,11.9211824 L41.3997408,15.2026358 C41.3227217,15.7513226 41.5688774,16.5175524 41.9526291,16.9172706 L44.2310176,19.2904543 C45.7602844,20.8833481 45.7545674,23.471894 44.2310176,25.0588329 L41.9526291,27.4320166 C41.5702582,27.8302965 41.3224436,28.5959832 41.3997408,29.1466514 L41.8603579,32.4281049 C42.1674558,34.6158818 40.652117,36.7012749 38.4700327,37.0869721 L35.2662573,37.6532596 C34.7245873,37.7490032 34.0774591,38.2216804 33.8187769,38.7129622 L32.2829439,41.629772 C31.2520845,43.5875505 28.8071578,44.3819764 26.8276882,43.4069505 L23.8945921,41.9621974 Z M28.7436061,39.7661498 L30.2794391,36.84934 C31.1131042,35.2660671 32.8086186,34.0256578 34.5700245,33.7143181 C34.5700245,33.7143181 37.9068416,33.0386268 37.8991923,32.9841331 L37.4385752,29.7026796 C37.1909249,27.93841 37.8340469,25.946224 39.0671601,24.6618057 C39.0671601,24.6618057 41.3859655,22.1027637 41.3455487,22.0606653 L39.0671601,19.6874816 C37.8329342,18.4019042 37.1911476,16.4092909 37.4385752,14.6466076 C37.4385752,14.6466076 37.837118,11.2124485 37.7738,11.2012566 L34.5700245,10.6349691 C32.8070267,10.3233481 31.1123548,9.08179689 30.2794391,7.49994727 C30.2794391,7.49994727 28.6373704,4.50986561 28.5951799,4.53064736 L25.6620837,5.97540046 C24.0519958,6.7684803 21.9465529,6.76776545 20.3379163,5.97540046 C20.3379163,5.97540046 17.2775123,4.54302991 17.2563939,4.58313746 L15.7205609,7.49994727 C14.8868958,9.08322017 13.1913814,10.3236295 11.4299755,10.6349691 L8.22620005,11.2012566 C8.164849,11.2121008 8.56142479,14.6466076 8.56142479,14.6466076 C8.80907506,16.4108772 8.16595311,18.4030632 6.93283991,19.6874816 L4.65445135,22.0606653 C4.6141329,22.1026612 6.93283991,24.6618057 6.93283991,24.6618057 C8.16706583,25.9473831 8.80885239,27.9399963 8.56142479,29.7026796 L8.10080767,32.9841331 C8.09286263,33.0407338 11.4299755,33.7143181 11.4299755,33.7143181 C13.1929733,34.0259391 14.8876452,35.2674903 15.7205609,36.84934 C15.7205609,36.84934 17.3626296,39.8394216 17.4048201,39.8186399 L20.3379163,38.3738868 C21.9480042,37.5808069 24.0534471,37.5815218 25.6620837,38.3738868 C25.6620837,38.3738868 28.7224877,39.8062573 28.7436061,39.7661498 Z M18.4142136,29.4142136 C17.633165,30.1952621 16.366835,30.1952621 15.5857864,29.4142136 C14.8047379,28.633165 14.8047379,27.366835 15.5857864,26.5857864 L27.5857864,14.5857864 C28.366835,13.8047379 29.633165,13.8047379 30.4142136,14.5857864 C31.1952621,15.366835 31.1952621,16.633165 30.4142136,17.4142136 L18.4142136,29.4142136 Z M18,20 C16.3431458,20 15,18.6568542 15,17 C15,15.3431458 16.3431458,14 18,14 C19.6568542,14 21,15.3431458 21,17 C21,18.6568542 19.6568542,20 18,20 Z M28,30 C26.3431458,30 25,28.6568542 25,27 C25,25.3431458 26.3431458,24 28,24 C29.6568542,24 31,25.3431458 31,27 C31,28.6568542 29.6568542,30 28,30 Z" id="Combined-Shape" fill="#823486"></path>
    </g>
</svg>