<?xml version="1.0" encoding="UTF-8"?>
<svg width="672px" height="266px" viewBox="0 0 672 266" version="1.1" xmlns="http://www.w3.org/2000/svg" xmlns:xlink="http://www.w3.org/1999/xlink">
    <!-- Generator: Sketch 47.1 (45422) - http://www.bohemiancoding.com/sketch -->
    <title>Group</title>
    <desc>Created with Sketch.</desc>
    <defs>
        <polygon id="path-1" points="671.955 225.881345 671.955 150.4603 194.4065 150.4603 194.4065 225.881345 671.955 225.881345"></polygon>
        <polygon id="path-3" points="506.6481 265.39 646.6621 265.39 646.6621 231.3387 506.6481 231.3387"></polygon>
    </defs>
    <g id="Page-1" stroke="none" stroke-width="1" fill="none" fill-rule="evenodd">
        <g id="Group">
            <path d="M216.9663,22.108 C239.4663,13.662 255.8253,32.986 255.8253,54.958 C255.8253,67.358 250.4023,82.123 239.1193,88.481 C238.9763,88.566 238.8993,88.608 238.8993,88.608 L238.8913,88.608 C232.4443,92.122 223.1303,91.755 217.3713,88.608 L217.3663,88.608 L217.3113,88.576 C216.0513,87.881 214.9203,87.053 213.9673,86.102 C209.1563,81.997 200.9423,72.686 200.9423,56.961 C200.9423,34.727 209.1543,26.515 216.9663,22.108 M222.2743,23.309 C233.8323,23.309 243.2063,37.568 243.2063,55.158 C243.2063,72.747 233.8323,87.006 222.2743,87.006 C210.7153,87.006 202.0983,72.747 202.0983,55.158 C202.0983,37.568 210.7153,23.309 222.2743,23.309" id="Fill-1" fill="#9C2E87"></path>
            <path d="M280.1245,88.588 L265.4865,123.653 L267.0165,88.588 C266.2185,88.289 265.3865,88.056 264.5435,87.901 C263.6895,87.734 262.8245,87.656 261.9595,87.656 C259.9185,87.668 257.8905,88.012 255.8725,88.677 C253.8535,89.354 251.9455,90.263 250.1385,91.438 C248.3425,92.603 246.7335,93.933 245.3365,95.442 C243.9395,96.95 242.8305,98.558 242.0315,100.244 C241.2225,101.94 240.8225,103.637 240.8015,105.356 C240.8125,106.808 241.1005,107.984 241.6875,108.871 C242.2645,109.769 243.0855,110.412 244.1495,110.812 C245.2145,111.222 246.4675,111.422 247.9205,111.41 C247.8985,111.266 247.8425,111.111 247.7435,110.934 C247.6545,110.756 247.5435,110.524 247.4325,110.213 C247.3105,109.902 247.2105,109.481 247.1225,108.938 C247.0335,108.395 246.9885,107.695 246.9885,106.819 C247.0005,104.291 247.4215,102.029 248.2645,100.055 C249.1065,98.081 250.3275,96.396 251.9015,95.02 C253.4765,93.645 255.3615,92.581 257.5685,91.849 L240.6675,137.56 L245.9905,137.56 L257.1025,107.551 L255.7715,137.56 L264.8875,137.56 L277.3965,107.684 L273.1385,137.56 L282.7195,137.56 L289.7055,88.588 L280.1245,88.588 Z" id="Fill-3" fill="#9C2E87"></path>
            <path d="M494.2412,97.6818 C494.9732,97.3828 495.7722,97.2378 496.6372,97.2378 C497.5462,97.2488 498.4332,97.3828 499.3092,97.6268 C500.1852,97.8708 501.0612,98.1478 501.9492,98.4698 C502.8362,98.7898 503.7672,99.0678 504.7322,99.3118 C505.6972,99.5558 506.7172,99.6888 507.8152,99.6998 C509.0912,99.6888 510.3212,99.4898 511.5192,99.1008 C512.7172,98.7128 513.8032,98.1918 514.7902,97.5488 C515.7772,96.8948 516.5972,96.1848 517.2532,95.4088 C517.9062,94.6208 518.3392,93.8338 518.5272,93.0458 L518.1282,92.9798 C517.6512,93.4788 517.0422,93.8558 516.3092,94.1218 C515.5662,94.3768 514.7792,94.5098 513.9362,94.5098 C512.9832,94.4988 512.0952,94.3888 511.2752,94.1658 C510.4542,93.9448 509.6342,93.7008 508.8242,93.4118 C508.0042,93.1238 507.1272,92.8688 506.1742,92.6578 C505.2312,92.4368 504.1552,92.3258 502.9582,92.3148 C500.4182,92.3148 498.2002,92.8688 496.3042,93.9778 C494.4082,95.0758 492.9222,96.6948 491.8452,98.8348 L492.2452,98.9688 C492.8442,98.4028 493.5102,97.9698 494.2412,97.6818" id="Fill-5" fill="#9C2E87"></path>
            <path d="M540.3896,117.9508 C540.1226,119.9248 539.4836,121.7898 538.9536,123.4758 C538.4306,125.1488 537.8246,126.6148 537.1146,127.8678 C536.4146,129.1098 535.6606,130.0858 534.8636,130.7838 C534.0646,131.4718 533.2546,131.8258 532.4346,131.8378 C531.5906,131.8488 530.9256,131.7158 530.4266,131.4158 C529.9276,131.1168 529.5736,130.5838 529.3626,129.7968 C529.1406,129.0098 529.0406,127.9008 529.0406,126.4478 C529.0406,125.3498 529.1516,124.1308 529.3626,122.7998 C529.5836,121.4688 529.8946,120.1048 530.2836,118.6968 C530.6816,117.2988 531.1476,115.9568 531.6916,114.6488 C532.2346,113.3508 532.8326,112.1868 533.4986,111.1438 C534.1536,110.1128 534.8516,109.2928 535.5946,108.6828 C536.3376,108.0728 537.1026,107.7618 537.8896,107.7508 C538.7436,107.7398 539.1966,108.1818 539.7526,108.6268 C541.6866,110.1748 540.9596,113.4468 540.3896,117.9508 L540.3896,117.9508 Z M502.8916,125.6498 C502.6036,126.9358 502.1596,128.0118 501.5376,128.8878 C500.9066,129.7518 500.2306,130.4078 499.4756,130.8388 C498.7336,131.2828 498.0346,131.5048 497.3686,131.5048 C497.0586,131.5158 496.7136,131.4828 496.3486,131.4158 C495.9716,131.3388 495.6056,131.1498 495.2506,130.8278 C494.9076,130.5178 494.6186,129.9958 494.3966,129.2868 C494.1636,128.5768 494.0526,127.5788 494.0416,126.3148 C494.0416,125.2608 494.1416,124.0858 494.3406,122.7888 C494.5406,121.5018 494.8186,120.1708 495.1956,118.8068 C495.5726,117.4438 496.0376,116.1228 496.5816,114.8478 C497.1246,113.5838 497.7356,112.4308 498.4336,111.4218 C499.1206,110.4018 499.8746,109.5918 500.7066,108.9928 C501.5276,108.4058 502.4146,108.0948 503.3576,108.0838 C504.0556,108.0948 504.6106,108.2618 505.0096,108.5608 C505.4086,108.8598 505.6856,109.2038 505.8526,109.6028 C506.0076,109.9908 506.0846,110.3238 506.0846,110.6118 L502.8916,125.6498 Z M442.3426,125.6498 C442.0536,126.9358 441.6106,128.0118 440.9896,128.8878 C440.3576,129.7518 439.6806,130.4078 438.9266,130.8388 C438.1836,131.2828 437.4856,131.5048 436.8206,131.5048 C436.5086,131.5158 436.1646,131.4828 435.7996,131.4158 C435.4226,131.3388 435.0566,131.1498 434.7016,130.8278 C434.3576,130.5178 434.0696,129.9958 433.8476,129.2868 C433.6156,128.5768 433.5036,127.5788 433.4936,126.3148 C433.4936,125.2608 433.5926,124.0858 433.7916,122.7888 C433.9926,121.5018 434.2696,120.1708 434.6466,118.8068 C435.0236,117.4438 435.4896,116.1228 436.0326,114.8478 C436.5766,113.5838 437.1856,112.4308 437.8846,111.4218 C438.5726,110.4018 439.3266,109.5918 440.1586,108.9928 C440.9786,108.4058 441.8656,108.0948 442.8086,108.0838 C443.5066,108.0948 444.0616,108.2618 444.4606,108.5608 C444.8596,108.8598 445.1366,109.2038 445.3026,109.6028 C445.4586,109.9908 445.5356,110.3238 445.5356,110.6118 L442.3426,125.6498 Z M332.5666,130.1848 C332.0236,131.0948 331.3136,131.7488 330.4376,132.1368 C329.5616,132.5248 328.6306,132.7138 327.6316,132.7018 C326.1796,132.7018 325.1366,132.3138 324.5046,131.5488 C324.0026,130.9318 323.7116,130.0588 323.6156,128.9448 C323.6986,128.7708 323.7816,128.5968 323.8626,128.4168 C324.0006,128.5498 324.1586,128.6588 324.3496,128.7318 C324.6816,128.8538 325.0266,128.9208 325.3696,128.9098 C325.9466,128.8988 326.4566,128.7318 326.8996,128.4218 C327.3326,128.0998 327.6766,127.7008 327.9206,127.2018 C328.1646,126.7138 328.2976,126.1928 328.2976,125.6498 C328.2866,125.0838 328.1416,124.6068 327.8536,124.2078 C327.5766,123.8198 327.2106,123.5208 326.7676,123.3208 C327.8646,121.2018 328.8736,119.1178 329.7836,117.0548 C330.6926,115.0038 331.4916,112.8968 332.1566,110.7448 C332.2896,112.7858 332.4226,114.5268 332.5446,115.9908 C332.6666,117.4438 332.7886,118.6968 332.8886,119.7278 C332.9996,120.7588 333.0886,121.6578 333.1656,122.4228 C333.2436,123.1878 333.3096,123.8868 333.3546,124.5298 C333.3986,125.1728 333.4206,125.8378 333.4206,126.5148 C333.4096,128.0558 333.1206,129.2868 332.5666,130.1848 L332.5666,130.1848 Z M543.7676,106.3978 C542.3486,104.6018 540.2186,103.7028 537.3586,103.6928 C535.4066,103.7028 533.6316,104.0028 532.0356,104.6018 C530.4376,105.1898 529.0076,105.9988 527.7536,107.0418 C526.4906,108.0728 525.3806,109.2478 524.4276,110.5788 C523.4736,111.9098 522.6636,113.3188 521.9876,114.8038 C521.3116,116.2898 520.7676,117.7868 520.3466,119.2838 C519.9246,120.7818 519.6146,122.2228 519.4146,123.5978 C519.2266,124.9728 519.1256,126.2038 519.1256,127.3128 C519.1286,127.5428 519.1536,127.7478 519.1616,127.9708 C519.0396,128.2328 518.9286,128.5058 518.7936,128.7548 C518.2846,129.6978 517.6846,130.4508 516.9966,131.0168 C516.3096,131.5938 515.5336,131.8928 514.6676,131.9038 C513.7366,131.9038 513.0496,131.6598 512.6056,131.1718 C512.1616,130.6838 511.9406,129.9748 511.9406,129.0428 C511.9406,128.7428 511.9626,128.4218 511.9956,128.0778 C512.0396,127.7348 512.1066,127.3468 512.2066,126.9138 L516.9966,104.2908 L507.4156,104.2908 L506.6836,107.8178 L506.6836,107.3518 C506.6836,106.6978 506.5056,106.1208 506.1296,105.6108 C505.7526,105.1008 505.1756,104.7008 504.3766,104.4128 C503.5786,104.1138 502.5586,103.9698 501.2946,103.9578 C499.3656,103.9698 497.6016,104.3348 496.0046,105.0558 C494.4086,105.7778 492.9776,106.7528 491.7136,107.9948 C490.4496,109.2378 489.3396,110.6568 488.4086,112.2308 C487.4656,113.8168 486.6786,115.4808 486.0576,117.2218 C485.4366,118.9508 484.9706,120.6818 484.6606,122.3998 C484.3956,123.8678 484.2496,125.2578 484.2106,126.5738 C483.3846,127.4728 482.5496,128.3248 481.6996,129.0758 C480.5456,130.0858 479.2926,130.8838 477.9286,131.4718 C476.5766,132.0588 475.0236,132.3588 473.2826,132.3698 C472.2176,132.3808 471.3306,132.2368 470.6206,131.9268 C469.9106,131.6158 469.3786,131.0498 469.0246,130.2408 C468.6686,129.4308 468.4916,128.2778 468.4916,126.7808 C468.4916,125.5388 468.6026,124.1968 468.8356,122.7658 C469.0576,121.3358 469.3686,119.8828 469.7666,118.4308 C470.1656,116.9668 470.6426,115.5698 471.1746,114.2268 C471.7186,112.8968 472.3066,111.6988 472.9386,110.6458 C473.5716,109.5918 474.2366,108.7608 474.9236,108.1508 C475.6116,107.5398 476.3096,107.2298 477.0076,107.2188 C477.6406,107.2298 478.1066,107.4738 478.4166,107.9618 C478.7156,108.4388 478.8716,109.1038 478.8716,109.9468 C478.8716,110.5128 478.8046,111.1218 478.6716,111.7878 C478.5376,112.4418 478.3386,113.1398 478.0736,113.8718 C478.4726,114.1388 478.8716,114.3378 479.2596,114.4718 C479.6596,114.6038 480.0356,114.6708 480.4016,114.6708 C481.0566,114.6708 481.6436,114.4928 482.1756,114.1388 C482.7086,113.7728 483.1296,113.2408 483.4406,112.5198 C483.7616,111.7988 483.9166,110.8998 483.9286,109.8138 C483.9396,109.0368 483.8276,108.2948 483.6066,107.5628 C483.3846,106.8418 482.9966,106.1878 482.4526,105.5998 C481.9106,105.0228 481.1556,104.5568 480.1916,104.2138 C479.2376,103.8698 478.0176,103.7028 476.5426,103.6928 C474.6136,103.7028 472.8716,104.0028 471.2966,104.6018 C469.7336,105.1898 468.3256,106.0098 467.0826,107.0418 C465.8526,108.0728 464.7656,109.2478 463.8236,110.5898 C462.8916,111.9208 462.0926,113.3288 461.4386,114.8148 C460.7736,116.3008 460.2416,117.7978 459.8306,119.3058 C459.4196,120.8148 459.1206,122.2558 458.9326,123.6418 C458.7336,125.0168 458.6446,126.2598 458.6446,127.3788 C458.6446,127.5458 458.6626,127.6928 458.6666,127.8548 C458.5296,128.1588 458.3996,128.4698 458.2436,128.7548 C457.7356,129.6978 457.1356,130.4508 456.4486,131.0168 C455.7606,131.5938 454.9846,131.8928 454.1186,131.9038 C453.1876,131.9038 452.4996,131.6598 452.0566,131.1718 C451.6136,130.6838 451.3916,129.9748 451.3916,129.0428 C451.3916,128.7428 451.4136,128.4218 451.4466,128.0778 C451.4916,127.7348 451.5576,127.3468 451.6576,126.9138 L456.4486,104.2908 L446.8676,104.2908 L446.1346,107.8178 L446.1346,107.3518 C446.1346,106.6978 445.9566,106.1208 445.5806,105.6108 C445.2026,105.1008 444.6266,104.7008 443.8276,104.4128 C443.0306,104.1138 442.0096,103.9698 440.7446,103.9578 C438.8166,103.9698 437.0526,104.3348 435.4556,105.0558 C433.8586,105.7778 432.4286,106.7528 431.1636,107.9948 C429.8996,109.2378 428.7906,110.6568 427.8596,112.2308 C426.9166,113.8168 426.1296,115.4808 425.5086,117.2218 C424.8876,118.9508 424.4216,120.6818 424.1116,122.3998 C423.8006,124.1188 423.6456,125.7378 423.6456,127.2468 C423.6466,127.3878 423.6576,127.5168 423.6606,127.6548 C423.4806,127.9928 423.3056,128.3358 423.0906,128.6438 C422.4806,129.5198 421.7936,130.2188 421.0056,130.7278 C420.2186,131.2388 419.3986,131.4938 418.5216,131.5048 C417.5906,131.5158 416.9036,131.3388 416.4586,130.9718 C416.0156,130.6068 415.7936,129.9628 415.7936,129.0428 C415.7936,128.7428 415.8166,128.4218 415.8496,128.0778 C415.8946,127.7348 415.9596,127.3468 416.0606,126.9138 L423.7116,90.9838 L413.8646,92.3148 L406.7446,125.6498 C406.4116,126.7698 405.9916,127.7678 405.4806,128.6438 C404.9706,129.5198 404.3716,130.2188 403.6846,130.7278 C402.9956,131.2388 402.2206,131.4938 401.3556,131.5048 C400.4236,131.5158 399.7366,131.3388 399.2926,130.9718 C398.8486,130.6068 398.6266,129.9628 398.6266,129.0428 C398.6266,128.7428 398.6496,128.4218 398.6826,128.0778 C398.7266,127.7348 398.7936,127.3468 398.8936,126.9138 L403.6846,104.2908 L394.1026,104.2908 L389.5776,125.6498 C389.2446,126.7698 388.8346,127.7678 388.3356,128.6438 C387.8266,129.5198 387.2386,130.2188 386.5616,130.7278 C385.8856,131.2388 385.1196,131.4938 384.2546,131.5048 C383.5346,131.4828 383.0136,131.2278 382.7026,130.7178 C382.4036,130.2068 382.2476,129.5638 382.2586,128.7768 C382.2586,128.4768 382.2706,128.1778 382.3036,127.8678 C382.3366,127.5678 382.3926,127.2468 382.4586,126.9138 L387.2486,104.2908 L377.6676,104.2908 L373.1436,125.6498 C372.0456,126.9248 370.9256,128.0668 369.7836,129.0758 C368.6296,130.0858 367.3766,130.8838 366.0126,131.4718 C364.6606,132.0588 363.1076,132.3588 361.3666,132.3698 C360.3016,132.3808 359.4146,132.2368 358.7046,131.9268 C357.9946,131.6158 357.4626,131.0498 357.1086,130.2408 C356.7526,129.4308 356.5756,128.2778 356.5756,126.7808 C356.5756,125.5388 356.6866,124.1968 356.9196,122.7658 C357.1416,121.3358 357.4526,119.8828 357.8506,118.4308 C358.2496,116.9668 358.7276,115.5698 359.2586,114.2268 C359.8026,112.8968 360.3906,111.6988 361.0226,110.6458 C361.6556,109.5918 362.3206,108.7608 363.0076,108.1508 C363.6956,107.5398 364.3936,107.2298 365.0926,107.2188 C365.7246,107.2298 366.1906,107.4738 366.5006,107.9618 C366.7996,108.4388 366.9556,109.1038 366.9556,109.9468 C366.9556,110.5128 366.8886,111.1218 366.7556,111.7878 C366.6226,112.4418 366.4226,113.1398 366.1576,113.8718 C366.5566,114.1388 366.9556,114.3378 367.3436,114.4718 C367.7436,114.6038 368.1196,114.6708 368.4856,114.6708 C369.1406,114.6708 369.7276,114.4928 370.2596,114.1388 C370.7926,113.7728 371.2136,113.2408 371.5246,112.5198 C371.8456,111.7988 372.0006,110.8998 372.0126,109.8138 C372.0236,109.0368 371.9126,108.2948 371.6906,107.5628 C371.4686,106.8418 371.0806,106.1878 370.5366,105.5998 C369.9936,105.0228 369.2406,104.5568 368.2756,104.2138 C367.3216,103.8698 366.1016,103.7028 364.6266,103.6928 C362.6976,103.7028 360.9556,104.0028 359.3816,104.6018 C357.8176,105.1898 356.4096,106.0098 355.1666,107.0418 C353.9366,108.0728 352.8496,109.2478 351.9076,110.5898 C350.9756,111.9208 350.1776,113.3288 349.5226,114.8148 C348.8576,116.3008 348.3256,117.7978 347.9146,119.3058 C347.5036,120.8148 347.2046,122.2558 347.0166,123.6418 C346.8776,124.6008 346.8096,125.4728 346.7706,126.3068 C346.3406,126.6388 345.8906,126.9728 345.3976,127.3128 C344.5776,127.8888 343.7116,128.4438 342.8026,128.9758 C342.9026,128.5768 342.9686,128.1778 343.0136,127.7678 C343.0466,127.3468 343.0686,126.9138 343.0686,126.4478 C343.0686,125.7268 343.0466,125.0168 343.0136,124.3298 C342.9806,123.6308 342.9356,122.8668 342.8686,122.0448 C342.8026,121.2248 342.7246,120.2598 342.6366,119.1508 C342.5476,118.0538 342.4476,116.7338 342.3366,115.1918 C342.2256,113.6508 342.1156,111.8208 341.9936,109.7028 C341.8706,107.5738 341.7376,105.0898 341.6046,102.2288 L331.7576,103.5588 C331.0806,105.7328 330.3376,107.9168 329.5506,110.1018 C328.7516,112.2868 327.8646,114.4718 326.8896,116.6668 C325.9126,118.8628 324.8046,121.0578 323.5736,123.2538 C322.9636,123.5418 322.3976,123.9858 321.8656,124.5628 C321.3336,125.1388 320.9006,125.8488 320.5566,126.6698 C320.2236,127.4908 320.0576,128.4218 320.0466,129.4418 C320.0466,129.5748 320.0586,129.7068 320.0646,129.8388 C319.7696,130.1798 319.4536,130.4778 319.1156,130.7278 C318.4276,131.2388 317.6516,131.4938 316.7856,131.5048 C315.8546,131.5158 315.1676,131.3388 314.7236,130.9718 C314.2796,130.6068 314.0576,129.9628 314.0576,129.0428 C314.0576,128.7428 314.0806,128.4218 314.1136,128.0778 C314.1586,127.7348 314.2246,127.3468 314.3246,126.9138 L319.1156,104.2908 L309.5336,104.2908 L305.0096,125.6498 C304.6766,126.7698 304.2656,127.7678 303.7666,128.6438 C303.2576,129.5198 302.6686,130.2188 301.9936,130.7278 C301.3166,131.2388 300.5516,131.4938 299.6856,131.5048 C298.9656,131.4828 298.4446,131.2278 298.1336,130.7178 C297.8346,130.2068 297.6786,129.5638 297.6906,128.7768 C297.6906,128.4768 297.7016,128.1778 297.7346,127.8678 C297.7676,127.5678 297.8236,127.2468 297.8896,126.9138 L302.6806,104.2908 L293.0986,104.2908 L288.5746,125.6498 C288.4086,126.4478 288.2756,127.2128 288.1856,127.9338 C288.0866,128.6658 288.0426,129.3428 288.0426,129.9748 C288.0536,131.8378 288.3746,133.3458 288.9956,134.5328 C289.6276,135.7068 290.4706,136.5728 291.5466,137.1268 C292.6116,137.6818 293.8196,137.9578 295.1616,137.9578 C295.8606,137.9698 296.6146,137.8928 297.4126,137.7368 C298.2116,137.5818 299.0326,137.2828 299.8856,136.8388 C300.7396,136.4068 301.5936,135.7628 302.4586,134.9308 C303.3236,134.0888 304.1776,132.9908 305.0096,131.6378 C305.2196,133.7118 305.8966,135.2758 307.0276,136.3398 C308.1696,137.4148 309.6896,137.9478 311.5966,137.9578 C312.3176,137.9698 313.1266,137.8928 314.0026,137.7148 C314.8796,137.5488 315.7996,137.2268 316.7646,136.7498 C317.7286,136.2728 318.6936,135.5748 319.6586,134.6648 C320.0956,134.2538 320.5266,133.7778 320.9516,133.2518 C321.3076,133.9588 321.7746,134.6138 322.3646,135.2198 C323.1516,136.0398 324.1506,136.7058 325.3806,137.1938 C326.6116,137.6928 328.0646,137.9478 329.7616,137.9578 C330.9036,137.9578 332.1016,137.8368 333.3546,137.5708 C334.6076,137.3158 335.8276,136.8938 337.0136,136.3068 C338.2006,135.7188 339.2646,134.9428 340.2076,133.9668 C341.7486,133.0798 343.4016,131.9708 345.1426,130.6288 C345.7046,130.1988 346.2646,129.7238 346.8256,129.2288 C346.9956,130.8958 347.3936,132.3108 348.0256,133.4678 C348.8796,135.0198 350.0876,136.1618 351.6406,136.8838 C353.1826,137.6038 355.0116,137.9698 357.1086,137.9578 C359.3146,137.9368 361.3326,137.5928 363.1626,136.8938 C364.9926,136.2068 366.6566,135.2758 368.1536,134.0998 C369.6506,132.9238 370.9926,131.6158 372.1906,130.1518 C372.3426,129.9668 372.4766,129.7728 372.6246,129.5858 C372.6206,129.7148 372.6116,129.8498 372.6116,129.9748 C372.6226,131.8378 372.9436,133.3458 373.5646,134.5328 C374.1976,135.7068 375.0396,136.5728 376.1156,137.1268 C377.1806,137.6818 378.3886,137.9578 379.7306,137.9578 C380.4286,137.9698 381.1836,137.8928 381.9826,137.7368 C382.7806,137.5818 383.6006,137.2828 384.4546,136.8388 C385.3086,136.4068 386.1626,135.7628 387.0276,134.9308 C387.8926,134.0888 388.7456,132.9908 389.5776,131.6378 C389.7886,133.7118 390.4646,135.2758 391.5966,136.3398 C392.7386,137.4148 394.2576,137.9478 396.1646,137.9578 C396.8866,137.9698 397.6956,137.8928 398.5716,137.7148 C399.4486,137.5488 400.3686,137.2268 401.3326,136.7498 C402.2976,136.2728 403.2626,135.5748 404.2276,134.6648 C404.9666,133.9688 405.6926,133.1058 406.3956,132.0778 C406.5516,133.0078 406.8006,133.8328 407.1666,134.5328 C407.7986,135.7068 408.6416,136.5728 409.7166,137.1268 C410.7826,137.6818 411.9906,137.9578 413.3316,137.9578 C414.0526,137.9698 414.8846,137.8928 415.8046,137.7148 C416.7256,137.5488 417.6906,137.2268 418.7106,136.7498 C419.7306,136.2728 420.7506,135.5748 421.7826,134.6648 C422.6376,133.9108 423.4606,132.9538 424.2556,131.8118 C424.3006,131.9588 424.3376,132.1178 424.3886,132.2588 C424.8766,133.6338 425.5416,134.7318 426.3726,135.5748 C427.2046,136.4068 428.1476,137.0158 429.2016,137.3938 C430.2546,137.7818 431.3526,137.9578 432.4946,137.9578 C433.6696,137.9478 434.7576,137.7708 435.7436,137.4378 C436.7316,137.0938 437.6406,136.6278 438.4506,136.0398 C439.2586,135.4638 440.0016,134.8088 440.6576,134.0888 C441.3116,133.3568 441.8986,132.6138 442.4096,131.8378 C442.6186,133.8448 443.2956,135.3528 444.4156,136.3948 C445.5466,137.4268 447.0556,137.9478 448.9296,137.9578 C449.6506,137.9698 450.4596,137.8928 451.3356,137.7148 C452.2116,137.5488 453.1316,137.2268 454.0976,136.7498 C455.0626,136.2728 456.0276,135.5748 456.9916,134.6648 C457.7766,133.9258 458.5446,132.9928 459.2876,131.8808 C459.4706,132.4488 459.6796,132.9878 459.9416,133.4678 C460.7956,135.0198 462.0046,136.1618 463.5566,136.8838 C465.0976,137.6038 466.9276,137.9698 469.0246,137.9578 C469.3566,137.9578 469.6786,137.9578 469.9896,137.9368 C470.2996,137.9258 470.6206,137.8928 470.9536,137.8258 L468.2256,145.4778 C468.5796,145.2998 469.0356,145.1228 469.5776,144.9558 C470.1326,144.7788 470.8316,144.6908 471.6856,144.6788 C472.3066,144.6908 472.8056,144.8008 473.1826,145.0338 C473.5716,145.2668 473.8476,145.5548 474.0256,145.9208 C474.2026,146.2868 474.2806,146.6638 474.2806,147.0748 C474.2806,147.5518 474.1926,147.9948 474.0146,148.4158 C473.8366,148.8488 473.6036,149.1928 473.3046,149.4578 C473.0046,149.7248 472.6606,149.8578 472.2846,149.8688 C471.8286,149.8578 471.4416,149.7698 471.1086,149.5918 C470.7866,149.4138 470.4656,149.2038 470.1446,148.9708 C469.8326,148.7378 469.4556,148.5278 469.0246,148.3498 C468.5796,148.1718 468.0366,148.0838 467.3606,148.0728 C466.9396,148.0838 466.5736,148.1828 466.2406,148.3938 C465.9186,148.5938 465.6306,148.8598 465.3756,149.1818 C465.1196,149.5028 464.8986,149.8348 464.6996,150.2008 C465.3306,150.5338 465.9856,150.8448 466.6516,151.1328 C467.3166,151.4098 468.0586,151.6318 468.8906,151.7988 C469.7226,151.9758 470.6986,152.0648 471.8186,152.0648 C472.7946,152.0648 473.7596,151.9088 474.6906,151.5988 C475.6336,151.2778 476.4876,150.8228 477.2636,150.2008 C478.0296,149.5798 478.6386,148.8258 479.0926,147.9068 C479.5586,146.9968 479.7916,145.9438 479.8026,144.7448 C479.8026,143.7028 479.4706,142.8938 478.7936,142.3058 C478.1066,141.7288 477.0756,141.4298 475.6776,141.4188 C475.1786,141.4188 474.6346,141.4628 474.0356,141.5628 C473.4486,141.6518 472.8166,141.7848 472.1516,141.9508 L474.0146,137.2268 C475.5226,136.7728 476.9306,136.1398 478.2166,135.3418 C479.5036,134.5438 480.7016,133.6228 481.7876,132.5918 C482.7186,131.7078 483.5646,130.7638 484.3656,129.7788 C484.4886,130.6918 484.6746,131.5238 484.9376,132.2588 C485.4256,133.6338 486.0906,134.7318 486.9216,135.5748 C487.7536,136.4068 488.6966,137.0158 489.7506,137.3938 C490.8036,137.7818 491.9026,137.9578 493.0436,137.9578 C494.2196,137.9478 495.3066,137.7708 496.2926,137.4378 C497.2806,137.0938 498.1896,136.6278 498.9986,136.0398 C499.8086,135.4638 500.5516,134.8088 501.2056,134.0888 C501.8606,133.3568 502.4476,132.6138 502.9576,131.8378 C503.1686,133.8448 503.8446,135.3528 504.9646,136.3948 C506.0966,137.4268 507.6046,137.9478 509.4786,137.9578 C510.1996,137.9698 511.0086,137.8928 511.8846,137.7148 C512.7616,137.5488 513.6816,137.2268 514.6466,136.7498 C515.6116,136.2728 516.5766,135.5748 517.5406,134.6648 C518.3246,133.9268 519.0916,132.9948 519.8336,131.8858 C520.0246,132.4318 520.2426,132.9508 520.5126,133.4118 C521.4216,134.9538 522.6636,136.0848 524.2606,136.7838 C525.8586,137.4928 527.6886,137.8368 529.7726,137.8258 C531.8246,137.8148 533.7536,137.3488 535.5616,136.4288 C537.3586,135.5078 538.9766,134.1658 540.3966,132.4248 C541.8156,130.6838 543.1386,128.6408 543.8896,126.1158 C545.8796,119.4138 545.8236,118.7548 545.8746,114.3378 C545.8746,110.8338 545.1756,108.1948 543.7676,106.3978 L543.7676,106.3978 Z" id="Fill-7" fill="#9C2E87"></path>
            <path d="M219.877,55.1144 L56.685,51.1494 C56.645,49.6204 56.536,48.2164 56.42,47.0834 L219.975,51.0564 C221.091,51.0834 221.982,52.0184 221.955,53.1344 L221.955,53.1354 C221.928,54.2514 220.993,55.1414 219.877,55.1144" id="Fill-9" fill="#BEC0C2"></path>
            <path d="M9.0982,47.0402 L21.0862,47.1522 C22.3132,47.1642 23.3072,48.1772 23.2962,49.4042 L23.2962,49.4042 C23.2852,50.6312 22.2722,51.6252 21.0452,51.6142 L9.0562,51.5012 C7.8292,51.4902 6.8352,50.4772 6.8472,49.2502 L6.8472,49.2492 C6.8582,48.0222 7.8712,47.0282 9.0982,47.0402 M9.1162,47.6672 L9.2392,47.6682 C10.1212,47.6772 10.8352,48.4052 10.8272,49.2872 L10.8272,49.2882 C10.8192,50.1692 10.0912,50.8842 9.2092,50.8762 L9.0862,50.8752 C8.2042,50.8672 7.4892,50.1382 7.4972,49.2562 L7.4972,49.2562 C7.5062,48.3742 8.2342,47.6592 9.1162,47.6672" id="Fill-11" fill="#BEC0C2"></path>
            <path d="M17.0986,15.4567 C41.1066,6.4447 58.5626,27.0647 58.5626,50.5087 C58.5626,63.7407 52.7756,79.4947 40.7366,86.2787 C40.5846,86.3697 40.5016,86.4147 40.5016,86.4147 L40.4936,86.4147 C33.6146,90.1647 23.6756,89.7727 17.5316,86.4147 L17.5256,86.4147 L17.4666,86.3797 C16.1226,85.6387 14.9156,84.7547 13.8986,83.7407 C8.7656,79.3607 -0.0004,69.4247 -0.0004,52.6457 C-0.0004,28.9217 8.7636,20.1587 17.0986,15.4567 M22.7626,16.7387 C35.0956,16.7387 45.0976,31.9537 45.0976,50.7227 C45.0976,69.4907 35.0956,84.7057 22.7626,84.7057 C10.4286,84.7057 1.2346,69.4907 1.2346,50.7227 C1.2346,31.9537 10.4286,16.7387 22.7626,16.7387" id="Fill-13" fill="#9C2E87"></path>
            <path d="M130.4517,90.4132 C120.9757,90.8142 120.1037,82.9412 119.5447,79.5902 C119.5447,79.5902 122.9797,88.5222 131.2247,87.4922 C139.4697,86.4612 140.6717,82.8542 140.6717,82.8542 C140.6717,82.8542 139.9277,90.0122 130.4517,90.4132 M169.4447,132.9272 C169.4447,132.9272 188.6827,137.3932 198.3027,133.9572 C207.0297,130.8412 211.2317,119.5242 211.9367,117.4502 C212.0087,117.2392 212.0437,117.1232 212.0437,117.1232 C191.6617,127.7352 160.3187,102.9572 147.4577,116.7802 C144.7897,119.6472 142.9067,99.5162 150.8067,93.5042 C150.8067,93.5042 161.1147,93.5042 164.7217,83.8852 C164.7217,83.8852 174.1687,92.3022 182.4137,93.6762 C182.4137,93.6762 185.5057,94.3632 187.3957,94.0192 C189.2847,93.6762 191.8617,88.6952 193.9227,81.6522 C196.2497,73.7012 191.8747,65.1652 191.9237,57.0852 C193.1517,55.2022 194.2967,53.2422 194.2967,50.8782 C194.2967,49.6912 194.2057,47.1362 192.9277,47.0442 C191.6497,46.9532 189.2767,45.8582 186.5377,47.0442 C186.5377,47.0442 183.1607,47.0442 182.0657,47.5922 C180.9707,48.1402 180.7887,49.9652 180.9707,50.8782 C181.1527,51.7902 181.7007,53.2912 180.8787,53.3822 C180.0577,53.4732 178.1397,54.3092 178.9597,55.1302 C179.7817,55.9522 182.0487,58.3932 183.2347,58.3932 C185.1577,58.3932 185.4437,65.1042 185.1617,66.0192 C184.4747,68.2522 183.1007,69.6272 182.9297,76.6712 L180.3527,77.0142 C180.3527,77.0142 175.8867,71.0012 170.3897,66.1922 C170.3897,66.1922 167.4687,59.3212 155.6167,54.6832 C155.6167,54.6832 153.4747,54.0612 150.5497,53.5622 L143.0227,52.4162 C143.0227,52.4162 143.6267,48.9932 144.4097,48.0592 L145.8887,46.4382 C145.8887,46.4382 150.8067,44.0332 153.7267,33.8982 C156.6477,23.7642 148.9177,16.3772 148.9177,16.3772 C148.9177,16.3772 145.4817,13.2862 136.4687,13.0382 C136.4687,13.0382 133.6807,-2.2928 122.5317,0.2942 C111.3807,2.8842 112.1777,11.0462 112.1777,11.0462 C112.1777,11.0462 115.5617,27.9712 111.9787,33.5462 C108.3947,39.1212 108.5937,41.1122 100.4297,43.1032 C100.4297,43.1032 112.9737,46.4882 118.7487,33.5462 C118.7487,33.5462 121.5347,24.3872 121.9337,20.8042 C121.9337,20.8042 121.5357,15.6262 125.3187,15.0292 C129.1017,14.4322 132.2867,17.6182 132.2867,17.6182 C132.2867,17.6182 126.5127,22.1972 127.7067,33.7462 C128.9027,45.2932 130.7217,43.5912 130.7847,43.9672 L130.0337,49.7982 C125.5817,49.6852 116.4567,50.0082 112.5897,52.6522 L112.0737,52.7092 C111.1607,53.0432 110.2537,53.4812 109.4897,54.0552 C106.7017,56.1452 104.1287,60.0512 103.1847,61.6842 C102.2407,63.3152 99.2337,63.9172 99.2337,63.9172 C99.2337,63.9172 90.3877,63.8302 85.3197,73.7922 C85.3197,73.7922 82.2287,75.3402 81.7137,74.4802 C81.7137,74.4802 82.0127,61.9842 78.7487,56.4882 C78.7487,56.4882 79.3117,53.4012 79.9017,52.5152 C80.4927,51.6302 80.3767,52.0862 80.8267,51.8922 L80.7917,51.8512 C82.0787,51.9732 83.7167,51.8052 85.0387,51.7492 C87.8577,51.0262 90.2997,49.5922 91.0597,47.2962 C92.2627,43.6892 85.5927,40.8112 85.5927,40.8112 C82.6407,40.5552 80.0977,40.8752 76.7447,41.2842 C76.7447,41.2842 73.4237,42.0582 73.4237,45.8372 C72.6247,48.4792 72.7497,48.1702 71.5347,52.3652 C71.5347,52.3652 68.7857,65.2472 68.9587,70.7442 C69.1307,76.2412 72.0507,85.0022 72.0507,85.0022 C72.0507,85.0022 73.9397,89.9822 75.6567,90.8422 C77.3757,91.7012 85.1037,88.4372 85.1037,88.4372 C91.5587,88.8412 105.4527,84.0732 108.4657,78.4752 C108.4657,78.4752 110.3557,84.3142 117.0547,86.7202 C117.0547,86.7202 120.6217,104.8292 118.9057,109.2932 C117.1877,113.7602 106.1307,122.4302 105.4567,132.7652 C103.3457,165.2072 150.8007,156.1852 105.2017,254.8862 C105.2017,254.8862 144.7087,226.0282 160.1697,177.5882 L186.2787,177.5882 L189.0277,163.8462 L163.2607,162.8152 C163.2607,162.8152 167.7267,142.5462 169.4447,132.9272" id="Fill-16" fill="#13869E"></path>
            <mask id="mask-2" fill="white">
                <use xlink:href="#path-1"></use>
            </mask>
            <g id="Clip-19"></g>
            <path d="M628.0215,198.7863 C627.3865,201.6183 626.4105,203.9853 625.0435,205.9133 C623.6535,207.8173 622.1645,209.2583 620.5035,210.2093 C618.8695,211.1853 617.3315,211.6743 615.8665,211.6743 C615.1825,211.6973 614.4265,211.6253 613.6225,211.4783 C612.7915,211.3073 611.9865,210.8913 611.2055,210.1843 C610.4495,209.5013 609.8135,208.3533 609.3265,206.7923 C608.8135,205.2303 608.5695,203.0333 608.5435,200.2513 C608.5435,197.9323 608.7645,195.3453 609.2045,192.4893 C609.6435,189.6593 610.2535,186.7293 611.0835,183.7273 C611.9135,180.7253 612.9385,177.8203 614.1335,175.0153 C615.3305,172.2313 616.6715,169.6933 618.2095,167.4733 C619.7225,165.2263 621.3825,163.4453 623.2125,162.1273 C625.0195,160.8333 626.9715,160.1503 629.0455,160.1263 C630.5845,160.1503 631.8045,160.5163 632.6825,161.1763 C633.5615,161.8343 634.1715,162.5913 634.5385,163.4703 C634.8795,164.3243 635.0505,165.0563 635.0505,165.6903 L628.0215,198.7863 Z M219.7905,179.6753 C220.6675,176.7963 221.6935,174.0873 222.8405,171.4993 C223.9875,168.9363 225.2325,166.6413 226.5505,164.6653 C227.8685,162.6653 229.2595,161.1013 230.6995,159.9553 C232.1405,158.8323 233.6285,158.2463 235.1175,158.2223 C236.4845,158.2463 237.4355,158.7833 237.9975,159.8573 C238.5345,160.9063 238.8025,162.3713 238.7785,164.2253 C238.7545,167.2773 238.1925,170.2303 237.0455,173.0133 C235.9235,175.8193 234.3615,178.3583 232.3835,180.5793 C230.4315,182.8243 228.1615,184.6313 225.6235,186.0213 C223.0845,187.3893 220.3755,188.1703 217.5445,188.3893 C218.1295,185.4603 218.8865,182.5563 219.7905,179.6753 L219.7905,179.6753 Z M665.8035,198.7863 C665.0715,201.2523 664.1435,203.5463 663.0205,205.6203 C661.8985,207.6953 660.5815,209.3543 659.0675,210.5993 C657.5545,211.8693 655.8455,212.5273 653.9425,212.5533 C651.8915,212.5533 650.3775,212.0153 649.4025,210.9413 C648.4255,209.8673 647.9375,208.3053 647.9375,206.2553 C647.9375,205.5973 647.9875,204.8883 648.0605,204.1323 C648.1575,203.3743 648.3035,202.5203 648.5235,201.5693 L659.0675,151.7783 L637.9795,151.7783 L636.3685,159.5403 L636.3685,158.5153 C636.3685,157.0753 635.9775,155.8063 635.1485,154.6823 C634.3185,153.5593 633.0485,152.6813 631.2925,152.0473 C629.5355,151.3883 627.2895,151.0703 624.5065,151.0463 C620.2605,151.0703 616.3785,151.8763 612.8655,153.4633 C609.3495,155.0493 606.2025,157.1973 603.4185,159.9313 C600.6365,162.6653 598.1965,165.7883 596.1455,169.2543 C594.0715,172.7443 592.3385,176.4053 590.9715,180.2373 C589.6055,184.0453 588.5805,187.8523 587.8965,191.6363 C587.2125,195.4193 586.8715,198.9813 586.8715,202.3023 C586.8735,202.5453 586.8815,202.7783 586.8855,203.0173 C586.4555,203.8993 586.0215,204.7443 585.5785,205.5223 C584.5035,207.4513 583.2585,208.9393 581.8195,210.0143 C580.3795,211.1123 578.5975,211.6483 576.4735,211.6743 C574.3015,211.6483 572.7895,211.0883 571.9105,209.9653 C571.0065,208.8663 570.5915,207.3783 570.6165,205.5223 C570.6655,203.4243 571.0315,200.8613 571.7145,197.8353 C572.4225,194.7833 573.2285,191.5143 574.1305,187.9983 C575.0575,184.4833 575.8635,180.9933 576.5465,177.5033 C577.2545,173.9893 577.6215,170.7423 577.6455,167.7413 C577.6215,163.8363 576.9135,160.6863 575.5225,158.2463 C574.1305,155.8063 572.2025,154.0243 569.7625,152.8773 C567.3465,151.7293 564.5395,151.1683 561.3905,151.1923 C559.8765,151.1683 558.1675,151.3393 556.2895,151.7543 C554.4345,152.1693 552.4825,152.9503 550.4315,154.1463 C548.3815,155.3173 546.3315,157.0753 544.2565,159.3933 L545.8685,151.7783 L524.7805,151.7783 L514.8025,198.8433 C514.0465,201.2853 513.0295,203.4633 511.6975,205.3763 C510.3555,207.3043 508.8415,208.8423 507.1095,209.9653 C505.3755,211.0883 503.5705,211.6483 501.6415,211.6743 C499.5915,211.6973 498.0795,211.3073 497.1015,210.5023 C496.1255,209.6973 495.6375,208.2803 495.6375,206.2553 C495.6375,205.5973 495.6865,204.8883 495.7595,204.1323 C495.8575,203.3743 496.0035,202.5203 496.2235,201.5693 L506.7675,151.7783 L485.6805,151.7783 L475.7215,198.7863 C474.6715,201.3493 473.6235,203.5953 472.5245,205.5223 C471.4505,207.4513 470.2065,208.9393 468.7655,210.0143 C467.3265,211.1123 465.5435,211.6483 463.4195,211.6743 C461.2485,211.6483 459.7355,211.0883 458.8565,209.9653 C457.9545,208.8663 457.5385,207.3783 457.5635,205.5223 C457.6115,203.4243 457.9785,200.8613 458.6615,197.8353 C459.3695,194.7833 460.1745,191.5143 461.0775,187.9983 C462.0045,184.4833 462.8105,180.9933 463.4945,177.5033 C464.2025,173.9893 464.5685,170.7423 464.5925,167.7413 C464.5685,163.8363 463.8605,160.6863 462.4695,158.2463 C461.0775,155.8063 459.1495,154.0243 456.7095,152.8773 C454.2925,151.7293 451.4865,151.1683 448.3375,151.1923 C446.8245,151.1683 445.1155,151.3393 443.2365,151.7543 C441.3815,152.1693 439.4285,152.9503 437.3775,154.1463 C435.3285,155.3173 433.2785,157.0753 431.2045,159.3933 L432.8145,151.7783 L411.7275,151.7783 L401.7495,198.8433 C400.9945,201.2843 399.9765,203.4633 398.6445,205.3763 C397.3015,207.3043 395.7885,208.8423 394.0555,209.9653 C392.3235,211.0883 390.5165,211.6483 388.5885,211.6743 C386.5385,211.6973 385.0255,211.3073 384.0485,210.5023 C383.0725,209.6973 382.5845,208.2803 382.5845,206.2553 C382.5845,205.5973 382.6325,204.8883 382.7075,204.1323 C382.8035,203.3743 382.9505,202.5203 383.1705,201.5693 L393.7145,151.7783 L372.6265,151.7783 L362.6685,198.7863 C361.6195,201.3493 360.5695,203.5953 359.4715,205.5223 C358.3975,207.4513 357.1525,208.9393 355.7115,210.0143 C354.2735,211.1123 352.4915,211.6483 350.3685,211.6743 C348.1965,211.6483 346.6825,211.0883 345.8035,209.9653 C344.9005,208.8663 344.4855,207.3783 344.5095,205.5223 C344.5585,203.4243 344.9245,200.8613 345.6075,197.8353 C346.3165,194.7833 347.1225,191.5143 348.0245,187.9983 C348.9525,184.4833 349.7565,180.9933 350.4405,177.5033 C351.1485,173.9893 351.5145,170.7423 351.5395,167.7413 C351.5145,163.8363 350.8065,160.6863 349.4165,158.2463 C348.0245,155.8063 346.0955,154.0243 343.6565,152.8773 C341.2395,151.7293 338.4325,151.1683 335.2845,151.1923 C333.9175,151.1683 332.4285,151.3143 330.8175,151.6083 C329.1825,151.9263 327.4985,152.4863 325.7165,153.3413 C323.9345,154.2203 322.1285,155.4643 320.3225,157.1243 C318.4925,158.7833 316.7105,160.9553 314.9285,163.6403 C314.3915,160.6143 313.4155,158.1983 312.0235,156.3423 C310.6565,154.4873 308.9245,153.1453 306.8495,152.2913 C304.7745,151.4363 302.4575,151.0223 299.8455,151.0463 C298.1365,151.0223 296.2815,151.2183 294.3045,151.6563 C292.3275,152.0713 290.3025,152.9013 288.2025,154.0983 C286.1285,155.3173 284.0535,157.0753 281.9795,159.3933 L283.5895,151.7783 L262.5025,151.7783 L252.5345,198.7973 C250.1215,201.5993 247.6585,204.1103 245.1485,206.3283 C242.6105,208.5493 239.8515,210.3073 236.8505,211.6003 C233.8735,212.8933 230.4565,213.5523 226.6235,213.5773 C224.2805,213.6013 222.3285,213.2843 220.7665,212.6003 C219.2045,211.9183 218.0325,210.6733 217.2515,208.8913 C216.4705,207.1083 216.0795,204.5703 216.0795,201.2753 C216.0795,200.3963 216.1045,199.4453 216.1775,198.4443 C216.2265,197.4693 216.2995,196.4433 216.3735,195.4193 C220.8145,195.1493 225.0375,194.1743 229.0405,192.5153 C233.0675,190.8793 236.6555,188.6583 239.8035,185.8993 C242.9515,183.1423 245.4415,179.9443 247.2725,176.3073 C249.0785,172.6713 250.0055,168.7423 250.0545,164.5193 C250.0785,162.6653 249.8345,160.9063 249.3715,159.2233 C248.9075,157.5633 248.0775,156.0503 246.8815,154.7313 C245.7095,153.4383 244.0745,152.3893 241.9515,151.6323 C239.8515,150.8763 237.1915,150.4853 233.9455,150.4603 C229.6745,150.4853 225.7935,151.1433 222.3035,152.4623 C218.8375,153.7803 215.7135,155.5613 212.9795,157.8553 C210.2465,160.1263 207.8305,162.7373 205.7795,165.6663 C203.7295,168.6193 201.9725,171.7203 200.5075,175.0153 C199.0685,178.2853 197.8965,181.5793 196.9935,184.8983 C196.0905,188.1933 195.4315,191.3663 195.0165,194.3923 C194.6025,197.4203 194.4065,200.1523 194.4065,202.5943 C194.4305,208.0863 195.3825,212.5533 197.2625,215.9933 C199.1405,219.4103 201.8015,221.9253 205.2185,223.5113 C208.6115,225.0973 212.6385,225.9023 217.2515,225.8793 C222.1075,225.8303 226.5505,225.0733 230.5785,223.5353 C234.6055,222.0213 238.2655,219.9723 241.5605,217.3853 C244.8515,214.8013 247.7995,211.9263 250.4325,208.7103 L246.9795,224.9993 L268.0675,224.9993 L278.0245,177.9923 C278.7575,175.5263 279.6855,173.2573 280.8085,171.2063 C281.9295,169.1563 283.2485,167.5203 284.7615,166.2763 C286.2745,165.0313 287.9835,164.3973 289.8865,164.3733 C290.9605,164.3973 291.8145,164.7153 292.4495,165.3243 C293.1085,165.9343 293.5725,166.7403 293.8655,167.7163 C294.1575,168.6923 294.2795,169.7183 294.2795,170.8153 C294.2795,171.4753 294.2555,172.1093 294.1825,172.6953 C294.1095,173.3063 293.9875,173.8913 293.8405,174.4763 L283.1505,224.9993 L304.2385,224.9993 L314.1955,177.9923 C314.9285,175.5263 315.8555,173.2573 316.9545,171.2313 C318.0775,169.2053 319.3455,167.5943 320.8105,166.3743 C322.2505,165.1783 323.8615,164.5433 325.6185,164.5193 C327.3765,164.5193 328.6945,165.1783 329.5735,166.4473 C330.4515,167.7163 330.8905,169.5713 330.8905,171.9873 C330.8665,173.8913 330.6465,176.0633 330.2065,178.5043 C329.7675,180.9703 329.2305,183.5573 328.5725,186.3143 C327.9125,189.0483 327.2795,191.8073 326.6195,194.5883 C325.9845,197.3473 325.4235,200.0073 324.9845,202.5203 C324.5455,205.0583 324.3245,207.3293 324.3005,209.3313 C324.3005,211.4303 324.5935,213.4793 325.2035,215.4323 C325.8385,217.4083 326.8145,219.1663 328.1565,220.7283 C329.5235,222.2913 331.3065,223.5353 333.5015,224.4633 C335.7235,225.3903 338.4075,225.8533 341.5805,225.8793 C343.1435,225.9023 344.8275,225.7313 346.6085,225.3663 C348.3895,224.9993 350.2455,224.2913 352.1495,223.2663 C354.0785,222.2173 356.0055,220.7033 357.9345,218.7023 C359.3045,217.2803 360.6495,215.5313 361.9705,213.4763 C362.3205,215.3073 362.8595,216.9283 363.5955,218.3363 C364.9875,220.9243 366.8415,222.8273 369.2095,224.0483 C371.5525,225.2683 374.2125,225.8793 377.1665,225.8793 C378.7525,225.9023 380.5835,225.7313 382.6095,225.3413 C384.6345,224.9753 386.7575,224.2673 389.0035,223.2183 C391.2495,222.1693 393.4945,220.6303 395.7645,218.6303 C396.5315,217.9543 397.2865,217.2023 398.0305,216.3863 L396.2045,224.9993 L417.2925,224.9993 L427.2495,177.9923 C427.9825,175.5263 428.9095,173.2573 430.0075,171.2313 C431.1295,169.2053 432.3995,167.5943 433.8645,166.3743 C435.3045,165.1783 436.9155,164.5433 438.6715,164.5193 C440.4295,164.5193 441.7475,165.1533 442.6255,166.4473 C443.5045,167.7163 443.9435,169.5713 443.9435,171.9873 C443.9195,173.8913 443.7005,176.0633 443.2595,178.5043 C442.8215,180.9703 442.2845,183.5573 441.6255,186.3143 C440.9655,189.0483 440.3325,191.8073 439.6725,194.5883 C439.0375,197.3473 438.4765,200.0073 438.0385,202.5203 C437.5985,205.0583 437.3775,207.3293 437.3545,209.3313 C437.3545,211.4303 437.6465,213.4793 438.2565,215.4323 C438.8915,217.4083 439.8685,219.1663 441.2095,220.7283 C442.5775,222.2913 444.3595,223.5353 446.5555,224.4633 C448.7765,225.3903 451.4605,225.8533 454.6335,225.8793 C456.1965,225.9023 457.8805,225.7313 459.6625,225.3663 C461.4435,224.9993 463.2985,224.2913 465.2035,223.2663 C467.1305,222.2173 469.0595,220.7033 470.9875,218.7023 C472.3575,217.2803 473.7025,215.5313 475.0235,213.4763 C475.3745,215.3073 475.9125,216.9283 476.6495,218.3363 C478.0415,220.9243 479.8955,222.8273 482.2625,224.0483 C484.6065,225.2683 487.2665,225.8793 490.2195,225.8793 C491.8055,225.9023 493.6355,225.7313 495.6625,225.3413 C497.6885,224.9753 499.8115,224.2673 502.0575,223.2183 C504.3015,222.1693 506.5475,220.6303 508.8175,218.6303 C509.5835,217.9543 510.3385,217.2023 511.0835,216.3863 L509.2575,224.9993 L530.3445,224.9993 L540.3025,177.9923 C541.0355,175.5263 541.9625,173.2573 543.0605,171.2313 C544.1835,169.2053 545.4525,167.5943 546.9175,166.3743 C548.3575,165.1783 549.9685,164.5433 551.7245,164.5193 C553.4825,164.5193 554.8005,165.1533 555.6795,166.4473 C556.5575,167.7163 556.9975,169.5713 556.9975,171.9873 C556.9735,173.8913 556.7525,176.0633 556.3135,178.5043 C555.8745,180.9703 555.3375,183.5573 554.6785,186.3143 C554.0195,189.0483 553.3855,191.8073 552.7255,194.5883 C552.0905,197.3473 551.5295,200.0073 551.0915,202.5203 C550.6515,205.0583 550.4315,207.3293 550.4075,209.3313 C550.4075,211.4303 550.7005,213.4793 551.3105,215.4323 C551.9455,217.4083 552.9205,219.1663 554.2635,220.7283 C555.6295,222.2913 557.4135,223.5353 559.6085,224.4633 C561.8295,225.3903 564.5145,225.8533 567.6875,225.8793 C569.2495,225.9023 570.9335,225.7313 572.7155,225.3663 C574.4975,224.9993 576.3515,224.2913 578.2555,223.2663 C580.1845,222.2173 582.1125,220.7033 584.0415,218.7023 C585.5195,217.1673 586.9695,215.2543 588.3925,212.9823 C588.4315,213.0983 588.4655,213.2203 588.5065,213.3333 C589.5805,216.3593 591.0435,218.7753 592.8755,220.6303 C594.7055,222.4623 596.7805,223.8043 599.0995,224.6343 C601.4175,225.4873 603.8345,225.8793 606.3485,225.8793 C608.9345,225.8533 611.3275,225.4643 613.5005,224.7303 C615.6715,223.9743 617.6725,222.9493 619.4555,221.6563 C621.2365,220.3873 622.8725,218.9473 624.3115,217.3603 C625.7505,215.7493 627.0445,214.1133 628.1675,212.4053 C628.6315,216.8233 630.1215,220.1423 632.5855,222.4363 C635.0755,224.7073 638.3945,225.8533 642.5195,225.8793 C644.1055,225.9023 645.8875,225.7313 647.8165,225.3413 C649.7435,224.9753 651.7695,224.2673 653.8935,223.2183 C656.0155,222.1693 658.1395,220.6303 660.2625,218.6303 C662.3865,216.6283 664.4605,214.0163 666.4375,210.7703 C668.4395,207.5243 670.2705,203.5463 671.9555,198.7863 L665.8035,198.7863 Z" id="Fill-18" fill="#13869E" mask="url(#mask-2)"></path>
            <mask id="mask-4" fill="white">
                <use xlink:href="#path-3"></use>
            </mask>
            <g id="Clip-22"></g>
            <path d="M621.2441,248.8947 C621.2441,248.2987 621.1961,247.7207 621.0921,247.1737 C620.9871,246.6197 620.8271,246.1297 620.6181,245.6957 C620.4091,245.2527 620.1441,244.9077 619.8221,244.6577 C619.5011,244.4017 619.1231,244.2727 618.6881,244.2637 C618.4471,244.2637 618.1411,244.2887 617.7721,244.3527 C617.3941,244.4087 617.0241,244.4977 616.6631,244.6257 C616.3081,244.7547 616.0361,244.9227 615.8431,245.1327 L613.1901,257.3827 C613.1411,257.5757 613.1021,257.7677 613.0781,257.9537 C613.0541,258.1467 613.0461,258.3237 613.0461,258.4927 C613.0461,259.1997 613.2551,259.7387 613.6731,260.1237 C614.0911,260.5097 614.7331,260.7027 615.6011,260.7107 C616.2291,260.7027 616.8321,260.4537 617.3941,259.9717 C617.9571,259.4807 618.4721,258.8307 618.9461,258.0097 C619.4121,257.1897 619.8221,256.2657 620.1601,255.2457 C620.5051,254.2157 620.7701,253.1637 620.9641,252.0697 C621.1481,250.9757 621.2441,249.9157 621.2441,248.8947 L621.2441,248.8947 Z M626.1161,249.0867 C626.1161,250.0367 626.0271,251.0967 625.8501,252.2547 C625.6661,253.4127 625.3681,254.6017 624.9581,255.8237 C624.5571,257.0377 624.0171,258.2187 623.3441,259.3517 C622.6681,260.4857 621.8471,261.5057 620.8751,262.4157 C619.8941,263.3237 618.7451,264.0397 617.4271,264.5697 C616.1081,265.1087 614.6051,265.3727 612.9011,265.3897 C611.4221,265.3807 610.1761,265.1397 609.1791,264.6497 C608.1751,264.1507 607.4191,263.4527 606.9121,262.5277 C606.4051,261.6107 606.1481,260.5097 606.1481,259.2157 C606.1481,258.8057 606.1731,258.3727 606.2291,257.9137 C606.2771,257.4557 606.3661,256.9727 606.4861,256.4667 L611.6471,232.3037 L618.7851,231.3387 L616.4701,242.1907 C617.1211,241.7957 617.6831,241.4987 618.1581,241.3057 C618.6331,241.1137 619.0511,240.9847 619.4121,240.9207 C619.7731,240.8647 620.1111,240.8317 620.4251,240.8397 C621.5581,240.8317 622.5471,241.0887 623.3981,241.6197 C624.2511,242.1417 624.9191,243.0187 625.3921,244.2247 C625.8671,245.4377 626.1081,247.0537 626.1161,249.0867 L626.1161,249.0867 Z M601.0531,258.1547 C600.4731,257.8087 599.8221,257.6317 599.1061,257.6237 C598.3911,257.6317 597.7491,257.8087 597.1781,258.1547 C596.6071,258.4997 596.1491,258.9577 595.8111,259.5377 C595.4731,260.1157 595.3051,260.7677 595.2971,261.4817 C595.3051,262.1977 595.4731,262.8407 595.8111,263.4117 C596.1491,263.9827 596.6071,264.4407 597.1781,264.7787 C597.7491,265.1157 598.3911,265.2847 599.1061,265.2917 C599.8221,265.2847 600.4731,265.1157 601.0531,264.7787 C601.6311,264.4407 602.0901,263.9827 602.4341,263.4117 C602.7801,262.8407 602.9581,262.1977 602.9651,261.4817 C602.9581,260.7677 602.7801,260.1157 602.4341,259.5377 C602.0901,258.9577 601.6311,258.4997 601.0531,258.1547 L601.0531,258.1547 Z M646.2841,242.8497 C646.0271,242.3027 645.6571,241.8617 645.1591,241.5147 C644.6681,241.1687 644.0571,240.9937 643.3341,240.9847 C642.5621,240.9937 641.8391,241.1457 641.1631,241.4347 C640.4881,241.7327 639.8531,242.1017 639.2501,242.5517 C638.6401,243.0097 638.0601,243.4847 637.4981,243.9747 L638.1261,240.9847 L631.1801,240.9847 L626.0671,265.0997 L633.0131,265.0997 L636.8711,246.7717 C637.2651,246.4027 637.6431,246.0737 637.9971,245.7997 C638.3501,245.5257 638.7201,245.3167 639.1061,245.1657 C639.4831,245.0197 639.9181,244.9387 640.3911,244.9387 C640.6731,244.9477 640.8661,245.0607 640.9781,245.2687 C641.0921,245.4777 641.1721,245.7437 641.2201,246.0567 C641.2761,246.3707 641.3561,246.6837 641.4531,246.9977 C641.5571,247.3197 641.7421,247.5767 642.0001,247.7927 C642.2651,248.0017 642.6581,248.1147 643.1881,248.1227 C643.9761,248.1067 644.6281,247.9297 645.1421,247.5837 C645.6571,247.2387 646.0341,246.7957 646.2841,246.2657 C646.5411,245.7267 646.6621,245.1717 646.6621,244.6017 C646.6621,243.9827 646.5331,243.3957 646.2841,242.8497 L646.2841,242.8497 Z M551.1171,246.2907 C551.0771,245.2857 550.9171,244.5697 550.6351,244.1267 C550.3531,243.6937 549.9031,243.4847 549.2841,243.4927 C548.7141,243.4997 548.1601,243.7257 547.6211,244.1677 C547.0821,244.6097 546.5761,245.2047 546.1011,245.9527 C545.6191,246.7077 545.1851,247.5517 544.7911,248.4937 C544.3971,249.4407 544.0591,250.4137 543.7691,251.4267 C543.4891,252.4477 543.2641,253.4357 543.1031,254.4007 C542.9511,255.3657 542.8701,256.2487 542.8701,257.0447 C542.8701,258.0987 542.9421,258.9027 543.1031,259.4717 C543.2571,260.0427 543.5131,260.4297 543.8751,260.6457 C544.2361,260.8637 544.7191,260.9597 545.3301,260.9517 C545.9251,260.9447 546.5111,260.6867 547.0911,260.1877 C547.6691,259.6817 548.2151,258.9737 548.7221,258.0737 C549.2361,257.1657 549.6791,256.1047 550.0561,254.8917 C550.4421,253.6687 550.7311,252.3507 550.9251,250.9197 C550.4261,250.7907 550.0801,250.5417 549.8951,250.1807 C549.7031,249.8107 549.6141,249.3837 549.6221,248.8947 C549.6311,248.2187 549.7741,247.6647 550.0481,247.2307 C550.3221,246.7957 550.6761,246.4837 551.1171,246.2907 L551.1171,246.2907 Z M595.8271,256.4667 C595.2801,258.0417 594.7101,259.3607 594.0981,260.4297 C593.4961,261.4987 592.8771,262.3677 592.2421,263.0267 C591.6061,263.6847 590.9721,264.1827 590.3371,264.5287 C589.7101,264.8667 589.0981,265.0997 588.5131,265.2197 C587.9261,265.3407 587.3711,265.3967 586.8561,265.3897 C585.8111,265.3807 584.9271,265.2287 584.1961,264.9227 C583.4721,264.6177 582.8851,264.2077 582.4351,263.6927 C581.9931,263.1787 581.6721,262.5997 581.4621,261.9487 C581.2621,261.3047 581.1651,260.6307 581.1651,259.9387 C581.1741,259.2797 581.2461,258.5327 581.3901,257.6967 C581.5341,256.8687 581.7201,255.9927 581.9291,255.0827 C582.1451,254.1667 582.3541,253.2587 582.5721,252.3587 C582.7891,251.4507 582.9661,250.5987 583.1101,249.7877 C583.2551,248.9827 583.3271,248.2667 583.3361,247.6397 C583.3361,246.8437 583.1901,246.2337 582.9011,245.8157 C582.6121,245.3977 582.1781,245.1807 581.5991,245.1807 C581.0201,245.1887 580.4901,245.3977 580.0151,245.7917 C579.5331,246.1937 579.1161,246.7237 578.7451,247.3917 C578.3841,248.0587 578.0781,248.8057 577.8371,249.6177 L574.5571,265.0997 L567.6121,265.0997 L571.1341,248.4597 C571.1811,248.2667 571.2221,248.0747 571.2451,247.8737 C571.2691,247.6797 571.2781,247.4717 571.2781,247.2537 C571.2781,246.8927 571.2381,246.5557 571.1401,246.2337 C571.0451,245.9127 570.8911,245.6477 570.6761,245.4457 C570.4661,245.2447 570.1841,245.1397 569.8311,245.1327 C569.2041,245.1397 568.6411,245.3487 568.1421,245.7587 C567.6441,246.1687 567.2101,246.7077 566.8411,247.3827 C566.4711,248.0587 566.1651,248.8057 565.9251,249.6177 L562.6441,265.0997 L555.6991,265.0997 L558.9721,249.6657 C558.7511,249.7517 558.5251,249.8357 558.2961,249.9157 C557.2341,250.2927 556.1091,250.5817 554.9281,250.7757 C554.7261,253.0097 554.2921,255.0197 553.6331,256.8037 C552.9731,258.5967 552.1301,260.1157 551.1011,261.3767 C550.0721,262.6397 548.8991,263.6137 547.5971,264.2797 C546.2861,264.9467 544.8881,265.2847 543.4001,265.2917 C541.8901,265.3007 540.5631,265.0517 539.4051,264.5377 C538.2481,264.0307 537.3481,263.2097 536.6881,262.0927 C536.2701,261.3797 535.9841,260.5267 535.8271,259.5337 L535.6671,259.7297 C534.8001,260.7907 533.8271,261.7397 532.7421,262.5917 C531.6561,263.4437 530.4511,264.1197 529.1251,264.6177 C527.7981,265.1237 526.3361,265.3727 524.7361,265.3897 C523.2161,265.3967 521.8901,265.1317 520.7731,264.6087 C519.6471,264.0867 518.7701,263.2587 518.1521,262.1337 C517.5331,260.9997 517.2201,259.5287 517.2121,257.7197 C517.2121,256.9087 517.2761,256.0077 517.4201,255.0117 C517.5571,254.0067 517.7741,252.9617 518.0721,251.8697 C518.3691,250.7757 518.7551,249.6897 519.2371,248.6137 C519.7121,247.5357 520.2911,246.5147 520.9661,245.5497 C521.6491,244.5787 522.4361,243.7257 523.3291,242.9787 C524.2291,242.2307 525.2501,241.6347 526.3841,241.2087 C527.5251,240.7757 528.7871,240.5587 530.1851,240.5497 C531.2551,240.5587 532.1391,240.6787 532.8301,240.9277 C533.5301,241.1767 534.0761,241.5147 534.4711,241.9337 C534.8641,242.3597 535.1451,242.8327 535.3061,243.3567 C535.4671,243.8867 535.5471,244.4247 535.5391,244.9877 C535.5311,245.7747 535.4191,246.4267 535.1851,246.9487 C534.9601,247.4717 534.6551,247.8577 534.2681,248.1227 C533.8841,248.3797 533.4571,248.5087 532.9831,248.5087 C532.7181,248.5087 532.4441,248.4597 532.1551,248.3647 C531.8741,248.2667 531.5851,248.1227 531.2951,247.9297 C531.4881,247.3997 531.6331,246.8927 531.7281,246.4177 C531.8261,245.9357 531.8741,245.4947 531.8741,245.0837 C531.8741,244.4737 531.7611,243.9917 531.5451,243.6447 C531.3191,243.2907 530.9811,243.1147 530.5231,243.1067 C530.0171,243.1147 529.5111,243.3387 529.0121,243.7827 C528.5141,244.2247 528.0311,244.8277 527.5731,245.5907 C527.1151,246.3547 526.6891,247.2227 526.2951,248.1877 C525.9091,249.1597 525.5631,250.1717 525.2741,251.2337 C524.9851,252.2867 524.7601,253.3397 524.5981,254.3757 C524.4311,255.4137 524.3501,256.3857 524.3501,257.2867 C524.3501,258.3727 524.4781,259.2077 524.7361,259.7937 C524.9921,260.3807 525.3791,260.7907 525.8931,261.0167 C526.4081,261.2417 527.0511,261.3457 527.8221,261.3377 C529.0841,261.3297 530.2101,261.1127 531.1911,260.6867 C532.1801,260.2597 533.0881,259.6817 533.9241,258.9507 C534.5211,258.4227 535.1101,257.8427 535.6911,257.2147 C535.7131,256.5337 535.7811,255.7907 535.8921,254.9787 C536.0381,253.9827 536.2631,252.9377 536.5681,251.8517 C536.8741,250.7667 537.2661,249.6827 537.7581,248.6047 C538.2481,247.5287 538.8351,246.5067 539.5251,245.5417 C540.2181,244.5787 541.0211,243.7257 541.9371,242.9787 C542.8471,242.2217 543.8831,241.6347 545.0401,241.2087 C546.1981,240.7757 547.4841,240.5587 548.8991,240.5497 C550.9731,240.5587 552.5151,241.2087 553.5451,242.5117 C554.5661,243.8147 555.0731,245.7267 555.0731,248.2667 C555.1691,248.3157 555.2651,248.3397 555.3541,248.3477 C555.4501,248.3647 555.5311,248.3647 555.6031,248.3647 C556.3581,248.3557 557.1701,248.2107 558.0551,247.9377 C558.5211,247.7887 558.9841,247.6207 559.4451,247.4277 L560.8111,240.9847 L567.7581,240.9847 L567.2261,243.4927 C567.9101,242.7287 568.5931,242.1497 569.2761,241.7487 C569.9681,241.3537 570.6351,241.0817 571.2861,240.9447 C571.9371,240.7987 572.5481,240.7357 573.1101,240.7437 C573.9711,240.7357 574.7341,240.8717 575.4171,241.1537 C576.1001,241.4347 576.6721,241.8767 577.1221,242.4877 C577.5801,243.0987 577.9011,243.8937 578.0781,244.8907 C578.6651,244.0067 579.2521,243.2907 579.8551,242.7457 C580.4491,242.1987 581.0451,241.7887 581.6321,241.4987 C582.2191,241.2177 582.7731,241.0327 583.3111,240.9277 C583.8431,240.8317 584.3321,240.7837 584.7831,240.7917 C585.8191,240.7837 586.7431,240.9687 587.5391,241.3467 C588.3431,241.7237 588.9781,242.3107 589.4361,243.1147 C589.8941,243.9187 590.1281,244.9567 590.1361,246.2417 C590.1281,247.2307 590.0081,248.2987 589.7741,249.4567 C589.5491,250.6057 589.2831,251.7557 588.9781,252.9137 C588.6811,254.0707 588.4161,255.1487 588.1821,256.1537 C587.9581,257.1497 587.8371,257.9947 587.8211,258.6847 C587.8121,259.2957 587.9491,259.7867 588.2471,260.1477 C588.5361,260.5177 589.0341,260.7027 589.7501,260.7107 C590.4501,260.7027 591.0361,260.5257 591.5111,260.1647 C591.9841,259.8097 592.3941,259.3197 592.7481,258.6847 C593.1101,258.0497 593.4551,257.3107 593.8021,256.4667 L595.8271,256.4667 Z M513.7871,259.5377 C514.1331,260.1157 514.3091,260.7677 514.3171,261.4817 C514.3091,262.1977 514.1331,262.8407 513.7871,263.4117 C513.4421,263.9827 512.9831,264.4407 512.4051,264.7787 C511.8251,265.1157 511.1751,265.2847 510.4591,265.2917 C509.7431,265.2847 509.1011,265.1157 508.5301,264.7787 C507.9601,264.4407 507.5021,263.9827 507.1641,263.4117 C506.8261,262.8407 506.6571,262.1977 506.6481,261.4817 C506.6571,260.7677 506.8261,260.1157 507.1641,259.5377 C507.5021,258.9577 507.9601,258.4997 508.5301,258.1547 C509.1011,257.8087 509.7431,257.6317 510.4591,257.6237 C511.1751,257.6317 511.8251,257.8087 512.4051,258.1547 C512.9831,258.4997 513.4421,258.9577 513.7871,259.5377 L513.7871,259.5377 Z" id="Fill-21" fill="#BDBFC1" mask="url(#mask-4)"></path>
        </g>
    </g>
</svg>