<?xml version="1.0" encoding="UTF-8"?>
<svg width="142px" height="29px" viewBox="0 0 142 29" version="1.1" xmlns="http://www.w3.org/2000/svg" xmlns:xlink="http://www.w3.org/1999/xlink">
    <!-- Generator: Sketch 48.1 (47250) - http://www.bohemiancoding.com/sketch -->
    <title>Group 2</title>
    <desc>Created with Sketch.</desc>
    <defs></defs>
    <g id="Menu" stroke="none" stroke-width="1" fill="none" fill-rule="evenodd" transform="translate(-850.000000, -34.000000)">
        <g id="Group-2" transform="translate(850.000000, 34.000000)">
            <path d="M39.144,12.96 C39.176,13.04 39.208,13.152 39.208,13.264 C39.208,13.712 38.84,14.08 38.392,14.08 C38.04,14.08 37.736,13.856 37.64,13.568 L36.968,11.792 L31.672,11.792 L31,13.568 C30.888,13.856 30.584,14.08 30.248,14.08 C29.8,14.08 29.432,13.712 29.432,13.264 C29.432,13.168 29.464,13.056 29.496,12.96 L33.016,4.144 C33.208,3.632 33.72,3.248 34.312,3.248 C34.92,3.248 35.416,3.632 35.624,4.144 L39.144,12.96 Z M32.2,10.368 L36.44,10.368 L34.312,4.72 L32.2,10.368 Z M51.368,14.08 C50.936,14.08 50.584,13.712 50.584,13.28 L50.584,5.52 L47.224,13.776 C47.144,13.968 46.984,14.08 46.792,14.08 C46.584,14.08 46.424,13.968 46.36,13.776 L43,5.52 L43,13.28 C43,13.712 42.648,14.08 42.216,14.08 C41.768,14.08 41.4,13.712 41.4,13.28 L41.4,4.576 C41.4,3.856 41.992,3.248 42.744,3.248 C43.304,3.248 43.8,3.584 43.992,4.08 L46.792,11.008 L49.592,4.08 C49.784,3.584 50.28,3.248 50.84,3.248 C51.592,3.248 52.184,3.856 52.184,4.576 L52.184,13.28 C52.184,13.712 51.816,14.08 51.368,14.08 Z M55.976,14 C55.416,14 55.112,13.696 55.112,13.152 L55.112,4.176 C55.112,3.632 55.416,3.328 55.976,3.328 L60.12,3.328 C62.024,3.328 63.128,4.496 63.128,6.048 C63.128,7.392 62.248,8.288 61.272,8.496 C62.408,8.672 63.336,9.824 63.336,11.12 C63.336,12.8 62.216,14 60.248,14 L55.976,14 Z M56.712,7.856 L59.816,7.856 C60.888,7.856 61.48,7.184 61.48,6.304 C61.48,5.424 60.888,4.736 59.816,4.736 L56.712,4.736 L56.712,7.856 Z M56.712,12.592 L59.896,12.592 C61.016,12.592 61.688,11.952 61.688,10.912 C61.688,10.032 61.08,9.264 59.896,9.264 L56.712,9.264 L56.712,12.592 Z M66.696,14.08 C66.248,14.08 65.88,13.712 65.88,13.28 L65.88,4.048 C65.88,3.616 66.248,3.248 66.696,3.248 C67.128,3.248 67.48,3.616 67.48,4.048 L67.48,13.28 C67.48,13.712 67.128,14.08 66.696,14.08 Z M71.288,14 C70.728,14 70.424,13.696 70.424,13.152 L70.424,4.176 C70.424,3.632 70.728,3.328 71.288,3.328 L76.952,3.328 C77.336,3.328 77.672,3.648 77.672,4.048 C77.672,4.432 77.336,4.736 76.952,4.736 L72.024,4.736 L72.024,7.856 L76.84,7.856 C77.224,7.856 77.56,8.16 77.56,8.544 C77.56,8.944 77.224,9.264 76.84,9.264 L72.024,9.264 L72.024,12.592 L76.952,12.592 C77.336,12.592 77.672,12.896 77.672,13.28 C77.672,13.68 77.336,14 76.952,14 L71.288,14 Z M88.216,14.08 C87.88,14.08 87.592,13.936 87.416,13.664 L81.752,5.808 L81.752,13.28 C81.752,13.712 81.4,14.08 80.968,14.08 C80.52,14.08 80.152,13.712 80.152,13.28 L80.152,4.304 C80.152,3.728 80.616,3.248 81.208,3.248 C81.544,3.248 81.864,3.408 82.056,3.68 L87.608,11.328 L87.608,4.048 C87.608,3.616 87.96,3.248 88.392,3.248 C88.84,3.248 89.208,3.616 89.208,4.048 L89.208,13.088 C89.208,13.632 88.76,14.08 88.216,14.08 Z M95.544,14.08 C95.096,14.08 94.744,13.712 94.744,13.28 L94.744,4.736 L92.056,4.736 C91.672,4.736 91.352,4.432 91.352,4.048 C91.352,3.648 91.672,3.328 92.056,3.328 L99.016,3.328 C99.4,3.328 99.736,3.648 99.736,4.048 C99.736,4.432 99.4,4.736 99.016,4.736 L96.344,4.736 L96.344,13.28 C96.344,13.712 95.976,14.08 95.544,14.08 Z M102.728,14 C102.168,14 101.864,13.696 101.864,13.152 L101.864,4.176 C101.864,3.632 102.168,3.328 102.728,3.328 L108.392,3.328 C108.776,3.328 109.112,3.648 109.112,4.048 C109.112,4.432 108.776,4.736 108.392,4.736 L103.464,4.736 L103.464,7.856 L108.28,7.856 C108.664,7.856 109,8.16 109,8.544 C109,8.944 108.664,9.264 108.28,9.264 L103.464,9.264 L103.464,12.592 L108.392,12.592 C108.776,12.592 109.112,12.896 109.112,13.28 C109.112,13.68 108.776,14 108.392,14 L102.728,14 Z M33.336,28.112 C32.696,28.112 32.184,27.584 32.184,26.976 L32.184,20.256 L31.032,21.456 C30.856,21.632 30.616,21.744 30.36,21.744 C29.832,21.744 29.416,21.312 29.416,20.8 C29.416,20.528 29.528,20.304 29.688,20.128 L32.216,17.6 C32.456,17.36 32.792,17.216 33.16,17.216 C33.88,17.216 34.472,17.808 34.472,18.528 L34.472,26.976 C34.472,27.584 33.96,28.112 33.336,28.112 Z M36.632,22.672 C36.632,19.92 37.992,17.168 41.048,17.168 C44.088,17.168 45.464,19.92 45.464,22.672 C45.464,25.424 44.088,28.192 41.048,28.192 C37.992,28.192 36.632,25.424 36.632,22.672 Z M43.144,22.672 C43.144,20.704 42.568,19.184 41.048,19.184 C39.512,19.184 38.936,20.704 38.936,22.672 C38.936,24.64 39.512,26.176 41.048,26.176 C42.568,26.176 43.144,24.64 43.144,22.672 Z M47.112,22.672 C47.112,19.92 48.472,17.168 51.528,17.168 C54.568,17.168 55.944,19.92 55.944,22.672 C55.944,25.424 54.568,28.192 51.528,28.192 C48.472,28.192 47.112,25.424 47.112,22.672 Z M53.624,22.672 C53.624,20.704 53.048,19.184 51.528,19.184 C49.992,19.184 49.416,20.704 49.416,22.672 C49.416,24.64 49.992,26.176 51.528,26.176 C53.048,26.176 53.624,24.64 53.624,22.672 Z M60.168,22.48 C58.536,22.48 57.464,21.344 57.464,19.856 C57.464,18.352 58.536,17.168 60.168,17.168 C61.816,17.168 62.888,18.352 62.888,19.856 C62.888,21.344 61.816,22.48 60.168,22.48 Z M59.976,28.112 C59.704,28.112 59.464,27.888 59.464,27.6 C59.464,27.504 59.496,27.424 59.56,27.328 L65.848,17.456 C65.944,17.312 66.104,17.216 66.296,17.216 C66.584,17.216 66.808,17.44 66.808,17.728 C66.808,17.824 66.776,17.92 66.728,18 L60.408,27.872 C60.312,28.016 60.152,28.112 59.976,28.112 Z M60.168,21.36 C60.904,21.36 61.432,20.784 61.432,19.856 C61.432,18.88 60.904,18.32 60.168,18.32 C59.448,18.32 58.904,18.88 58.904,19.856 C58.904,20.784 59.448,21.36 60.168,21.36 Z M66.04,28.192 C64.408,28.192 63.336,27.04 63.336,25.552 C63.336,24.048 64.408,22.864 66.04,22.864 C67.672,22.864 68.76,24.048 68.76,25.552 C68.76,27.04 67.672,28.192 66.04,28.192 Z M66.04,27.072 C66.776,27.072 67.32,26.496 67.32,25.552 C67.32,24.576 66.776,24.016 66.04,24.016 C65.304,24.016 64.776,24.576 64.776,25.552 C64.776,26.496 65.304,27.072 66.04,27.072 Z M75.464,27.12 C75.176,26.928 74.984,26.608 74.984,26.24 C74.984,25.648 75.464,25.168 76.04,25.168 C76.264,25.168 76.472,25.232 76.648,25.36 C77.384,25.872 78.264,26.208 79.336,26.208 C80.584,26.208 81.192,25.616 81.192,25.008 C81.192,24.208 80.264,23.936 79.032,23.648 C77.288,23.248 75.048,22.768 75.048,20.384 C75.048,18.608 76.584,17.168 79.256,17.168 C80.472,17.168 81.544,17.456 82.568,18.048 C82.872,18.208 83.096,18.56 83.096,18.944 C83.096,19.52 82.616,20 82.056,20 C81.848,20 81.656,19.936 81.512,19.84 C80.68,19.376 79.848,19.152 79.096,19.152 C77.912,19.152 77.368,19.6 77.368,20.24 C77.368,20.96 78.264,21.184 79.496,21.472 C81.256,21.872 83.496,22.4 83.496,24.768 C83.496,26.72 82.104,28.192 79.224,28.192 C77.656,28.192 76.424,27.792 75.464,27.12 Z M86.792,28 C86.024,28 85.592,27.568 85.592,26.784 L85.592,18.528 C85.592,17.76 86.024,17.328 86.792,17.328 L92.264,17.328 C92.808,17.328 93.256,17.76 93.256,18.32 C93.256,18.848 92.808,19.28 92.264,19.28 L87.864,19.28 L87.864,21.6 L92.152,21.6 C92.696,21.6 93.144,22.048 93.144,22.576 C93.144,23.12 92.696,23.552 92.152,23.552 L87.864,23.552 L87.864,26.032 L92.264,26.032 C92.808,26.032 93.256,26.48 93.256,27.008 C93.256,27.552 92.808,28 92.264,28 L86.792,28 Z M104.104,22.096 C104.76,22.096 105.192,22.544 105.192,23.2 L105.192,25.328 C105.192,25.936 105.048,26.4 104.568,26.8 C103.544,27.664 102.248,28.208 100.648,28.208 C97.528,28.208 94.968,26.032 94.968,22.672 C94.968,19.296 97.528,17.152 100.648,17.152 C102.216,17.152 103.352,17.696 104.216,18.496 C104.424,18.688 104.552,18.976 104.552,19.296 C104.552,19.872 104.088,20.352 103.496,20.352 C103.224,20.352 102.952,20.24 102.76,20.048 C102.216,19.52 101.496,19.168 100.648,19.168 C98.712,19.168 97.304,20.656 97.304,22.672 C97.304,24.688 98.712,26.176 100.648,26.176 C101.672,26.176 102.488,25.76 102.92,25.36 L102.92,24.08 L100.968,24.08 C100.424,24.08 99.976,23.648 99.976,23.104 C99.976,22.56 100.424,22.096 100.968,22.096 L104.104,22.096 Z M107.56,23.744 L107.56,18.368 C107.56,17.728 108.072,17.216 108.712,17.216 C109.352,17.216 109.864,17.728 109.864,18.368 L109.864,23.664 C109.864,25.152 110.68,26.176 112.344,26.176 C113.976,26.176 114.792,25.152 114.792,23.664 L114.792,18.368 C114.792,17.728 115.304,17.216 115.944,17.216 C116.584,17.216 117.096,17.728 117.096,18.368 L117.096,23.728 C117.096,26.384 115.576,28.192 112.344,28.192 C109.08,28.192 107.56,26.368 107.56,23.744 Z M126.312,23.856 L128.12,26.32 C128.264,26.512 128.344,26.72 128.344,27.04 C128.344,27.584 127.864,28.112 127.256,28.112 C126.856,28.112 126.504,27.904 126.312,27.632 L123.912,24.176 L122.04,24.176 L122.04,26.976 C122.04,27.584 121.544,28.112 120.92,28.112 C120.28,28.112 119.768,27.584 119.768,26.976 L119.768,18.528 C119.768,17.76 120.2,17.328 120.968,17.328 L124.76,17.328 C126.984,17.328 128.344,18.784 128.344,20.768 C128.344,22.48 127.368,23.472 126.312,23.856 Z M122.04,19.28 L122.04,22.224 L124.424,22.224 C125.336,22.224 126.024,21.648 126.024,20.752 C126.024,19.856 125.336,19.28 124.424,19.28 L122.04,19.28 Z M130.104,22.672 C130.104,19.456 132.456,17.152 135.672,17.152 C138.904,17.152 141.256,19.456 141.256,22.672 C141.256,25.888 138.904,28.192 135.672,28.192 C132.456,28.192 130.104,25.888 130.104,22.672 Z M138.92,22.672 C138.92,20.672 137.64,19.168 135.672,19.168 C133.704,19.168 132.44,20.672 132.44,22.672 C132.44,24.656 133.704,26.176 135.672,26.176 C137.64,26.176 138.92,24.656 138.92,22.672 Z" id="AMBIENTE-100%-SEGURO" fill="#9B9B9B"></path>
            <path d="M6.14247143,6.66746667 C6.14247143,4.46213333 7.87304286,2.66746667 9.99961429,2.66746667 C12.1261857,2.66746667 13.8567571,4.46213333 13.8567571,6.66746667 L13.8567571,8.0008 L6.14247143,8.0008 L6.14247143,6.66746667 Z M17.4281857,20.5608 L17.4281857,25.3341333 L2.57104286,25.3341333 L2.57104286,10.6674667 L4.85675714,10.6674667 L15.1424714,10.6674667 L17.4281857,10.6674667 L17.4281857,13.5394667 L19.9996143,10.8728 L19.9996143,9.33413333 C19.9996143,8.59813333 19.4249,8.0008 18.7139,8.0008 L16.4281857,8.0008 L16.4281857,6.66746667 C16.4281857,2.99146667 13.5443286,0.0008 9.99961429,0.0008 C6.4549,0.0008 3.57104286,2.99146667 3.57104286,6.66746667 L3.57104286,8.0008 L1.28532857,8.0008 C0.575614286,8.0008 -0.000385714286,8.59813333 -0.000385714286,9.33413333 L-0.000385714286,26.6674667 C-0.000385714286,27.4034667 0.575614286,28.0008 1.28532857,28.0008 L18.7139,28.0008 C19.4249,28.0008 19.9996143,27.4034667 19.9996143,26.6674667 L19.9996143,17.8941333 L17.4281857,20.5608 Z" id="Fill-1" fill="#823486"></path>
            <path d="M24.5599446,10.4184644 C23.9727541,9.85987 23.0197506,9.86115412 22.4366097,10.4184644 L12.8336826,19.5524454 L8.56271536,15.4907581 C8.26979503,15.212103 7.88508401,15.0734175 7.50037299,15.0734175 C7.11701183,15.0734175 6.73230081,15.212103 6.43938048,15.4907581 C5.85353984,16.0480683 5.85353984,16.9546606 6.43938048,17.5106867 L11.7713403,22.5829804 C12.3571809,23.1390065 13.3101844,23.1390065 13.8946751,22.5829804 L24.5599446,12.4371089 C24.8447657,12.1674426 25,11.8091717 25,11.4277866 C25,11.0464015 24.8447657,10.6881306 24.5599446,10.4184644 Z" id="Fill-4" fill="#823486"></path>
        </g>
    </g>
</svg>