<?xml version="1.0" encoding="UTF-8"?>
<svg width="34px" height="34px" viewBox="0 0 34 34" version="1.1" xmlns="http://www.w3.org/2000/svg" xmlns:xlink="http://www.w3.org/1999/xlink">
    <g id="Page-1" stroke="none" stroke-width="1" fill="none" fill-rule="evenodd">
        <path d="M6.54741319,10.7635793 C6.52853926,10.9822122 6.5188,11.2011877 6.5188,11.4199 L6.5188,20.0019 C6.5188,20.308388 6.459717,20.5219611 6.32492112,20.6594922 C6.14320806,20.959263 5.80332433,21.1482506 5.42991545,21.1195834 C2.36486768,20.8842746 0.0004,18.183161 0.0004,14.9454 C0.0004,11.8237119 2.1983,9.20016584 5.10267924,8.80499659 C5.59834794,6.70843481 6.67580809,4.83089191 8.1528,3.3539 C10.2228,1.2849 13.0778,-0.0001 16.2188,-0.0001 L17.4778,-0.0001 C20.6188,-0.0001 23.4748,1.2849 25.5438,3.3539 C27.0217897,4.83188971 28.100218,6.71097179 28.5957264,8.80924596 C31.4851273,9.21862895 33.6684,11.8348354 33.6684,14.9454 C33.6684,17.9683775 31.6062786,20.5237718 28.8377496,21.0408383 L28.8368,21.1819 C28.5598,23.8549 27.3508,26.2609 25.5438,28.0679 C23.9940324,29.6185836 22.0021417,30.7279831 19.7786752,31.1870884 C19.30587,32.3491598 18.1655167,33.1687 16.8339,33.1687 C15.0787634,33.1687 13.6559,31.7449503 13.6559,29.9897 C13.6559,28.2352282 15.078985,26.8117 16.8339,26.8117 C18.2969583,26.8117 19.5293808,27.801112 19.8988388,29.1468369 C21.5313179,28.7877825 23.1026867,28.1250133 24.2208,27.0069 C25.8838,25.3439 27.1798,22.5239 27.1798,20.0019 L27.1798,11.4199 C27.1798,10.1113509 26.8309049,8.79337952 26.2628776,7.59574869 C24.6697294,8.35041276 22.9206436,8.7494 21.1158,8.7494 C18.228953,8.7494 15.5031239,7.72710928 13.3573145,5.91645386 C11.7445062,8.280935 9.33071105,10.012802 6.54741319,10.7635793 Z M7.02511567,8.59147795 C9.26805635,7.73184803 11.1506977,6.08835346 12.3079294,3.95470748 C12.6170707,3.38472817 13.3906895,3.27883194 13.8416313,3.74476783 C15.7378854,5.70407354 18.3361081,6.8294 21.1158,6.8294 C22.5744547,6.8294 23.9873703,6.52026812 25.2828713,5.9337883 C24.9548325,5.47653817 24.5972176,5.05431764 24.2208,4.6779 C22.5578,3.0149 19.9998,1.7189 17.4778,1.7189 L16.2188,1.7189 C13.6968,1.7189 11.1398,3.0149 9.4768,4.6779 C8.44325085,5.71144915 7.55184474,7.09031318 7.02511567,8.59147795 Z M4.81416653,10.8259027 C3.14810104,11.3224714 1.9204,12.97806 1.9204,14.9454 C1.9204,16.8958773 3.12722534,18.5394639 4.77188505,19.0510736 C4.77703912,16.3656891 4.7988,14.2444659 4.7988,11.4199 C4.7988,11.220705 4.80396473,11.0226635 4.81416653,10.8259027 Z M28.8838925,10.8350421 C28.8937901,11.0287958 28.8988,11.2237889 28.8988,11.4199 L28.8988,11.9719 L28.8510524,19.064735 C30.5189715,18.5692607 31.7484,16.9133748 31.7484,14.9454 C31.7484,12.9901799 30.5349366,11.3425535 28.8838925,10.8350421 Z M20.6728,11.8059 C21.5658,11.8059 22.2888,12.5299 22.2888,13.4219 C22.2888,14.3139 21.5658,15.0369 20.6728,15.0369 C19.7798,15.0369 19.0578,14.3139 19.0578,13.4219 C19.0578,12.5299 19.7798,11.8059 20.6728,11.8059 Z M13.0248,11.8059 C13.9168,11.8059 14.6408,12.5299 14.6408,13.4219 C14.6408,14.3139 13.9168,15.0369 13.0248,15.0369 C12.1318,15.0369 11.4078,14.3139 11.4078,13.4219 C11.4078,12.5299 12.1318,11.8059 13.0248,11.8059 Z M11.6833722,19.6917317 C11.539595,19.1814052 11.8367419,18.6511494 12.3470683,18.5073722 C12.8573948,18.363595 13.3876506,18.6607419 13.5314278,19.1710683 C13.8475471,20.2931101 15.2009499,21.1684 16.8344,21.1684 C18.4674894,21.1684 19.8218354,20.2926472 20.1360603,19.1721778 C20.2792248,18.6616791 20.8091235,18.3638958 21.3196222,18.5070603 C21.8301209,18.6502248 22.1279042,19.1801235 21.9847397,19.6906222 C21.420758,21.7016794 19.2762036,23.0884 16.8344,23.0884 C14.3926577,23.0884 12.2499099,21.7026148 11.6833722,19.6917317 Z" id="Combined-Shape" fill="#823486"></path>
    </g>
</svg>