<?xml version="1.0" encoding="UTF-8"?>
<svg width="32px" height="32px" viewBox="0 0 32 32" version="1.1" xmlns="http://www.w3.org/2000/svg" xmlns:xlink="http://www.w3.org/1999/xlink">
    <g id="Page-1" stroke="none" stroke-width="1" fill="none" fill-rule="evenodd">
        <path d="M9.82097299,11.7797287 C9.79170402,11.8185644 9.75910554,11.8556664 9.72318281,11.8906408 C8.55043241,13.0324323 8.97545771,16.0076094 10.9764779,18.6198567 C12.9782812,21.2319767 15.7403462,22.4164219 17.1475327,21.5812505 C17.1881394,21.5571502 17.2298013,21.5363881 17.2721996,21.5188828 C17.1383698,20.8591567 17.3772007,20.1492575 17.9464612,19.7124187 L20.2112479,17.9768165 C21.0058812,17.3691557 22.1478028,17.5207556 22.7564294,18.314524 L27.7532432,24.8359791 C28.3643912,25.6302586 28.2124112,26.7743854 27.4175508,27.3822188 L25.1525521,29.1189835 C24.7328334,29.4399449 24.216238,29.5493566 23.7325469,29.4640901 C23.7112339,29.5296534 23.6824851,29.5939187 23.6460113,29.6557656 C23.4654783,29.9618867 23.0638518,30.285284 21.6126075,31.3571888 C18.3368204,33.777715 11.6607141,29.719664 6.049038,22.3959335 C0.480837395,15.1279121 -1.68159323,7.6140713 1.43147023,5.04733601 C2.96565333,3.78267156 3.32931453,3.51684899 3.77818568,3.47604252 C3.78919587,3.4750416 3.8001795,3.47423074 3.81113335,3.47360724 C3.85280336,2.98101561 4.09327415,2.50687315 4.51502364,2.18349426 L6.7806479,0.44801648 C7.5753976,-0.159733289 8.71607661,-0.00886717418 9.3257862,0.785667614 L14.3243835,7.3084479 C14.9320443,8.10308122 14.7804444,9.2450028 13.9867883,9.85354332 L11.7209521,11.5901835 C11.1573066,12.0212066 10.4196652,12.0706604 9.82097299,11.7797287 Z M8.52392714,10.4018708 L4.50059305,5.15173332 C4.35281366,5.28244597 4.16356078,5.36892598 3.95201432,5.38815748 C4.06926184,5.37749861 4.13189059,5.35795518 4.17392633,5.33759582 C4.14437664,5.35684347 4.07310356,5.40523254 3.97423839,5.47749924 C3.70647476,5.67322432 3.28035591,6.01149649 2.6528093,6.52879842 C0.692575066,8.14502066 2.58347267,14.7153603 7.57312204,21.2282144 C12.5954639,27.7828119 18.42425,31.3258219 20.4717441,29.8128992 C21.1126622,29.3395101 21.5409034,29.0143407 21.8047663,28.8018733 C21.955706,28.6803338 22.0373023,28.6039374 21.9921887,28.6804344 C22.0689531,28.5502687 22.1716501,28.4448643 22.2898352,28.3669163 L18.273601,23.126044 C18.2291222,23.1652928 18.1803511,23.2009628 18.1274673,23.2323495 C15.6972619,24.6746873 11.9740891,23.0780942 9.45239809,19.7875814 C6.93166874,16.4968757 6.35876545,12.4865527 8.38381719,10.5149592 C8.42771671,10.4722186 8.47465965,10.4345256 8.52392714,10.4018708 Z M25.6930871,14.3734371 C25.6101687,14.8971064 25.1184322,15.2544056 24.5947629,15.1714871 C24.0710936,15.0885687 23.7137944,14.5968322 23.7967129,14.0731629 C23.9370187,13.1870649 23.8719906,12.2863049 23.6171707,11.4270674 C23.3204569,10.4218216 22.7689562,9.49785547 22.0550588,8.79008056 C21.3131327,8.05678156 20.429327,7.5838133 19.529614,7.44062151 C18.9850502,7.35489557 18.4440185,7.38735349 17.9195148,7.54207433 C17.4109852,7.69208307 16.8771344,7.40144447 16.7271257,6.89291485 C16.5771169,6.38438523 16.8677555,5.8505344 17.3762852,5.70052567 C18.1773339,5.46422809 19.0058405,5.4145238 19.8297862,5.54423178 C21.1432882,5.75327718 22.3875222,6.41912854 23.4057921,7.42555966 C24.3505308,8.36219399 25.0704004,9.56823983 25.4582785,10.882347 C25.7929572,12.0108599 25.8788312,13.2003747 25.6930871,14.3734371 Z M30.631822,16.9492784 C30.4668113,17.4531399 29.9245832,17.7278328 29.4207216,17.562822 C28.9168601,17.3978113 28.6421672,16.8555832 28.807178,16.3517216 C29.5527273,14.0751811 29.5304693,11.6758131 28.8003503,9.42773919 C28.2674194,7.78499351 27.3686643,6.27538799 26.2010065,5.04823167 C25.0115581,3.79809712 23.5787411,2.87195678 22.0317851,2.36584283 C20.2308307,1.77618306 18.3287715,1.76333906 16.4470691,2.37454258 C15.9428096,2.53833319 15.401248,2.26232862 15.2374574,1.75806913 C15.0736668,1.25380964 15.3496714,0.712248027 15.8539309,0.54845742 C18.1262389,-0.189620312 20.4450792,-0.173961918 22.6290109,0.541090414 C24.4847459,1.14822686 26.1880718,2.24921803 27.5919731,3.72474685 C28.9576331,5.15999471 30.0051256,6.91942881 30.626553,8.8349629 C31.4801561,11.4632509 31.5062779,14.2791206 30.631822,16.9492784 Z M26.166556,25.9219901 L21.295595,19.5647914 L19.1963026,21.1735686 L24.0681813,27.5309902 L26.166556,25.9219901 Z M12.7364186,8.39280655 L7.86498768,2.03596903 L5.76471609,3.64478621 L10.6365949,10.0022078 L12.7364186,8.39280655 Z" id="Combined-Shape" fill="#823486" fill-rule="nonzero"></path>
    </g>
</svg>