<?xml version="1.0" encoding="UTF-8"?>
<svg width="25px" height="23px" viewBox="0 0 25 23" version="1.1" xmlns="http://www.w3.org/2000/svg" xmlns:xlink="http://www.w3.org/1999/xlink">
    <!-- Generator: Sketch 48.2 (47327) - http://www.bohemiancoding.com/sketch -->
    <title>Combined Shape</title>
    <desc>Created with Sketch.</desc>
    <defs></defs>
    <g id="Page-1" stroke="none" stroke-width="1" fill="none" fill-rule="evenodd">
        <path d="M8.7,7.2 C8.7,6.64771525 9.14771525,6.2 9.7,6.2 C10.2522847,6.2 10.7,6.64771525 10.7,7.2 L10.7,11.5 C10.7,12.0522847 10.2522847,12.5 9.7,12.5 C9.14771525,12.5 8.7,12.0522847 8.7,11.5 L8.7,7.2 Z M13.4,7.2 C13.4,6.64771525 13.8477153,6.2 14.4,6.2 C14.9522847,6.2 15.4,6.64771525 15.4,7.2 L15.4,11.5 C15.4,12.0522847 14.9522847,12.5 14.4,12.5 C13.8477153,12.5 13.4,12.0522847 13.4,11.5 L13.4,7.2 Z M9.2,11.9 C9.2,11.3477153 9.64771525,10.9 10.2,10.9 C10.7522847,10.9 11.2,11.3477153 11.2,11.9 L11.2,22 C11.2,22.5522847 10.7522847,23 10.2,23 C9.64771525,23 9.2,22.5522847 9.2,22 L9.2,11.9 Z M13,11.9 C13,11.3477153 13.4477153,10.9 14,10.9 C14.5522847,10.9 15,11.3477153 15,11.9 L15,22 C15,22.5522847 14.5522847,23 14,23 C13.4477153,23 13,22.5522847 13,22 L13,11.9 Z M9.6,2.3 C8.60509605,2.3 8.1,2.69285248 8.1,3.4 C8.1,4.24771525 8.75228475,4.9 9.6,4.9 L10.9442728,4.9 C10.6239214,3.6894895 9.89634384,2.3 9.6,2.3 Z M12.1,6.9 L9.6,6.9 C7.64771525,6.9 6.1,5.35228475 6.1,3.4 C6.1,1.46270307 7.59490395,0.3 9.6,0.3 C11.4966796,0.3 13.1,3.67997264 13.1,5.9 C13.1,6.45228475 12.6522847,6.9 12.1,6.9 Z M12.1,6.9 C11.5477153,6.9 11.1,6.45228475 11.1,5.9 C11.1,3.6043731 12.6250953,0.3 14.6,0.3 C16.605096,0.3 18.1,1.46270307 18.1,3.4 C18.1,5.35228475 16.5522847,6.9 14.6,6.9 L12.1,6.9 Z M14.6,4.9 C15.4477153,4.9 16.1,4.24771525 16.1,3.4 C16.1,2.69285248 15.594904,2.3 14.6,2.3 C14.2526368,2.3 13.542641,3.66903471 13.2408119,4.9 L14.6,4.9 Z M2,7 L2,10 L23,10 L23,7 L2,7 Z M1,5 L24,5 C24.5522847,5 25,5.44771525 25,6 L25,11 C25,11.5522847 24.5522847,12 24,12 L1,12 C0.44771525,12 0,11.5522847 0,11 L0,6 C0,5.44771525 0.44771525,5 1,5 Z M3,12 L3,21 L22,21 L22,12 L3,12 Z M2,10 L23,10 C23.5522847,10 24,10.4477153 24,11 L24,22 C24,22.5522847 23.5522847,23 23,23 L2,23 C1.44771525,23 1,22.5522847 1,22 L1,11 C1,10.4477153 1.44771525,10 2,10 Z" id="Combined-Shape" fill="#FFFFFF" fill-rule="nonzero"></path>
    </g>
</svg>