<?xml version="1.0" encoding="UTF-8"?>
<svg width="18px" height="18px" viewBox="0 0 18 18" version="1.1" xmlns="http://www.w3.org/2000/svg" xmlns:xlink="http://www.w3.org/1999/xlink">
    <!-- Generator: Sketch 47.1 (45422) - http://www.bohemiancoding.com/sketch -->
    <title>Combined Shape</title>
    <desc>Created with Sketch.</desc>
    <defs></defs>
    <g id="Page-1" stroke="none" stroke-width="1" fill="none" fill-rule="evenodd">
        <path d="M12.7634827,0 C15.6435614,0 18,2.29355202 18,5.09676975 L18,12.9032302 C18,15.706448 15.6435614,18 12.7634827,18 L5.23655589,18 C2.35643857,18 0,15.706448 0,12.9032302 L0,5.09676975 C0,2.29355202 2.35643857,0 5.23655589,0 L12.7634827,0 Z M16.6162455,12.9032302 L16.6162455,5.09680731 C16.6162455,4.10076374 16.2138966,3.16061099 15.4833319,2.44950545 C14.7527287,1.7383999 13.786798,1.34678853 12.7634441,1.34678853 L5.23655589,1.34678853 C4.21320195,1.34678853 3.2472713,1.7383999 2.51666806,2.44950545 C1.78606482,3.16061099 1.38371592,4.10076374 1.38371592,5.09680731 L1.38371592,12.9032302 C1.38371592,13.8992738 1.78606482,14.8394266 2.51666806,15.5504946 C3.2472713,16.2616001 4.21320195,16.653249 5.23655589,16.653249 L12.7634441,16.653249 C13.786798,16.653249 14.7527287,16.2616001 15.4833319,15.5504946 C16.2138966,14.8394266 16.6162455,13.8992738 16.6162455,12.9032302 Z M9.0278009,4.10616502 C11.7652862,4.10616502 13.9844569,6.26611243 13.9844569,8.93054213 C13.9844569,11.5949343 11.7652862,13.7548817 9.0278009,13.7548817 C6.2903542,13.7548817 4.07118352,11.5949343 4.07118352,8.93054213 C4.07118352,6.26611243 6.2903542,4.10616502 9.0278009,4.10616502 Z M9.00395171,12.0934068 C10.7964998,12.0934068 12.2496022,10.6790459 12.2496022,8.93437336 C12.2496022,7.1896632 10.7964998,5.77530237 9.00395171,5.77530237 C7.21140362,5.77530237 5.75830123,7.1896632 5.75830123,8.93437336 C5.75830123,10.6790459 7.21140362,12.0934068 9.00395171,12.0934068 Z M14.0640236,2.88881182 C14.7121967,2.88881182 15.2376892,3.40024289 15.2376892,4.03111807 C15.2376892,4.6620308 14.7121967,5.17346188 14.0640236,5.17346188 C13.4158506,5.17346188 12.8903581,4.6620308 12.8903581,4.03111807 C12.8903581,3.40024289 13.4158506,2.88881182 14.0640236,2.88881182 Z" id="Combined-Shape" fill="#551844"></path>
    </g>
</svg>