<?xml version="1.0" encoding="UTF-8"?>
<svg width="589px" height="317px" viewBox="0 0 589 317" version="1.1" xmlns="http://www.w3.org/2000/svg" xmlns:xlink="http://www.w3.org/1999/xlink">
    <!-- Generator: Sketch 48.2 (47327) - http://www.bohemiancoding.com/sketch -->
    <title>Group 2</title>
    <desc>Created with Sketch.</desc>
    <defs></defs>
    <g id="Produto-Copy" stroke="none" stroke-width="1" fill="none" fill-rule="evenodd" transform="translate(-506.000000, -159.000000)">
        <g id="Group-2" transform="translate(506.000000, 159.000000)">
            <path d="M287.269176,30 L265.393999,8.12482294 C263.535334,6.2661573 263.535334,3.25266488 265.393999,1.39399923 C267.252665,-0.464666411 270.266157,-0.464666411 272.124823,1.39399923 L294,23.2691763 L315.875177,1.39399923 C317.733843,-0.464666411 320.747335,-0.464666411 322.606001,1.39399923 C324.464666,3.25266488 324.464666,6.2661573 322.606001,8.12482294 L300.730824,30 L322.606001,51.8751771 C324.464666,53.7338427 324.464666,56.7473351 322.606001,58.6060008 C320.747335,60.4646664 317.733843,60.4646664 315.875177,58.6060008 L294,36.7308237 L272.124823,58.6060008 C270.266157,60.4646664 267.252665,60.4646664 265.393999,58.6060008 C263.535334,56.7473351 263.535334,53.7338427 265.393999,51.8751771 L287.269176,30 Z" id="Combined-Shape" fill="#823486" fill-rule="nonzero"></path>
            <path d="M112.212891,173 L106.441406,173 L97.125,156.798828 L96.9931641,156.798828 C97.1787119,159.660171 97.2714844,161.701166 97.2714844,162.921875 L97.2714844,173 L93.2138672,173 L93.2138672,151.583984 L98.9414062,151.583984 L108.243164,167.624023 L108.345703,167.624023 C108.199218,164.840806 108.125977,162.873053 108.125977,161.720703 L108.125977,151.583984 L112.212891,151.583984 L112.212891,173 Z M127.652344,173 L126.788086,170.773438 L126.670898,170.773438 C125.918942,171.720708 125.145024,172.37744 124.349121,172.743652 C123.553219,173.109865 122.515631,173.292969 121.236328,173.292969 C119.664055,173.292969 118.426274,172.843754 117.522949,171.945312 C116.619624,171.046871 116.167969,169.767586 116.167969,168.107422 C116.167969,166.369132 116.775873,165.087406 117.991699,164.262207 C119.207526,163.437008 121.041003,162.980469 123.492188,162.892578 L126.333984,162.804688 L126.333984,162.086914 C126.333984,160.42675 125.484383,159.59668 123.785156,159.59668 C122.476556,159.59668 120.938485,159.992184 119.170898,160.783203 L117.691406,157.765625 C119.576181,156.779292 121.666004,156.286133 123.960938,156.286133 C126.158214,156.286133 127.842768,156.764644 129.014648,157.72168 C130.186529,158.678716 130.772461,160.133779 130.772461,162.086914 L130.772461,173 L127.652344,173 Z M126.333984,165.412109 L124.605469,165.470703 C123.306634,165.509766 122.339847,165.744138 121.705078,166.173828 C121.070309,166.603518 120.75293,167.257808 120.75293,168.136719 C120.75293,169.396491 121.475579,170.026367 122.920898,170.026367 C123.95606,170.026367 124.783688,169.728519 125.403809,169.132812 C126.023929,168.537106 126.333984,167.746099 126.333984,166.759766 L126.333984,165.412109 Z M121.749023,153.283203 C121.446288,153.283203 121.155763,153.412596 120.877441,153.671387 C120.59912,153.930177 120.396485,154.32324 120.269531,154.850586 L118.086914,154.850586 C118.194336,153.434563 118.597164,152.326176 119.29541,151.525391 C119.993656,150.724605 120.91894,150.324219 122.071289,150.324219 C122.471682,150.324219 122.864744,150.404784 123.250488,150.565918 C123.636232,150.727052 124.017088,150.902831 124.393066,151.093262 C124.769045,151.283692 125.137694,151.45703 125.499023,151.613281 C125.860353,151.769532 126.216795,151.847656 126.568359,151.847656 C126.871095,151.847656 127.16162,151.720704 127.439941,151.466797 C127.718263,151.212889 127.920898,150.822268 128.047852,150.294922 L130.230469,150.294922 C130.123046,151.710945 129.715336,152.819332 129.007324,153.620117 C128.299313,154.420902 127.378912,154.821289 126.246094,154.821289 C125.845701,154.821289 125.452639,154.740723 125.066895,154.57959 C124.68115,154.418456 124.300295,154.242677 123.924316,154.052246 C123.548338,153.861815 123.179689,153.686036 122.818359,153.524902 C122.457029,153.363769 122.100588,153.283203 121.749023,153.283203 Z M138.931641,164.782227 C138.931641,166.403328 139.197751,167.628902 139.72998,168.458984 C140.26221,169.289067 141.1289,169.704102 142.330078,169.704102 C143.52149,169.704102 144.378415,169.291508 144.900879,168.466309 C145.423342,167.641109 145.68457,166.413094 145.68457,164.782227 C145.68457,163.161125 145.420901,161.945317 144.893555,161.134766 C144.366208,160.324215 143.501959,159.918945 142.300781,159.918945 C141.109369,159.918945 140.250003,160.321773 139.722656,161.127441 C139.19531,161.933109 138.931641,163.151359 138.931641,164.782227 Z M150.254883,164.782227 C150.254883,167.448256 149.551765,169.533196 148.145508,171.037109 C146.739251,172.541023 144.781263,173.292969 142.271484,173.292969 C140.699211,173.292969 139.312506,172.948734 138.111328,172.260254 C136.91015,171.571774 135.987308,170.583014 135.342773,169.293945 C134.698239,168.004876 134.375977,166.500985 134.375977,164.782227 C134.375977,162.106432 135.074212,160.026375 136.470703,158.541992 C137.867194,157.05761 139.830065,156.31543 142.359375,156.31543 C143.931648,156.31543 145.318353,156.657223 146.519531,157.34082 C147.720709,158.024417 148.643551,159.005853 149.288086,160.285156 C149.93262,161.56446 150.254883,163.063468 150.254883,164.782227 Z M168.521484,159.494141 C167.574214,159.494141 166.832034,159.794431 166.294922,160.39502 C165.75781,160.995608 165.450196,161.847651 165.37207,162.951172 L171.641602,162.951172 C171.62207,161.847651 171.333987,160.995608 170.777344,160.39502 C170.2207,159.794431 169.468755,159.494141 168.521484,159.494141 Z M169.151367,173.292969 C166.514635,173.292969 164.454109,172.565437 162.969727,171.110352 C161.485344,169.655266 160.743164,167.59474 160.743164,164.928711 C160.743164,162.184557 161.429192,160.062996 162.80127,158.563965 C164.173347,157.064934 166.0703,156.31543 168.492188,156.31543 C170.806652,156.31543 172.608392,156.974603 173.897461,158.292969 C175.18653,159.611335 175.831055,161.432606 175.831055,163.756836 L175.831055,165.924805 L165.269531,165.924805 C165.31836,167.194342 165.694332,168.185543 166.397461,168.898438 C167.100589,169.611332 168.086908,169.967773 169.356445,169.967773 C170.342778,169.967773 171.275386,169.865235 172.154297,169.660156 C173.033208,169.455077 173.951167,169.127932 174.908203,168.678711 L174.908203,172.135742 C174.126949,172.526369 173.291997,172.816894 172.40332,173.007324 C171.514644,173.197755 170.43067,173.292969 169.151367,173.292969 Z M182.818359,164.635742 L177.544922,156.623047 L182.613281,156.623047 L185.791992,161.837891 L189,156.623047 L194.068359,156.623047 L188.736328,164.635742 L194.317383,173 L189.234375,173 L185.791992,167.389648 L182.334961,173 L177.266602,173 L182.818359,164.635742 Z M196.617188,152.389648 C196.617188,150.934563 197.427726,150.207031 199.048828,150.207031 C200.66993,150.207031 201.480469,150.934563 201.480469,152.389648 C201.480469,153.083011 201.277834,153.622557 200.872559,154.008301 C200.467283,154.394045 199.859379,154.586914 199.048828,154.586914 C197.427726,154.586914 196.617188,153.8545 196.617188,152.389648 Z M201.275391,173 L196.807617,173 L196.807617,156.623047 L201.275391,156.623047 L201.275391,173 Z M212.862305,169.733398 C213.643559,169.733398 214.581049,169.562502 215.674805,169.220703 L215.674805,172.545898 C214.561518,173.043948 213.194344,173.292969 211.573242,173.292969 C209.786124,173.292969 208.484867,172.841313 207.669434,171.937988 C206.854,171.034663 206.446289,169.679697 206.446289,167.873047 L206.446289,159.977539 L204.307617,159.977539 L204.307617,158.087891 L206.768555,156.59375 L208.057617,153.136719 L210.914062,153.136719 L210.914062,156.623047 L215.499023,156.623047 L215.499023,159.977539 L210.914062,159.977539 L210.914062,167.873047 C210.914062,168.507816 211.092283,168.976561 211.44873,169.279297 C211.805178,169.582033 212.276364,169.733398 212.862305,169.733398 Z M225.767578,159.494141 C224.820308,159.494141 224.078128,159.794431 223.541016,160.39502 C223.003904,160.995608 222.696289,161.847651 222.618164,162.951172 L228.887695,162.951172 C228.868164,161.847651 228.580081,160.995608 228.023438,160.39502 C227.466794,159.794431 226.714848,159.494141 225.767578,159.494141 Z M226.397461,173.292969 C223.760729,173.292969 221.700203,172.565437 220.21582,171.110352 C218.731438,169.655266 217.989258,167.59474 217.989258,164.928711 C217.989258,162.184557 218.675286,160.062996 220.047363,158.563965 C221.41944,157.064934 223.316394,156.31543 225.738281,156.31543 C228.052746,156.31543 229.854486,156.974603 231.143555,158.292969 C232.432624,159.611335 233.077148,161.432606 233.077148,163.756836 L233.077148,165.924805 L222.515625,165.924805 C222.564453,167.194342 222.940426,168.185543 223.643555,168.898438 C224.346683,169.611332 225.333001,169.967773 226.602539,169.967773 C227.588872,169.967773 228.52148,169.865235 229.400391,169.660156 C230.279301,169.455077 231.197261,169.127932 232.154297,168.678711 L232.154297,172.135742 C231.373043,172.526369 230.53809,172.816894 229.649414,173.007324 C228.760738,173.197755 227.676764,173.292969 226.397461,173.292969 Z M259.620117,173 L255.152344,173 L255.152344,163.43457 C255.152344,162.252924 254.942385,161.366702 254.522461,160.775879 C254.102537,160.185056 253.433598,159.889648 252.515625,159.889648 C251.265619,159.889648 250.362307,160.307125 249.805664,161.14209 C249.249021,161.977055 248.970703,163.361318 248.970703,165.294922 L248.970703,173 L244.50293,173 L244.50293,156.623047 L247.916016,156.623047 L248.516602,158.717773 L248.765625,158.717773 C249.263674,157.926754 249.949703,157.328615 250.82373,156.92334 C251.697758,156.518064 252.691401,156.31543 253.804688,156.31543 C255.708994,156.31543 257.154292,156.830561 258.140625,157.86084 C259.126958,158.891118 259.620117,160.37792 259.620117,162.321289 L259.620117,173 Z M271.001953,159.494141 C270.054683,159.494141 269.312503,159.794431 268.775391,160.39502 C268.238279,160.995608 267.930664,161.847651 267.852539,162.951172 L274.12207,162.951172 C274.102539,161.847651 273.814456,160.995608 273.257812,160.39502 C272.701169,159.794431 271.949223,159.494141 271.001953,159.494141 Z M271.631836,173.292969 C268.995104,173.292969 266.934578,172.565437 265.450195,171.110352 C263.965813,169.655266 263.223633,167.59474 263.223633,164.928711 C263.223633,162.184557 263.909661,160.062996 265.281738,158.563965 C266.653815,157.064934 268.550769,156.31543 270.972656,156.31543 C273.287121,156.31543 275.088861,156.974603 276.37793,158.292969 C277.666999,159.611335 278.311523,161.432606 278.311523,163.756836 L278.311523,165.924805 L267.75,165.924805 C267.798828,167.194342 268.174801,168.185543 268.87793,168.898438 C269.581058,169.611332 270.567376,169.967773 271.836914,169.967773 C272.823247,169.967773 273.755855,169.865235 274.634766,169.660156 C275.513676,169.455077 276.431636,169.127932 277.388672,168.678711 L277.388672,172.135742 C276.607418,172.526369 275.772465,172.816894 274.883789,173.007324 C273.995113,173.197755 272.911139,173.292969 271.631836,173.292969 Z M297.061523,173 L292.59375,173 L292.59375,163.43457 C292.59375,162.252924 292.383791,161.366702 291.963867,160.775879 C291.543943,160.185056 290.875005,159.889648 289.957031,159.889648 C288.707025,159.889648 287.803714,160.307125 287.24707,161.14209 C286.690427,161.977055 286.412109,163.361318 286.412109,165.294922 L286.412109,173 L281.944336,173 L281.944336,156.623047 L285.357422,156.623047 L285.958008,158.717773 L286.207031,158.717773 C286.705081,157.926754 287.391109,157.328615 288.265137,156.92334 C289.139165,156.518064 290.132807,156.31543 291.246094,156.31543 C293.1504,156.31543 294.595698,156.830561 295.582031,157.86084 C296.568364,158.891118 297.061523,160.37792 297.061523,162.321289 L297.061523,173 Z M316.77832,173 L312.310547,173 L312.310547,163.43457 C312.310547,161.071277 311.431649,159.889648 309.673828,159.889648 C308.423822,159.889648 307.520511,160.314449 306.963867,161.164062 C306.407224,162.013676 306.128906,163.390615 306.128906,165.294922 L306.128906,173 L301.661133,173 L301.661133,150.207031 L306.128906,150.207031 L306.128906,154.850586 C306.128906,155.211916 306.094727,156.061517 306.026367,157.399414 L305.923828,158.717773 L306.158203,158.717773 C307.154302,157.116203 308.736317,156.31543 310.904297,156.31543 C312.828135,156.31543 314.288081,156.833003 315.28418,157.868164 C316.280278,158.903325 316.77832,160.387686 316.77832,162.321289 L316.77832,173 Z M332.979492,173 L332.378906,170.905273 L332.144531,170.905273 C331.666013,171.666996 330.987309,172.255369 330.108398,172.67041 C329.229488,173.085451 328.228521,173.292969 327.105469,173.292969 C325.181631,173.292969 323.73145,172.777837 322.754883,171.747559 C321.778315,170.71728 321.290039,169.235361 321.290039,167.301758 L321.290039,156.623047 L325.757812,156.623047 L325.757812,166.188477 C325.757812,167.370123 325.967771,168.256345 326.387695,168.847168 C326.807619,169.437991 327.476558,169.733398 328.394531,169.733398 C329.644538,169.733398 330.547849,169.315922 331.104492,168.480957 C331.661136,167.645992 331.939453,166.261728 331.939453,164.328125 L331.939453,156.623047 L336.407227,156.623047 L336.407227,173 L332.979492,173 Z M355.757812,173 L351.290039,173 L351.290039,163.43457 C351.290039,162.252924 351.092287,161.366702 350.696777,160.775879 C350.301268,160.185056 349.678715,159.889648 348.829102,159.889648 C347.686518,159.889648 346.856448,160.309566 346.338867,161.149414 C345.821286,161.989262 345.5625,163.371084 345.5625,165.294922 L345.5625,173 L341.094727,173 L341.094727,156.623047 L344.507812,156.623047 L345.108398,158.717773 L345.357422,158.717773 C345.796877,157.965817 346.431636,157.377444 347.261719,156.952637 C348.091801,156.52783 349.04394,156.31543 350.118164,156.31543 C352.569348,156.31543 354.229488,157.116203 355.098633,158.717773 L355.494141,158.717773 C355.933596,157.956051 356.580562,157.365236 357.435059,156.945312 C358.289555,156.525389 359.253901,156.31543 360.328125,156.31543 C362.183603,156.31543 363.587398,156.791499 364.539551,157.743652 C365.491704,158.695806 365.967773,160.221669 365.967773,162.321289 L365.967773,173 L361.485352,173 L361.485352,163.43457 C361.485352,162.252924 361.2876,161.366702 360.89209,160.775879 C360.49658,160.185056 359.874028,159.889648 359.024414,159.889648 C357.930659,159.889648 357.112796,160.28027 356.570801,161.061523 C356.028806,161.842777 355.757812,163.082999 355.757812,164.782227 L355.757812,173 Z M387.339844,173.292969 C385.416006,173.292969 383.907232,172.594734 382.813477,171.198242 L382.579102,171.198242 C382.735352,172.565437 382.813477,173.356444 382.813477,173.571289 L382.813477,180.207031 L378.345703,180.207031 L378.345703,156.623047 L381.978516,156.623047 L382.608398,158.74707 L382.813477,158.74707 C383.858404,157.125968 385.40624,156.31543 387.457031,156.31543 C389.390635,156.31543 390.904291,157.062493 391.998047,158.556641 C393.091802,160.050789 393.638672,162.125963 393.638672,164.782227 C393.638672,166.530282 393.382327,168.048822 392.869629,169.337891 C392.356931,170.62696 391.626958,171.608395 390.679688,172.282227 C389.732417,172.956058 388.619147,173.292969 387.339844,173.292969 Z M386.021484,159.889648 C384.917963,159.889648 384.112307,160.229001 383.604492,160.907715 C383.096677,161.586429 382.833008,162.707023 382.813477,164.269531 L382.813477,164.75293 C382.813477,166.510751 383.074704,167.770504 383.597168,168.532227 C384.119632,169.293949 384.94726,169.674805 386.080078,169.674805 C388.082041,169.674805 389.083008,168.024431 389.083008,164.723633 C389.083008,163.112297 388.836428,161.903813 388.343262,161.098145 C387.850095,160.292476 387.076177,159.889648 386.021484,159.889648 Z M406.470703,156.31543 C407.076175,156.31543 407.5791,156.359375 407.979492,156.447266 L407.642578,160.636719 C407.281248,160.539062 406.841799,160.490234 406.324219,160.490234 C404.89843,160.490234 403.787602,160.856442 402.991699,161.588867 C402.195797,162.321293 401.797852,163.346673 401.797852,164.665039 L401.797852,173 L397.330078,173 L397.330078,156.623047 L400.713867,156.623047 L401.373047,159.376953 L401.592773,159.376953 C402.100588,158.45898 402.786617,157.719241 403.650879,157.157715 C404.515141,156.596189 405.455073,156.31543 406.470703,156.31543 Z M414.512695,164.782227 C414.512695,166.403328 414.778806,167.628902 415.311035,168.458984 C415.843264,169.289067 416.709955,169.704102 417.911133,169.704102 C419.102545,169.704102 419.95947,169.291508 420.481934,168.466309 C421.004397,167.641109 421.265625,166.413094 421.265625,164.782227 C421.265625,163.161125 421.001956,161.945317 420.474609,161.134766 C419.947263,160.324215 419.083014,159.918945 417.881836,159.918945 C416.690424,159.918945 415.831057,160.321773 415.303711,161.127441 C414.776365,161.933109 414.512695,163.151359 414.512695,164.782227 Z M425.835938,164.782227 C425.835938,167.448256 425.13282,169.533196 423.726562,171.037109 C422.320305,172.541023 420.362317,173.292969 417.852539,173.292969 C416.280266,173.292969 414.893561,172.948734 413.692383,172.260254 C412.491205,171.571774 411.568363,170.583014 410.923828,169.293945 C410.279294,168.004876 409.957031,166.500985 409.957031,164.782227 C409.957031,162.106432 410.655266,160.026375 412.051758,158.541992 C413.448249,157.05761 415.41112,156.31543 417.94043,156.31543 C419.512703,156.31543 420.899408,156.657223 422.100586,157.34082 C423.301764,158.024417 424.224606,159.005853 424.869141,160.285156 C425.513675,161.56446 425.835938,163.063468 425.835938,164.782227 Z M434.712891,173.292969 C432.789053,173.292969 431.277838,172.545906 430.179199,171.051758 C429.080561,169.55761 428.53125,167.487318 428.53125,164.84082 C428.53125,162.15526 429.090326,160.062996 430.208496,158.563965 C431.326666,157.064934 432.867178,156.31543 434.830078,156.31543 C436.890635,156.31543 438.462885,157.116203 439.546875,158.717773 L439.693359,158.717773 C439.468749,157.497064 439.356445,156.408208 439.356445,155.451172 L439.356445,150.207031 L443.838867,150.207031 L443.838867,173 L440.411133,173 L439.546875,170.875977 L439.356445,170.875977 C438.340815,172.487313 436.792979,173.292969 434.712891,173.292969 Z M436.280273,169.733398 C437.422857,169.733398 438.260251,169.401371 438.79248,168.737305 C439.32471,168.073239 439.615234,166.94532 439.664062,165.353516 L439.664062,164.870117 C439.664062,163.112296 439.393069,161.852543 438.851074,161.09082 C438.309079,160.329098 437.42774,159.948242 436.207031,159.948242 C435.210933,159.948242 434.437014,160.370601 433.885254,161.215332 C433.333493,162.060063 433.057617,163.288078 433.057617,164.899414 C433.057617,166.51075 433.335935,167.719234 433.892578,168.524902 C434.449222,169.33057 435.245112,169.733398 436.280273,169.733398 Z M460.113281,173 L459.512695,170.905273 L459.27832,170.905273 C458.799802,171.666996 458.121098,172.255369 457.242188,172.67041 C456.363277,173.085451 455.36231,173.292969 454.239258,173.292969 C452.31542,173.292969 450.865239,172.777837 449.888672,171.747559 C448.912104,170.71728 448.423828,169.235361 448.423828,167.301758 L448.423828,156.623047 L452.891602,156.623047 L452.891602,166.188477 C452.891602,167.370123 453.10156,168.256345 453.521484,168.847168 C453.941408,169.437991 454.610347,169.733398 455.52832,169.733398 C456.778327,169.733398 457.681638,169.315922 458.238281,168.480957 C458.794925,167.645992 459.073242,166.261728 459.073242,164.328125 L459.073242,156.623047 L463.541016,156.623047 L463.541016,173 L460.113281,173 Z M475.12793,169.733398 C475.909184,169.733398 476.846674,169.562502 477.94043,169.220703 L477.94043,172.545898 C476.827143,173.043948 475.459969,173.292969 473.838867,173.292969 C472.051749,173.292969 470.750492,172.841313 469.935059,171.937988 C469.119625,171.034663 468.711914,169.679697 468.711914,167.873047 L468.711914,159.977539 L466.573242,159.977539 L466.573242,158.087891 L469.03418,156.59375 L470.323242,153.136719 L473.179688,153.136719 L473.179688,156.623047 L477.764648,156.623047 L477.764648,159.977539 L473.179688,159.977539 L473.179688,167.873047 C473.179688,168.507816 473.357908,168.976561 473.714355,169.279297 C474.070803,169.582033 474.541989,169.733398 475.12793,169.733398 Z M484.810547,164.782227 C484.810547,166.403328 485.076657,167.628902 485.608887,168.458984 C486.141116,169.289067 487.007806,169.704102 488.208984,169.704102 C489.400397,169.704102 490.257322,169.291508 490.779785,168.466309 C491.302249,167.641109 491.563477,166.413094 491.563477,164.782227 C491.563477,163.161125 491.299807,161.945317 490.772461,161.134766 C490.245115,160.324215 489.380865,159.918945 488.179688,159.918945 C486.988275,159.918945 486.128909,160.321773 485.601562,161.127441 C485.074216,161.933109 484.810547,163.151359 484.810547,164.782227 Z M496.133789,164.782227 C496.133789,167.448256 495.430671,169.533196 494.024414,171.037109 C492.618157,172.541023 490.660169,173.292969 488.150391,173.292969 C486.578117,173.292969 485.191412,172.948734 483.990234,172.260254 C482.789056,171.571774 481.866214,170.583014 481.22168,169.293945 C480.577145,168.004876 480.254883,166.500985 480.254883,164.782227 C480.254883,162.106432 480.953118,160.026375 482.349609,158.541992 C483.746101,157.05761 485.708972,156.31543 488.238281,156.31543 C489.810555,156.31543 491.19726,156.657223 492.398438,157.34082 C493.599615,158.024417 494.522458,159.005853 495.166992,160.285156 C495.811527,161.56446 496.133789,163.063468 496.133789,164.782227 Z M90.4233398,214.292969 C85.3256581,214.292969 82.7768555,211.495145 82.7768555,205.899414 C82.7768555,203.116197 83.4702079,200.989753 84.8569336,199.52002 C86.2436593,198.050286 88.2309441,197.31543 90.8188477,197.31543 C92.7133884,197.31543 94.4125901,197.68652 95.9165039,198.428711 L94.5981445,201.885742 C93.895016,201.602538 93.2407257,201.370606 92.6352539,201.189941 C92.0297821,201.009276 91.4243194,200.918945 90.8188477,200.918945 C88.4946173,200.918945 87.3325195,202.569319 87.3325195,205.870117 C87.3325195,209.073258 88.4946173,210.674805 90.8188477,210.674805 C91.678227,210.674805 92.4741174,210.56006 93.206543,210.330566 C93.9389685,210.101073 94.6713831,209.74219 95.4038086,209.253906 L95.4038086,213.077148 C94.6811487,213.536135 93.9511756,213.853515 93.2138672,214.029297 C92.4765588,214.205079 91.5463923,214.292969 90.4233398,214.292969 Z M102.757324,205.782227 C102.757324,207.403328 103.023435,208.628902 103.555664,209.458984 C104.087893,210.289067 104.954584,210.704102 106.155762,210.704102 C107.347174,210.704102 108.204099,210.291508 108.726562,209.466309 C109.249026,208.641109 109.510254,207.413094 109.510254,205.782227 C109.510254,204.161125 109.246585,202.945317 108.719238,202.134766 C108.191892,201.324215 107.327643,200.918945 106.126465,200.918945 C104.935053,200.918945 104.075686,201.321773 103.54834,202.127441 C103.020993,202.933109 102.757324,204.151359 102.757324,205.782227 Z M114.080566,205.782227 C114.080566,208.448256 113.377448,210.533196 111.971191,212.037109 C110.564934,213.541023 108.606946,214.292969 106.097168,214.292969 C104.524894,214.292969 103.13819,213.948734 101.937012,213.260254 C100.735834,212.571774 99.8129915,211.583014 99.168457,210.293945 C98.5239226,209.004876 98.2016602,207.500985 98.2016602,205.782227 C98.2016602,203.106432 98.8998954,201.026375 100.296387,199.541992 C101.692878,198.05761 103.655749,197.31543 106.185059,197.31543 C107.757332,197.31543 109.144037,197.657223 110.345215,198.34082 C111.546393,199.024417 112.469235,200.005853 113.11377,201.285156 C113.758304,202.56446 114.080566,204.063468 114.080566,205.782227 Z M132.435059,214 L127.967285,214 L127.967285,204.43457 C127.967285,203.252924 127.769533,202.366702 127.374023,201.775879 C126.978514,201.185056 126.355961,200.889648 125.506348,200.889648 C124.363764,200.889648 123.533694,201.309566 123.016113,202.149414 C122.498533,202.989262 122.239746,204.371084 122.239746,206.294922 L122.239746,214 L117.771973,214 L117.771973,197.623047 L121.185059,197.623047 L121.785645,199.717773 L122.034668,199.717773 C122.474123,198.965817 123.108883,198.377444 123.938965,197.952637 C124.769047,197.52783 125.721186,197.31543 126.79541,197.31543 C129.246594,197.31543 130.906734,198.116203 131.775879,199.717773 L132.171387,199.717773 C132.610842,198.956051 133.257808,198.365236 134.112305,197.945312 C134.966801,197.525389 135.931147,197.31543 137.005371,197.31543 C138.860849,197.31543 140.264644,197.791499 141.216797,198.743652 C142.16895,199.695806 142.64502,201.221669 142.64502,203.321289 L142.64502,214 L138.162598,214 L138.162598,204.43457 C138.162598,203.252924 137.964846,202.366702 137.569336,201.775879 C137.173826,201.185056 136.551274,200.889648 135.70166,200.889648 C134.607905,200.889648 133.790042,201.28027 133.248047,202.061523 C132.706052,202.842777 132.435059,204.082999 132.435059,205.782227 L132.435059,214 Z M165.42334,214 L164.559082,211.773438 L164.441895,211.773438 C163.689938,212.720708 162.91602,213.37744 162.120117,213.743652 C161.324215,214.109865 160.286627,214.292969 159.007324,214.292969 C157.435051,214.292969 156.19727,213.843754 155.293945,212.945312 C154.39062,212.046871 153.938965,210.767586 153.938965,209.107422 C153.938965,207.369132 154.546869,206.087406 155.762695,205.262207 C156.978522,204.437008 158.811999,203.980469 161.263184,203.892578 L164.10498,203.804688 L164.10498,203.086914 C164.10498,201.42675 163.25538,200.59668 161.556152,200.59668 C160.247552,200.59668 158.709481,200.992184 156.941895,201.783203 L155.462402,198.765625 C157.347177,197.779292 159.437,197.286133 161.731934,197.286133 C163.92921,197.286133 165.613764,197.764644 166.785645,198.72168 C167.957525,199.678716 168.543457,201.133779 168.543457,203.086914 L168.543457,214 L165.42334,214 Z M164.10498,206.412109 L162.376465,206.470703 C161.07763,206.509766 160.110843,206.744138 159.476074,207.173828 C158.841305,207.603518 158.523926,208.257808 158.523926,209.136719 C158.523926,210.396491 159.246575,211.026367 160.691895,211.026367 C161.727056,211.026367 162.554684,210.728519 163.174805,210.132812 C163.794925,209.537106 164.10498,208.746099 164.10498,207.759766 L164.10498,206.412109 Z M184.568848,209.136719 C184.568848,210.816415 183.985357,212.095699 182.818359,212.974609 C181.651361,213.85352 179.905773,214.292969 177.581543,214.292969 C176.390131,214.292969 175.374516,214.212403 174.534668,214.05127 C173.69482,213.890136 172.908695,213.653322 172.17627,213.34082 L172.17627,209.649414 C173.006352,210.040041 173.941401,210.367186 174.981445,210.630859 C176.02149,210.894533 176.937008,211.026367 177.728027,211.026367 C179.349129,211.026367 180.159668,210.557622 180.159668,209.620117 C180.159668,209.268553 180.052247,208.982911 179.837402,208.763184 C179.622558,208.543456 179.251467,208.294435 178.724121,208.016113 C178.196775,207.737792 177.493657,207.413088 176.614746,207.041992 C175.354974,206.514646 174.42969,206.026369 173.838867,205.577148 C173.248044,205.127927 172.818361,204.612796 172.549805,204.031738 C172.281249,203.450681 172.146973,202.735356 172.146973,201.885742 C172.146973,200.430657 172.710932,199.30518 173.838867,198.509277 C174.966803,197.713375 176.565908,197.31543 178.63623,197.31543 C180.608897,197.31543 182.527823,197.745113 184.393066,198.604492 L183.04541,201.827148 C182.225094,201.475584 181.4585,201.187501 180.745605,200.962891 C180.032711,200.73828 179.305179,200.625977 178.562988,200.625977 C177.244622,200.625977 176.585449,200.982418 176.585449,201.695312 C176.585449,202.095705 176.797849,202.442381 177.222656,202.735352 C177.647463,203.028322 178.57763,203.462888 180.013184,204.039062 C181.292487,204.556643 182.229977,205.040037 182.825684,205.489258 C183.42139,205.938479 183.860838,206.456052 184.144043,207.041992 C184.427248,207.627933 184.568848,208.326168 184.568848,209.136719 Z M199.407715,205.782227 C199.407715,207.403328 199.673825,208.628902 200.206055,209.458984 C200.738284,210.289067 201.604974,210.704102 202.806152,210.704102 C203.997565,210.704102 204.85449,210.291508 205.376953,209.466309 C205.899417,208.641109 206.160645,207.413094 206.160645,205.782227 C206.160645,204.161125 205.896975,202.945317 205.369629,202.134766 C204.842283,201.324215 203.978033,200.918945 202.776855,200.918945 C201.585443,200.918945 200.726077,201.321773 200.19873,202.127441 C199.671384,202.933109 199.407715,204.151359 199.407715,205.782227 Z M210.730957,205.782227 C210.730957,208.448256 210.027839,210.533196 208.621582,212.037109 C207.215325,213.541023 205.257337,214.292969 202.747559,214.292969 C201.175285,214.292969 199.78858,213.948734 198.587402,213.260254 C197.386224,212.571774 196.463382,211.583014 195.818848,210.293945 C195.174313,209.004876 194.852051,207.500985 194.852051,205.782227 C194.852051,203.106432 195.550286,201.026375 196.946777,199.541992 C198.343269,198.05761 200.30614,197.31543 202.835449,197.31543 C204.407723,197.31543 205.794428,197.657223 206.995605,198.34082 C208.196783,199.024417 209.119626,200.005853 209.76416,201.285156 C210.408695,202.56446 210.730957,204.063468 210.730957,205.782227 Z M223.416504,214.292969 C221.492666,214.292969 219.983892,213.594734 218.890137,212.198242 L218.655762,212.198242 C218.812013,213.565437 218.890137,214.356444 218.890137,214.571289 L218.890137,221.207031 L214.422363,221.207031 L214.422363,197.623047 L218.055176,197.623047 L218.685059,199.74707 L218.890137,199.74707 C219.935064,198.125968 221.4829,197.31543 223.533691,197.31543 C225.467295,197.31543 226.980952,198.062493 228.074707,199.556641 C229.168463,201.050789 229.715332,203.125963 229.715332,205.782227 C229.715332,207.530282 229.458987,209.048822 228.946289,210.337891 C228.433591,211.62696 227.703618,212.608395 226.756348,213.282227 C225.809077,213.956058 224.695807,214.292969 223.416504,214.292969 Z M222.098145,200.889648 C220.994623,200.889648 220.188967,201.229001 219.681152,201.907715 C219.173337,202.586429 218.909668,203.707023 218.890137,205.269531 L218.890137,205.75293 C218.890137,207.510751 219.151365,208.770504 219.673828,209.532227 C220.196292,210.293949 221.02392,210.674805 222.156738,210.674805 C224.158701,210.674805 225.159668,209.024431 225.159668,205.723633 C225.159668,204.112297 224.913088,202.903813 224.419922,202.098145 C223.926755,201.292476 223.152837,200.889648 222.098145,200.889648 Z M240.057129,214.292969 C234.959447,214.292969 232.410645,211.495145 232.410645,205.899414 C232.410645,203.116197 233.103997,200.989753 234.490723,199.52002 C235.877448,198.050286 237.864733,197.31543 240.452637,197.31543 C242.347177,197.31543 244.046379,197.68652 245.550293,198.428711 L244.231934,201.885742 C243.528805,201.602538 242.874515,201.370606 242.269043,201.189941 C241.663571,201.009276 241.058108,200.918945 240.452637,200.918945 C238.128406,200.918945 236.966309,202.569319 236.966309,205.870117 C236.966309,209.073258 238.128406,210.674805 240.452637,210.674805 C241.312016,210.674805 242.107906,210.56006 242.840332,210.330566 C243.572758,210.101073 244.305172,209.74219 245.037598,209.253906 L245.037598,213.077148 C244.314938,213.536135 243.584965,213.853515 242.847656,214.029297 C242.110348,214.205079 241.180181,214.292969 240.057129,214.292969 Z M242.85498,217.662109 C242.85498,218.912116 242.486332,219.815427 241.749023,220.37207 C241.011715,220.928714 239.87159,221.207031 238.328613,221.207031 C237.566891,221.207031 236.854007,221.104493 236.189941,220.899414 L236.189941,218.438477 C236.453615,218.506836 236.807615,218.575195 237.251953,218.643555 C237.696291,218.711914 238.040526,218.746094 238.284668,218.746094 C238.987796,218.746094 239.339355,218.443362 239.339355,217.837891 C239.339355,217.02734 238.528817,216.500001 236.907715,216.255859 L238.050293,214 L240.877441,214 L240.481934,214.893555 C241.204593,215.127931 241.78076,215.491697 242.210449,215.984863 C242.640139,216.47803 242.85498,217.037106 242.85498,217.662109 Z M252.391113,205.782227 C252.391113,207.403328 252.657224,208.628902 253.189453,209.458984 C253.721682,210.289067 254.588373,210.704102 255.789551,210.704102 C256.980963,210.704102 257.837888,210.291508 258.360352,209.466309 C258.882815,208.641109 259.144043,207.413094 259.144043,205.782227 C259.144043,204.161125 258.880374,202.945317 258.353027,202.134766 C257.825681,201.324215 256.961432,200.918945 255.760254,200.918945 C254.568842,200.918945 253.709475,201.321773 253.182129,202.127441 C252.654783,202.933109 252.391113,204.151359 252.391113,205.782227 Z M263.714355,205.782227 C263.714355,208.448256 263.011237,210.533196 261.60498,212.037109 C260.198723,213.541023 258.240735,214.292969 255.730957,214.292969 C254.158684,214.292969 252.771979,213.948734 251.570801,213.260254 C250.369623,212.571774 249.446781,211.583014 248.802246,210.293945 C248.157712,209.004876 247.835449,207.500985 247.835449,205.782227 C247.835449,203.106432 248.533684,201.026375 249.930176,199.541992 C251.326667,198.05761 253.289538,197.31543 255.818848,197.31543 C257.391121,197.31543 258.777826,197.657223 259.979004,198.34082 C261.180182,199.024417 262.103024,200.005853 262.747559,201.285156 C263.392093,202.56446 263.714355,204.063468 263.714355,205.782227 Z M253.35791,194.283203 C253.055174,194.283203 252.76465,194.412596 252.486328,194.671387 C252.208006,194.930177 252.005372,195.32324 251.878418,195.850586 L249.695801,195.850586 C249.803223,194.434563 250.206051,193.326176 250.904297,192.525391 C251.602543,191.724605 252.527826,191.324219 253.680176,191.324219 C254.080568,191.324219 254.473631,191.404784 254.859375,191.565918 C255.245119,191.727052 255.625975,191.902831 256.001953,192.093262 C256.377932,192.283692 256.74658,192.45703 257.10791,192.613281 C257.46924,192.769532 257.825682,192.847656 258.177246,192.847656 C258.479982,192.847656 258.770506,192.720704 259.048828,192.466797 C259.32715,192.212889 259.529785,191.822268 259.656738,191.294922 L261.839355,191.294922 C261.731933,192.710945 261.324222,193.819332 260.616211,194.620117 C259.9082,195.420902 258.987799,195.821289 257.85498,195.821289 C257.454588,195.821289 257.061525,195.740723 256.675781,195.57959 C256.290037,195.418456 255.909182,195.242677 255.533203,195.052246 C255.157225,194.861815 254.788576,194.686036 254.427246,194.524902 C254.065916,194.363769 253.709474,194.283203 253.35791,194.283203 Z M274.187988,200.494141 C273.240718,200.494141 272.498538,200.794431 271.961426,201.39502 C271.424314,201.995608 271.1167,202.847651 271.038574,203.951172 L277.308105,203.951172 C277.288574,202.847651 277.000491,201.995608 276.443848,201.39502 C275.887204,200.794431 275.135259,200.494141 274.187988,200.494141 Z M274.817871,214.292969 C272.181139,214.292969 270.120613,213.565437 268.63623,212.110352 C267.151848,210.655266 266.409668,208.59474 266.409668,205.928711 C266.409668,203.184557 267.095696,201.062996 268.467773,199.563965 C269.839851,198.064934 271.736804,197.31543 274.158691,197.31543 C276.473156,197.31543 278.274896,197.974603 279.563965,199.292969 C280.853034,200.611335 281.497559,202.432606 281.497559,204.756836 L281.497559,206.924805 L270.936035,206.924805 C270.984864,208.194342 271.360836,209.185543 272.063965,209.898438 C272.767093,210.611332 273.753412,210.967773 275.022949,210.967773 C276.009282,210.967773 276.94189,210.865235 277.820801,210.660156 C278.699711,210.455077 279.617671,210.127932 280.574707,209.678711 L280.574707,213.135742 C279.793453,213.526369 278.958501,213.816894 278.069824,214.007324 C277.181148,214.197755 276.097174,214.292969 274.817871,214.292969 Z M296.556152,209.136719 C296.556152,210.816415 295.972662,212.095699 294.805664,212.974609 C293.638666,213.85352 291.893078,214.292969 289.568848,214.292969 C288.377435,214.292969 287.361821,214.212403 286.521973,214.05127 C285.682125,213.890136 284.896,213.653322 284.163574,213.34082 L284.163574,209.649414 C284.993656,210.040041 285.928706,210.367186 286.96875,210.630859 C288.008794,210.894533 288.924312,211.026367 289.715332,211.026367 C291.336434,211.026367 292.146973,210.557622 292.146973,209.620117 C292.146973,209.268553 292.039552,208.982911 291.824707,208.763184 C291.609862,208.543456 291.238772,208.294435 290.711426,208.016113 C290.184079,207.737792 289.480961,207.413088 288.602051,207.041992 C287.342279,206.514646 286.416995,206.026369 285.826172,205.577148 C285.235349,205.127927 284.805665,204.612796 284.537109,204.031738 C284.268553,203.450681 284.134277,202.735356 284.134277,201.885742 C284.134277,200.430657 284.698237,199.30518 285.826172,198.509277 C286.954107,197.713375 288.553212,197.31543 290.623535,197.31543 C292.596201,197.31543 294.515127,197.745113 296.380371,198.604492 L295.032715,201.827148 C294.212398,201.475584 293.445804,201.187501 292.73291,200.962891 C292.020016,200.73828 291.292484,200.625977 290.550293,200.625977 C289.231927,200.625977 288.572754,200.982418 288.572754,201.695312 C288.572754,202.095705 288.785154,202.442381 289.209961,202.735352 C289.634768,203.028322 290.564934,203.462888 292.000488,204.039062 C293.279792,204.556643 294.217282,205.040037 294.812988,205.489258 C295.408694,205.938479 295.848143,206.456052 296.131348,207.041992 C296.414552,207.627933 296.556152,208.326168 296.556152,209.136719 Z M319.26123,209.136719 C319.26123,210.816415 318.67774,212.095699 317.510742,212.974609 C316.343744,213.85352 314.598156,214.292969 312.273926,214.292969 C311.082514,214.292969 310.066899,214.212403 309.227051,214.05127 C308.387203,213.890136 307.601078,213.653322 306.868652,213.34082 L306.868652,209.649414 C307.698735,210.040041 308.633784,210.367186 309.673828,210.630859 C310.713872,210.894533 311.629391,211.026367 312.42041,211.026367 C314.041512,211.026367 314.852051,210.557622 314.852051,209.620117 C314.852051,209.268553 314.74463,208.982911 314.529785,208.763184 C314.31494,208.543456 313.94385,208.294435 313.416504,208.016113 C312.889158,207.737792 312.18604,207.413088 311.307129,207.041992 C310.047357,206.514646 309.122073,206.026369 308.53125,205.577148 C307.940427,205.127927 307.510744,204.612796 307.242188,204.031738 C306.973631,203.450681 306.839355,202.735356 306.839355,201.885742 C306.839355,200.430657 307.403315,199.30518 308.53125,198.509277 C309.659185,197.713375 311.25829,197.31543 313.328613,197.31543 C315.301279,197.31543 317.220206,197.745113 319.085449,198.604492 L317.737793,201.827148 C316.917476,201.475584 316.150882,201.187501 315.437988,200.962891 C314.725094,200.73828 313.997562,200.625977 313.255371,200.625977 C311.937005,200.625977 311.277832,200.982418 311.277832,201.695312 C311.277832,202.095705 311.490232,202.442381 311.915039,202.735352 C312.339846,203.028322 313.270012,203.462888 314.705566,204.039062 C315.98487,204.556643 316.92236,205.040037 317.518066,205.489258 C318.113773,205.938479 318.553221,206.456052 318.836426,207.041992 C319.11963,207.627933 319.26123,208.326168 319.26123,209.136719 Z M329.529785,200.494141 C328.582515,200.494141 327.840335,200.794431 327.303223,201.39502 C326.766111,201.995608 326.458496,202.847651 326.380371,203.951172 L332.649902,203.951172 C332.630371,202.847651 332.342288,201.995608 331.785645,201.39502 C331.229001,200.794431 330.477056,200.494141 329.529785,200.494141 Z M330.159668,214.292969 C327.522936,214.292969 325.46241,213.565437 323.978027,212.110352 C322.493645,210.655266 321.751465,208.59474 321.751465,205.928711 C321.751465,203.184557 322.437493,201.062996 323.80957,199.563965 C325.181647,198.064934 327.078601,197.31543 329.500488,197.31543 C331.814953,197.31543 333.616693,197.974603 334.905762,199.292969 C336.194831,200.611335 336.839355,202.432606 336.839355,204.756836 L336.839355,206.924805 L326.277832,206.924805 C326.32666,208.194342 326.702633,209.185543 327.405762,209.898438 C328.10889,210.611332 329.095208,210.967773 330.364746,210.967773 C331.351079,210.967773 332.283687,210.865235 333.162598,210.660156 C334.041508,210.455077 334.959468,210.127932 335.916504,209.678711 L335.916504,213.135742 C335.13525,213.526369 334.300297,213.816894 333.411621,214.007324 C332.522945,214.197755 331.438971,214.292969 330.159668,214.292969 Z M344.939941,214 L340.472168,214 L340.472168,191.207031 L344.939941,191.207031 L344.939941,214 Z M356.409668,200.494141 C355.462398,200.494141 354.720218,200.794431 354.183105,201.39502 C353.645993,201.995608 353.338379,202.847651 353.260254,203.951172 L359.529785,203.951172 C359.510254,202.847651 359.222171,201.995608 358.665527,201.39502 C358.108884,200.794431 357.356938,200.494141 356.409668,200.494141 Z M357.039551,214.292969 C354.402819,214.292969 352.342293,213.565437 350.85791,212.110352 C349.373528,210.655266 348.631348,208.59474 348.631348,205.928711 C348.631348,203.184557 349.317376,201.062996 350.689453,199.563965 C352.06153,198.064934 353.958484,197.31543 356.380371,197.31543 C358.694836,197.31543 360.496576,197.974603 361.785645,199.292969 C363.074713,200.611335 363.719238,202.432606 363.719238,204.756836 L363.719238,206.924805 L353.157715,206.924805 C353.206543,208.194342 353.582516,209.185543 354.285645,209.898438 C354.988773,210.611332 355.975091,210.967773 357.244629,210.967773 C358.230962,210.967773 359.16357,210.865235 360.04248,210.660156 C360.921391,210.455077 361.839351,210.127932 362.796387,209.678711 L362.796387,213.135742 C362.015133,213.526369 361.18018,213.816894 360.291504,214.007324 C359.402828,214.197755 358.318854,214.292969 357.039551,214.292969 Z M374.002441,214.292969 C368.90476,214.292969 366.355957,211.495145 366.355957,205.899414 C366.355957,203.116197 367.049309,200.989753 368.436035,199.52002 C369.822761,198.050286 371.810046,197.31543 374.397949,197.31543 C376.29249,197.31543 377.991692,197.68652 379.495605,198.428711 L378.177246,201.885742 C377.474118,201.602538 376.819827,201.370606 376.214355,201.189941 C375.608884,201.009276 375.003421,200.918945 374.397949,200.918945 C372.073719,200.918945 370.911621,202.569319 370.911621,205.870117 C370.911621,209.073258 372.073719,210.674805 374.397949,210.674805 C375.257329,210.674805 376.053219,210.56006 376.785645,210.330566 C377.51807,210.101073 378.250485,209.74219 378.98291,209.253906 L378.98291,213.077148 C378.26025,213.536135 377.530277,213.853515 376.792969,214.029297 C376.05566,214.205079 375.125494,214.292969 374.002441,214.292969 Z M382.586426,193.389648 C382.586426,191.934563 383.396965,191.207031 385.018066,191.207031 C386.639168,191.207031 387.449707,191.934563 387.449707,193.389648 C387.449707,194.083011 387.247072,194.622557 386.841797,195.008301 C386.436521,195.394045 385.828617,195.586914 385.018066,195.586914 C383.396965,195.586914 382.586426,194.8545 382.586426,193.389648 Z M387.244629,214 L382.776855,214 L382.776855,197.623047 L387.244629,197.623047 L387.244629,214 Z M395.491699,205.782227 C395.491699,207.403328 395.75781,208.628902 396.290039,209.458984 C396.822268,210.289067 397.688959,210.704102 398.890137,210.704102 C400.081549,210.704102 400.938474,210.291508 401.460938,209.466309 C401.983401,208.641109 402.244629,207.413094 402.244629,205.782227 C402.244629,204.161125 401.98096,202.945317 401.453613,202.134766 C400.926267,201.324215 400.062018,200.918945 398.86084,200.918945 C397.669428,200.918945 396.810061,201.321773 396.282715,202.127441 C395.755368,202.933109 395.491699,204.151359 395.491699,205.782227 Z M406.814941,205.782227 C406.814941,208.448256 406.111823,210.533196 404.705566,212.037109 C403.299309,213.541023 401.341321,214.292969 398.831543,214.292969 C397.259269,214.292969 395.872565,213.948734 394.671387,213.260254 C393.470209,212.571774 392.547367,211.583014 391.902832,210.293945 C391.258298,209.004876 390.936035,207.500985 390.936035,205.782227 C390.936035,203.106432 391.63427,201.026375 393.030762,199.541992 C394.427253,198.05761 396.390124,197.31543 398.919434,197.31543 C400.491707,197.31543 401.878412,197.657223 403.07959,198.34082 C404.280768,199.024417 405.20361,200.005853 405.848145,201.285156 C406.492679,202.56446 406.814941,204.063468 406.814941,205.782227 Z M425.623535,214 L421.155762,214 L421.155762,204.43457 C421.155762,203.252924 420.945803,202.366702 420.525879,201.775879 C420.105955,201.185056 419.437016,200.889648 418.519043,200.889648 C417.269037,200.889648 416.365725,201.307125 415.809082,202.14209 C415.252439,202.977055 414.974121,204.361318 414.974121,206.294922 L414.974121,214 L410.506348,214 L410.506348,197.623047 L413.919434,197.623047 L414.52002,199.717773 L414.769043,199.717773 C415.267092,198.926754 415.953121,198.328615 416.827148,197.92334 C417.701176,197.518064 418.694819,197.31543 419.808105,197.31543 C421.712412,197.31543 423.15771,197.830561 424.144043,198.86084 C425.130376,199.891118 425.623535,201.37792 425.623535,203.321289 L425.623535,214 Z M440.623535,214 L439.759277,211.773438 L439.64209,211.773438 C438.890133,212.720708 438.116215,213.37744 437.320312,213.743652 C436.52441,214.109865 435.486823,214.292969 434.20752,214.292969 C432.635246,214.292969 431.397465,213.843754 430.494141,212.945312 C429.590816,212.046871 429.13916,210.767586 429.13916,209.107422 C429.13916,207.369132 429.747064,206.087406 430.962891,205.262207 C432.178717,204.437008 434.012195,203.980469 436.463379,203.892578 L439.305176,203.804688 L439.305176,203.086914 C439.305176,201.42675 438.455575,200.59668 436.756348,200.59668 C435.447747,200.59668 433.909677,200.992184 432.14209,201.783203 L430.662598,198.765625 C432.547373,197.779292 434.637196,197.286133 436.932129,197.286133 C439.129406,197.286133 440.813959,197.764644 441.98584,198.72168 C443.157721,199.678716 443.743652,201.133779 443.743652,203.086914 L443.743652,214 L440.623535,214 Z M439.305176,206.412109 L437.57666,206.470703 C436.277826,206.509766 435.311038,206.744138 434.67627,207.173828 C434.041501,207.603518 433.724121,208.257808 433.724121,209.136719 C433.724121,210.396491 434.44677,211.026367 435.89209,211.026367 C436.927251,211.026367 437.75488,210.728519 438.375,210.132812 C438.99512,209.537106 439.305176,208.746099 439.305176,207.759766 L439.305176,206.412109 Z M453.528809,214.292969 C451.604971,214.292969 450.093755,213.545906 448.995117,212.051758 C447.896479,210.55761 447.347168,208.487318 447.347168,205.84082 C447.347168,203.15526 447.906244,201.062996 449.024414,199.563965 C450.142584,198.064934 451.683096,197.31543 453.645996,197.31543 C455.706553,197.31543 457.278803,198.116203 458.362793,199.717773 L458.509277,199.717773 C458.284667,198.497064 458.172363,197.408208 458.172363,196.451172 L458.172363,191.207031 L462.654785,191.207031 L462.654785,214 L459.227051,214 L458.362793,211.875977 L458.172363,211.875977 C457.156733,213.487313 455.608897,214.292969 453.528809,214.292969 Z M455.096191,210.733398 C456.238775,210.733398 457.076169,210.401371 457.608398,209.737305 C458.140628,209.073239 458.431152,207.94532 458.47998,206.353516 L458.47998,205.870117 C458.47998,204.112296 458.208987,202.852543 457.666992,202.09082 C457.124997,201.329098 456.243658,200.948242 455.022949,200.948242 C454.02685,200.948242 453.252932,201.370601 452.701172,202.215332 C452.149411,203.060063 451.873535,204.288078 451.873535,205.899414 C451.873535,207.51075 452.151853,208.719234 452.708496,209.524902 C453.26514,210.33057 454.06103,210.733398 455.096191,210.733398 Z M477.728027,214 L476.86377,211.773438 L476.746582,211.773438 C475.994625,212.720708 475.220707,213.37744 474.424805,213.743652 C473.628902,214.109865 472.591315,214.292969 471.312012,214.292969 C469.739738,214.292969 468.501958,213.843754 467.598633,212.945312 C466.695308,212.046871 466.243652,210.767586 466.243652,209.107422 C466.243652,207.369132 466.851556,206.087406 468.067383,205.262207 C469.283209,204.437008 471.116687,203.980469 473.567871,203.892578 L476.409668,203.804688 L476.409668,203.086914 C476.409668,201.42675 475.560067,200.59668 473.86084,200.59668 C472.55224,200.59668 471.014169,200.992184 469.246582,201.783203 L467.76709,198.765625 C469.651865,197.779292 471.741688,197.286133 474.036621,197.286133 C476.233898,197.286133 477.918451,197.764644 479.090332,198.72168 C480.262213,199.678716 480.848145,201.133779 480.848145,203.086914 L480.848145,214 L477.728027,214 Z M476.409668,206.412109 L474.681152,206.470703 C473.382318,206.509766 472.415531,206.744138 471.780762,207.173828 C471.145993,207.603518 470.828613,208.257808 470.828613,209.136719 C470.828613,210.396491 471.551262,211.026367 472.996582,211.026367 C474.031743,211.026367 474.859372,210.728519 475.479492,210.132812 C476.099612,209.537106 476.409668,208.746099 476.409668,207.759766 L476.409668,206.412109 Z M496.873535,209.136719 C496.873535,210.816415 496.290045,212.095699 495.123047,212.974609 C493.956049,213.85352 492.210461,214.292969 489.88623,214.292969 C488.694818,214.292969 487.679203,214.212403 486.839355,214.05127 C485.999508,213.890136 485.213383,213.653322 484.480957,213.34082 L484.480957,209.649414 C485.311039,210.040041 486.246089,210.367186 487.286133,210.630859 C488.326177,210.894533 489.241695,211.026367 490.032715,211.026367 C491.653817,211.026367 492.464355,210.557622 492.464355,209.620117 C492.464355,209.268553 492.356935,208.982911 492.14209,208.763184 C491.927245,208.543456 491.556155,208.294435 491.028809,208.016113 C490.501462,207.737792 489.798344,207.413088 488.919434,207.041992 C487.659662,206.514646 486.734378,206.026369 486.143555,205.577148 C485.552731,205.127927 485.123048,204.612796 484.854492,204.031738 C484.585936,203.450681 484.45166,202.735356 484.45166,201.885742 C484.45166,200.430657 485.015619,199.30518 486.143555,198.509277 C487.27149,197.713375 488.870595,197.31543 490.940918,197.31543 C492.913584,197.31543 494.83251,197.745113 496.697754,198.604492 L495.350098,201.827148 C494.529781,201.475584 493.763187,201.187501 493.050293,200.962891 C492.337399,200.73828 491.609867,200.625977 490.867676,200.625977 C489.54931,200.625977 488.890137,200.982418 488.890137,201.695312 C488.890137,202.095705 489.102537,202.442381 489.527344,202.735352 C489.952151,203.028322 490.882317,203.462888 492.317871,204.039062 C493.597174,204.556643 494.534665,205.040037 495.130371,205.489258 C495.726077,205.938479 496.165526,206.456052 496.44873,207.041992 C496.731935,207.627933 496.873535,208.326168 496.873535,209.136719 Z M499.72998,211.905273 C499.72998,211.084957 499.949705,210.464846 500.38916,210.044922 C500.828615,209.624998 501.468258,209.415039 502.308105,209.415039 C503.118656,209.415039 503.746092,209.629881 504.19043,210.05957 C504.634768,210.48926 504.856934,211.104488 504.856934,211.905273 C504.856934,212.676762 504.632326,213.284666 504.183105,213.729004 C503.733884,214.173342 503.108891,214.395508 502.308105,214.395508 C501.487789,214.395508 500.85303,214.178225 500.403809,213.743652 C499.954588,213.30908 499.72998,212.696293 499.72998,211.905273 Z" id="No-exite-nenhum-pro" fill="#DF96CD"></path>
            <path d="M200.788574,316 L198.687988,316 L198.687988,304.952148 L194.908691,304.952148 L194.908691,303.150391 L204.567871,303.150391 L204.567871,304.952148 L200.788574,304.952148 L200.788574,316 Z M215.805176,316 L208.536621,316 L208.536621,303.150391 L215.805176,303.150391 L215.805176,304.925781 L210.637207,304.925781 L210.637207,308.423828 L215.47998,308.423828 L215.47998,310.181641 L210.637207,310.181641 L210.637207,314.21582 L215.805176,314.21582 L215.805176,316 Z M231.287598,316 L228.712402,316 L222.393066,305.760742 L222.322754,305.760742 L222.366699,306.332031 C222.448731,307.42188 222.489746,308.417964 222.489746,309.320312 L222.489746,316 L220.58252,316 L220.58252,303.150391 L223.131348,303.150391 L229.433105,313.336914 L229.48584,313.336914 C229.474121,313.202148 229.450684,312.71143 229.415527,311.864746 C229.380371,311.018062 229.362793,310.357424 229.362793,309.882812 L229.362793,303.150391 L231.287598,303.150391 L231.287598,316 Z M241.118652,316 L239.018066,316 L239.018066,304.952148 L235.23877,304.952148 L235.23877,303.150391 L244.897949,303.150391 L244.897949,304.952148 L241.118652,304.952148 L241.118652,316 Z M256.135254,316 L248.866699,316 L248.866699,303.150391 L256.135254,303.150391 L256.135254,304.925781 L250.967285,304.925781 L250.967285,308.423828 L255.810059,308.423828 L255.810059,310.181641 L250.967285,310.181641 L250.967285,314.21582 L256.135254,314.21582 L256.135254,316 Z M278.293457,316 L275.718262,316 L269.398926,305.760742 L269.328613,305.760742 L269.372559,306.332031 C269.45459,307.42188 269.495605,308.417964 269.495605,309.320312 L269.495605,316 L267.588379,316 L267.588379,303.150391 L270.137207,303.150391 L276.438965,313.336914 L276.491699,313.336914 C276.47998,313.202148 276.456543,312.71143 276.421387,311.864746 C276.38623,311.018062 276.368652,310.357424 276.368652,309.882812 L276.368652,303.150391 L278.293457,303.150391 L278.293457,316 Z M295.094238,309.557617 C295.094238,311.649425 294.571294,313.275385 293.525391,314.435547 C292.479487,315.595709 290.998545,316.175781 289.08252,316.175781 C287.143057,316.175781 285.653326,315.600103 284.613281,314.44873 C283.573237,313.297358 283.053223,311.661143 283.053223,309.540039 C283.053223,307.418935 283.576167,305.790045 284.62207,304.65332 C285.667974,303.516596 287.160635,302.948242 289.100098,302.948242 C291.010263,302.948242 292.486811,303.525385 293.529785,304.679688 C294.572759,305.83399 295.094238,307.45995 295.094238,309.557617 Z M285.285645,309.557617 C285.285645,311.139656 285.604977,312.339351 286.243652,313.156738 C286.882327,313.974125 287.828607,314.382812 289.08252,314.382812 C290.330573,314.382812 291.272458,313.97852 291.908203,313.169922 C292.543948,312.361324 292.861816,311.157235 292.861816,309.557617 C292.861816,307.981437 292.546878,306.786137 291.916992,305.97168 C291.287106,305.157222 290.348151,304.75 289.100098,304.75 C287.840326,304.75 286.889652,305.157222 286.248047,305.97168 C285.606442,306.786137 285.285645,307.981437 285.285645,309.557617 Z M306.999512,303.150391 L309.179199,303.150391 L304.679199,316 L302.464355,316 L297.981934,303.150391 L300.144043,303.150391 L302.824707,311.139648 C302.965333,311.52051 303.114745,312.011227 303.272949,312.611816 C303.431153,313.212405 303.533691,313.659178 303.580566,313.952148 C303.656739,313.506834 303.773925,312.991214 303.932129,312.405273 C304.090333,311.819333 304.219238,311.385744 304.318848,311.104492 L306.999512,303.150391 Z M320.126465,316 L318.843262,312.431641 L313.930176,312.431641 L312.67334,316 L310.458496,316 L315.266113,303.097656 L317.55127,303.097656 L322.358887,316 L320.126465,316 Z M318.289551,310.621094 L317.085449,307.123047 C316.997558,306.888671 316.875977,306.519534 316.720703,306.015625 C316.565429,305.511716 316.458496,305.142579 316.399902,304.908203 C316.241698,305.62891 316.010255,306.416988 315.705566,307.272461 L314.54541,310.621094 L318.289551,310.621094 Z M331.609863,316 L327.883301,305.268555 L327.812988,305.268555 C327.912598,306.862313 327.962402,308.356438 327.962402,309.750977 L327.962402,316 L326.055176,316 L326.055176,303.150391 L329.01709,303.150391 L332.585449,313.37207 L332.638184,313.37207 L336.312012,303.150391 L339.282715,303.150391 L339.282715,316 L337.26123,316 L337.26123,309.645508 C337.26123,309.006833 337.277344,308.17481 337.30957,307.149414 C337.341797,306.124018 337.369629,305.502931 337.393066,305.286133 L337.322754,305.286133 L333.464355,316 L331.609863,316 Z M351.935059,316 L344.666504,316 L344.666504,303.150391 L351.935059,303.150391 L351.935059,304.925781 L346.76709,304.925781 L346.76709,308.423828 L351.609863,308.423828 L351.609863,310.181641 L346.76709,310.181641 L346.76709,314.21582 L351.935059,314.21582 L351.935059,316 Z M367.41748,316 L364.842285,316 L358.522949,305.760742 L358.452637,305.760742 L358.496582,306.332031 C358.578614,307.42188 358.619629,308.417964 358.619629,309.320312 L358.619629,316 L356.712402,316 L356.712402,303.150391 L359.26123,303.150391 L365.562988,313.336914 L365.615723,313.336914 C365.604004,313.202148 365.580567,312.71143 365.54541,311.864746 C365.510254,311.018062 365.492676,310.357424 365.492676,309.882812 L365.492676,303.150391 L367.41748,303.150391 L367.41748,316 Z M377.248535,316 L375.147949,316 L375.147949,304.952148 L371.368652,304.952148 L371.368652,303.150391 L381.027832,303.150391 L381.027832,304.952148 L377.248535,304.952148 L377.248535,316 Z M392.265137,316 L384.996582,316 L384.996582,303.150391 L392.265137,303.150391 L392.265137,304.925781 L387.097168,304.925781 L387.097168,308.423828 L391.939941,308.423828 L391.939941,310.181641 L387.097168,310.181641 L387.097168,314.21582 L392.265137,314.21582 L392.265137,316 Z" id="tente-novamente" fill="#9E9E9E"></path>
            <rect id="Rectangle-2" fill="#DF96CD" x="260" y="257" width="68" height="4" rx="2"></rect>
            <path d="M6.49023438,110.882812 L8.48242188,110.882812 C10.3444104,110.882812 11.7376256,110.514978 12.6621094,109.779297 C13.5865932,109.043616 14.0488281,107.972663 14.0488281,106.566406 C14.0488281,105.147128 13.6614622,104.098962 12.8867188,103.421875 C12.1119753,102.744788 10.8977947,102.40625 9.24414062,102.40625 L6.49023438,102.40625 L6.49023438,110.882812 Z M20.1621094,106.351562 C20.1621094,109.424495 19.2018325,111.774731 17.28125,113.402344 C15.3606675,115.029956 12.629575,115.84375 9.08789062,115.84375 L6.49023438,115.84375 L6.49023438,126 L0.435546875,126 L0.435546875,97.4453125 L9.55664062,97.4453125 C13.0201996,97.4453125 15.6536368,98.1907478 17.4570312,99.6816406 C19.2604257,101.172533 20.1621094,103.395819 20.1621094,106.351562 Z M31.6074219,110.121094 L33.5605469,110.121094 C35.4746189,110.121094 36.8873652,109.802087 37.7988281,109.164062 C38.710291,108.526038 39.1660156,107.523444 39.1660156,106.15625 C39.1660156,104.802077 38.7005255,103.838545 37.7695312,103.265625 C36.838537,102.692705 35.3964941,102.40625 33.4433594,102.40625 L31.6074219,102.40625 L31.6074219,110.121094 Z M31.6074219,115.042969 L31.6074219,126 L25.5527344,126 L25.5527344,97.4453125 L33.8730469,97.4453125 C37.7532746,97.4453125 40.6243396,98.1516856 42.4863281,99.5644531 C44.3483166,100.977221 45.2792969,103.122381 45.2792969,106 C45.2792969,107.679696 44.8170619,109.173822 43.8925781,110.482422 C42.9680943,111.791022 41.6595137,112.816403 39.9667969,113.558594 C44.2636934,119.977897 47.0631445,124.124991 48.3652344,126 L41.6464844,126 L34.8300781,115.042969 L31.6074219,115.042969 Z M77.8769531,111.683594 C77.8769531,116.41018 76.7050898,120.042956 74.3613281,122.582031 C72.0175664,125.121106 68.658225,126.390625 64.2832031,126.390625 C59.9081812,126.390625 56.5488398,125.121106 54.2050781,122.582031 C51.8613164,120.042956 50.6894531,116.397159 50.6894531,111.644531 C50.6894531,106.891903 51.8645716,103.262382 54.2148437,100.755859 C56.5651159,98.2493364 59.9342229,96.9960938 64.3222656,96.9960938 C68.7103084,96.9960938 72.0663946,98.259102 74.390625,100.785156 C76.7148554,103.311211 77.8769531,106.943987 77.8769531,111.683594 Z M57.0371094,111.683594 C57.0371094,114.873714 57.6425721,117.276034 58.8535156,118.890625 C60.0644592,120.505216 61.8743369,121.3125 64.2832031,121.3125 C69.1139564,121.3125 71.5292969,118.102897 71.5292969,111.683594 C71.5292969,105.25127 69.1269771,102.035156 64.3222656,102.035156 C61.9133994,102.035156 60.0970113,102.845695 58.8730469,104.466797 C57.6490824,106.087899 57.0371094,108.493474 57.0371094,111.683594 Z M107.486328,111.449219 C107.486328,116.149763 106.148451,119.749987 103.472656,122.25 C100.796862,124.750013 96.932968,126 91.8808594,126 L83.7949219,126 L83.7949219,97.4453125 L92.7597656,97.4453125 C97.4212473,97.4453125 101.041003,98.6757689 103.619141,101.136719 C106.197279,103.597669 107.486328,107.035134 107.486328,111.449219 Z M101.197266,111.605469 C101.197266,105.472626 98.4889594,102.40625 93.0722656,102.40625 L89.8496094,102.40625 L89.8496094,121 L92.4472656,121 C98.2806281,121 101.197266,117.868521 101.197266,111.605469 Z M136.646484,97.4453125 L136.646484,115.921875 C136.646484,118.031261 136.174484,119.8802 135.230469,121.46875 C134.286454,123.0573 132.922535,124.274735 131.138672,125.121094 C129.354809,125.967452 127.245455,126.390625 124.810547,126.390625 C121.138654,126.390625 118.28712,125.449879 116.255859,123.568359 C114.224599,121.68684 113.208984,119.111996 113.208984,115.84375 L113.208984,97.4453125 L119.244141,97.4453125 L119.244141,114.925781 C119.244141,117.126313 119.686845,118.74088 120.572266,119.769531 C121.457687,120.798182 122.922516,121.3125 124.966797,121.3125 C126.945973,121.3125 128.381506,120.794927 129.273438,119.759766 C130.165369,118.724604 130.611328,117.100271 130.611328,114.886719 L130.611328,97.4453125 L136.646484,97.4453125 Z M154.654297,126 L148.599609,126 L148.599609,102.484375 L140.845703,102.484375 L140.845703,97.4453125 L162.408203,97.4453125 L162.408203,102.484375 L154.654297,102.484375 L154.654297,126 Z M192.720703,111.683594 C192.720703,116.41018 191.54884,120.042956 189.205078,122.582031 C186.861316,125.121106 183.501975,126.390625 179.126953,126.390625 C174.751931,126.390625 171.39259,125.121106 169.048828,122.582031 C166.705066,120.042956 165.533203,116.397159 165.533203,111.644531 C165.533203,106.891903 166.708322,103.262382 169.058594,100.755859 C171.408866,98.2493364 174.777973,96.9960938 179.166016,96.9960938 C183.554058,96.9960938 186.910145,98.259102 189.234375,100.785156 C191.558605,103.311211 192.720703,106.943987 192.720703,111.683594 Z M171.880859,111.683594 C171.880859,114.873714 172.486322,117.276034 173.697266,118.890625 C174.908209,120.505216 176.718087,121.3125 179.126953,121.3125 C183.957706,121.3125 186.373047,118.102897 186.373047,111.683594 C186.373047,105.25127 183.970727,102.035156 179.166016,102.035156 C176.757149,102.035156 174.940761,102.845695 173.716797,104.466797 C172.492832,106.087899 171.880859,108.493474 171.880859,111.683594 Z M234.361328,126 L226.666016,126 L214.244141,104.398438 L214.068359,104.398438 C214.315756,108.213561 214.439453,110.934888 214.439453,112.5625 L214.439453,126 L209.029297,126 L209.029297,97.4453125 L216.666016,97.4453125 L229.068359,118.832031 L229.205078,118.832031 C229.009765,115.121075 228.912109,112.497404 228.912109,110.960938 L228.912109,97.4453125 L234.361328,97.4453125 L234.361328,126 Z M259.029297,126 L256.958984,119.203125 L246.548828,119.203125 L244.478516,126 L237.955078,126 L248.033203,97.328125 L255.435547,97.328125 L265.552734,126 L259.029297,126 Z M255.513672,114.125 C253.5996,107.966115 252.522137,104.483077 252.28125,103.675781 C252.040363,102.868486 251.867839,102.230471 251.763672,101.761719 C251.333982,103.428394 250.103526,107.549446 248.072266,114.125 L255.513672,114.125 Z M248.560547,93.109375 C248.156899,93.109375 247.769533,93.2818993 247.398437,93.6269531 C247.027342,93.9720069 246.757162,94.4960902 246.587891,95.1992188 L243.677734,95.1992188 C243.820964,93.3111885 244.358068,91.8333387 245.289062,90.765625 C246.220057,89.6979113 247.453768,89.1640625 248.990234,89.1640625 C249.524091,89.1640625 250.048175,89.2714833 250.5625,89.4863281 C251.076825,89.7011729 251.584633,89.9355456 252.085937,90.1894531 C252.587242,90.4433606 253.078774,90.6744781 253.560547,90.8828125 C254.04232,91.0911469 254.517576,91.1953125 254.986328,91.1953125 C255.389976,91.1953125 255.777342,91.0260434 256.148438,90.6875 C256.519533,90.3489566 256.789713,89.8281285 256.958984,89.125 L259.869141,89.125 C259.725911,91.0130303 259.182296,92.4908801 258.238281,93.5585938 C257.294266,94.6263074 256.067065,95.1601562 254.556641,95.1601562 C254.022784,95.1601562 253.4987,95.0527354 252.984375,94.8378906 C252.47005,94.6230458 251.962242,94.3886731 251.460937,94.1347656 C250.959633,93.8808581 250.468101,93.6464854 249.986328,93.4316406 C249.504555,93.2167958 249.029299,93.109375 248.560547,93.109375 Z M295.064453,111.683594 C295.064453,116.41018 293.89259,120.042956 291.548828,122.582031 C289.205066,125.121106 285.845725,126.390625 281.470703,126.390625 C277.095681,126.390625 273.73634,125.121106 271.392578,122.582031 C269.048816,120.042956 267.876953,116.397159 267.876953,111.644531 C267.876953,106.891903 269.052072,103.262382 271.402344,100.755859 C273.752616,98.2493364 277.121723,96.9960938 281.509766,96.9960938 C285.897808,96.9960938 289.253895,98.259102 291.578125,100.785156 C293.902355,103.311211 295.064453,106.943987 295.064453,111.683594 Z M274.224609,111.683594 C274.224609,114.873714 274.830072,117.276034 276.041016,118.890625 C277.251959,120.505216 279.061837,121.3125 281.470703,121.3125 C286.301456,121.3125 288.716797,118.102897 288.716797,111.683594 C288.716797,105.25127 286.314477,102.035156 281.509766,102.035156 C279.100899,102.035156 277.284511,102.845695 276.060547,104.466797 C274.836582,106.087899 274.224609,108.493474 274.224609,111.683594 Z M327.818359,126 L311.373047,126 L311.373047,97.4453125 L327.818359,97.4453125 L327.818359,102.40625 L317.427734,102.40625 L317.427734,108.675781 L327.095703,108.675781 L327.095703,113.636719 L317.427734,113.636719 L317.427734,121 L327.818359,121 L327.818359,126 Z M359.107422,126 L351.412109,126 L338.990234,104.398438 L338.814453,104.398438 C339.06185,108.213561 339.185547,110.934888 339.185547,112.5625 L339.185547,126 L333.775391,126 L333.775391,97.4453125 L341.412109,97.4453125 L353.814453,118.832031 L353.951172,118.832031 C353.755858,115.121075 353.658203,112.497404 353.658203,110.960938 L353.658203,97.4453125 L359.107422,97.4453125 L359.107422,126 Z M378.423828,102.074219 C376.145171,102.074219 374.380866,102.93033 373.130859,104.642578 C371.880853,106.354826 371.255859,108.74087 371.255859,111.800781 C371.255859,118.168001 373.645158,121.351562 378.423828,121.351562 C380.429046,121.351562 382.857408,120.850265 385.708984,119.847656 L385.708984,124.925781 C383.365223,125.902349 380.748061,126.390625 377.857422,126.390625 C373.703755,126.390625 370.526704,125.130872 368.326172,122.611328 C366.12564,120.091784 365.025391,116.475284 365.025391,111.761719 C365.025391,108.792954 365.56575,106.192068 366.646484,103.958984 C367.727219,101.7259 369.279938,100.013678 371.304687,98.8222656 C373.329437,97.6308534 375.70246,97.0351562 378.423828,97.0351562 C381.197279,97.0351562 383.98371,97.7057225 386.783203,99.046875 L384.830078,103.96875 C383.762364,103.460935 382.688156,103.018231 381.607422,102.640625 C380.526687,102.263019 379.4655,102.074219 378.423828,102.074219 Z M417.701172,111.683594 C417.701172,116.41018 416.529309,120.042956 414.185547,122.582031 C411.841785,125.121106 408.482444,126.390625 404.107422,126.390625 C399.7324,126.390625 396.373059,125.121106 394.029297,122.582031 C391.685535,120.042956 390.513672,116.397159 390.513672,111.644531 C390.513672,106.891903 391.68879,103.262382 394.039062,100.755859 C396.389335,98.2493364 399.758442,96.9960938 404.146484,96.9960938 C408.534527,96.9960938 411.890613,98.259102 414.214844,100.785156 C416.539074,103.311211 417.701172,106.943987 417.701172,111.683594 Z M396.861328,111.683594 C396.861328,114.873714 397.466791,117.276034 398.677734,118.890625 C399.888678,120.505216 401.698556,121.3125 404.107422,121.3125 C408.938175,121.3125 411.353516,118.102897 411.353516,111.683594 C411.353516,105.25127 408.951196,102.035156 404.146484,102.035156 C401.737618,102.035156 399.92123,102.845695 398.697266,104.466797 C397.473301,106.087899 396.861328,108.493474 396.861328,111.683594 Z M448.951172,126 L441.255859,126 L428.833984,104.398438 L428.658203,104.398438 C428.9056,108.213561 429.029297,110.934888 429.029297,112.5625 L429.029297,126 L423.619141,126 L423.619141,97.4453125 L431.255859,97.4453125 L443.658203,118.832031 L443.794922,118.832031 C443.599608,115.121075 443.501953,112.497404 443.501953,110.960938 L443.501953,97.4453125 L448.951172,97.4453125 L448.951172,126 Z M467.154297,126 L461.099609,126 L461.099609,102.484375 L453.345703,102.484375 L453.345703,97.4453125 L474.908203,97.4453125 L474.908203,102.484375 L467.154297,102.484375 L467.154297,126 Z M485.357422,110.121094 L487.310547,110.121094 C489.224619,110.121094 490.637365,109.802087 491.548828,109.164062 C492.460291,108.526038 492.916016,107.523444 492.916016,106.15625 C492.916016,104.802077 492.450525,103.838545 491.519531,103.265625 C490.588537,102.692705 489.146494,102.40625 487.193359,102.40625 L485.357422,102.40625 L485.357422,110.121094 Z M485.357422,115.042969 L485.357422,126 L479.302734,126 L479.302734,97.4453125 L487.623047,97.4453125 C491.503275,97.4453125 494.37434,98.1516856 496.236328,99.5644531 C498.098317,100.977221 499.029297,103.122381 499.029297,106 C499.029297,107.679696 498.567062,109.173822 497.642578,110.482422 C496.718094,111.791022 495.409514,112.816403 493.716797,113.558594 C498.013693,119.977897 500.813145,124.124991 502.115234,126 L495.396484,126 L488.580078,115.042969 L485.357422,115.042969 Z M523.189453,126 L521.119141,119.203125 L510.708984,119.203125 L508.638672,126 L502.115234,126 L512.193359,97.328125 L519.595703,97.328125 L529.712891,126 L523.189453,126 Z M519.673828,114.125 C517.759756,107.966115 516.682293,104.483077 516.441406,103.675781 C516.20052,102.868486 516.027995,102.230471 515.923828,101.761719 C515.494138,103.428394 514.263682,107.549446 512.232422,114.125 L519.673828,114.125 Z M556.998047,111.449219 C556.998047,116.149763 555.66017,119.749987 552.984375,122.25 C550.30858,124.750013 546.444687,126 541.392578,126 L533.306641,126 L533.306641,97.4453125 L542.271484,97.4453125 C546.932966,97.4453125 550.552721,98.6757689 553.130859,101.136719 C555.708997,103.597669 556.998047,107.035134 556.998047,111.449219 Z M550.708984,111.605469 C550.708984,105.472626 548.000678,102.40625 542.583984,102.40625 L539.361328,102.40625 L539.361328,121 L541.958984,121 C547.792347,121 550.708984,117.868521 550.708984,111.605469 Z M588.833984,111.683594 C588.833984,116.41018 587.662121,120.042956 585.318359,122.582031 C582.974598,125.121106 579.615256,126.390625 575.240234,126.390625 C570.865212,126.390625 567.505871,125.121106 565.162109,122.582031 C562.818348,120.042956 561.646484,116.397159 561.646484,111.644531 C561.646484,106.891903 562.821603,103.262382 565.171875,100.755859 C567.522147,98.2493364 570.891254,96.9960938 575.279297,96.9960938 C579.66734,96.9960938 583.023426,98.259102 585.347656,100.785156 C587.671887,103.311211 588.833984,106.943987 588.833984,111.683594 Z M567.994141,111.683594 C567.994141,114.873714 568.599603,117.276034 569.810547,118.890625 C571.02149,120.505216 572.831368,121.3125 575.240234,121.3125 C580.070988,121.3125 582.486328,118.102897 582.486328,111.683594 C582.486328,105.25127 580.084008,102.035156 575.279297,102.035156 C572.870431,102.035156 571.054043,102.845695 569.830078,104.466797 C568.606114,106.087899 567.994141,108.493474 567.994141,111.683594 Z" id="Produto-no-encontra" fill="#BD74AB"></path>
        </g>
    </g>
</svg>